<?xml version="1.0" encoding="UTF-8" standalone="no"?>
<!-- Created with Inkscape (http://www.inkscape.org/) -->
<svg id="svg2" xmlns:rdf="http://www.w3.org/1999/02/22-rdf-syntax-ns#" xmlns="http://www.w3.org/2000/svg" xml:space="preserve" height="165" viewBox="0 0 625 165" width="625" version="1.1" xmlns:cc="http://creativecommons.org/ns#" xmlns:dc="http://purl.org/dc/elements/1.1/"><metadata id="metadata8"><rdf:RDF><cc:Work rdf:about=""><dc:format>image/svg+xml</dc:format><dc:type rdf:resource="http://purl.org/dc/dcmitype/StillImage"/><dc:title/></cc:Work></rdf:RDF></metadata><g id="g10" transform="matrix(1.25,0,0,-1.25,0,165)"><path id="path24" d="m232.72 131.12s0.0766-0.20831 0.19063-0.59531c0.134-0.373 0.29237-0.93225 0.45937-1.6062 0.326-1.367 0.60231-3.2308 0.62031-5.3078 0.111-4.128-0.67768-9.1516-0.30468-13.277 0.181-2.05 0.66037-3.8269 1.3094-5.2969 0.641-1.47 1.4535-2.635 2.2375-3.5 0.784-0.861 1.5495-1.4313 2.1125-1.7703 0.569-0.339 0.92657-0.47187 0.92657-0.47187s0.27831 0.26869 0.67031 0.77969c0.401 0.519 0.92181 1.2625 1.4328 2.2375 1.013 1.958 2.0364 4.7549 1.6734 8.9609-0.191 2.101-0.74538 4.5608-1.6344 7.0578-0.439 1.236-0.95644 2.4854-1.5484 3.6734-0.593 1.185-1.2626 2.3229-1.9656 3.3359-1.396 2.046-2.9828 3.5737-4.1828 4.4797-0.602 0.457-1.0939 0.78607-1.4609 0.98907-0.345 0.199-0.53595 0.31093-0.53595 0.31093zm34.559 0s-0.18738-0.11194-0.53438-0.31093c-0.363-0.20301-0.86205-0.53207-1.464-0.98907-1.195-0.906-2.7811-2.4337-4.1781-4.4797-0.703-1.013-1.3709-2.1509-1.9609-3.3359-0.595-1.188-1.1157-2.4374-1.5547-3.6734-0.881-2.497-1.436-4.9568-1.625-7.0578-0.37-4.206 0.65694-7.0029 1.6609-8.9609 0.517-0.975 1.0431-1.7185 1.4391-2.2375 0.397-0.511 0.67032-0.77969 0.67032-0.77969s0.35387 0.13287 0.92187 0.47187 1.3282 0.90931 2.1172 1.7703c0.789 0.865 1.5965 2.03 2.2375 3.5 0.65 1.47 1.1237 3.2469 1.3047 5.2969 0.371 4.125-0.41056 9.1486-0.30156 13.277 0.026 2.077 0.29219 3.9408 0.61719 5.3078 0.171 0.674 0.32437 1.2332 0.45937 1.6062 0.125 0.387 0.19063 0.59531 0.19063 0.59531zm123.86-6.3516c-0.0967 0.0008-0.19212-0.006-0.28437-0.0203-0.588-0.096-0.85895-0.53456-0.93595-1.1516-0.033-0.311-0.0186-0.66132 0.0203-1.0453 0.027-0.397 0.10906-0.81237 0.18906-1.2594 0.164-0.894 0.373-1.8762 0.575-2.8562 0.191-0.989 0.35319-1.9787 0.49219-2.8797 0.191-1.233 0.3265-2.462 0.3875-3.7 0-0.317-0.009-0.64062-0.039-0.96562-0.191 1.233-0.5835 2.5032-1.1375 3.4422-0.572 0.933-1.2618 1.5359-1.9688 1.5719-0.248 0.01-0.46018-0.0402-0.64218-0.13125-0.353-0.011-0.67576-0.15219-0.94376-0.39219-0.26-0.238-0.45475-0.57075-0.59375-0.99375-0.267-0.841-0.19569-1.7444-0.005-2.6984 0.196-0.949 0.50263-1.9583 0.84063-2.7703 0.479-1.167 1.1097-2.156 1.4297-3.475 0.478-1.984 0.0334-4.6217-1.0656-7.0047-0.1-0.242-0.1645-0.45394-0.1875-0.63594-0.412-0.65-0.45819-1.1373-0.26719-1.3453 0.182-0.203 0.62138-0.09994 1.1094 0.51406 2.035 2.586 3.6604 5.2815 5.1234 8.0375 1.244 2.406 2.3812 4.6401 2.9922 7.4391 0.182 0.872 0.31626 2.0963 0.23126 3.4703-0.077 1.377-0.38807 2.9028-0.93907 4.2938-0.555 1.386-1.3268 2.6241-2.1828 3.4391-0.425 0.406-0.86612 0.71682-1.2781 0.90782-0.32251 0.13425-0.63031 0.20661-0.92031 0.20937zm-257.37-4.4234c-1.981 0.009-4.1252-0.36325-6.1938-1.2812-2.763-1.207-5.267-3.4019-7.05-6.1359-1.821-2.735-2.9539-5.9601-3.4609-9.2391-0.521-3.291-0.38756-6.6437 0.24844-9.7797 0.325-1.565 0.76037-3.0835 1.3094-4.5125 0.55-1.432 1.1911-2.7814 1.8891-4.0344 0.37596-0.6465 0.76556-1.2645 1.1672-1.8594-0.69339 0.56757-1.4303 1.1566-2.2141 1.7656-3.145 2.43-7.0459 5.186-12.022 7.875-2.495 1.317-5.2629 2.5996-8.2359 3.6656-2.973 1.07-6.1609 1.916-9.4359 2.375-3.269 0.461-6.6255 0.502-9.8375 0.1-3.203-0.397-6.2629-1.2369-8.9969-2.3219-0.344-0.141-0.6785-0.28475-1.0125-0.41875-0.34-0.136-0.66906-0.27294-0.98906-0.43594-0.636-0.317-1.2677-0.62838-1.8797-0.93438-0.611-0.303-1.1744-0.66794-1.7484-0.98594-0.559-0.332-1.119-0.64156-1.625-1.0016-1.023-0.701-2.0181-1.3303-2.8641-2.0203-0.856-0.669-1.6722-1.2619-2.3562-1.8859-0.679-0.609-1.3053-1.1459-1.8453-1.6219-0.516-0.509-0.96669-0.94431-1.3297-1.2953-0.717-0.705-1.1078-1.0906-1.1078-1.0906s0.42131 0.35438 1.1953 1.0094c0.383 0.325 0.85031 0.72618 1.3953 1.1922 0.574 0.435 1.228 0.93519 1.95 1.4922 0.708 0.569 1.5629 1.1059 2.4469 1.7109 0.88 0.626 1.8936 1.1791 2.9406 1.8031 0.521 0.326 1.0841 0.59694 1.6531 0.88594 0.579 0.28 1.1474 0.59718 1.7594 0.86718 0.617 0.258 1.2484 0.5195 1.8844 0.7875 0.315 0.144 0.64 0.25718 0.975 0.36718 0.334 0.119 0.66812 0.23331 1.0031 0.34531 2.71 0.904 5.6638 1.5542 8.7328 1.7812 3.068 0.234 6.2342 0.05512 9.3172-0.49687 6.19-1.098 11.969-3.6286 16.792-6.1766 4.809-2.6 8.719-5.1474 11.95-7.3484 3.232-2.201 5.7979-4.0442 7.8109-5.4812 1.5112-1.0707 2.4169-1.7018 3.3297-2.3375-0.82333 0.24461-1.6382 0.48482-2.4703 0.73282-3.327 0.963-6.705 1.945-10.2 2.825-3.479 0.877-7.0506 1.6791-10.727 2.2141-1.835 0.285-3.6994 0.47794-5.5734 0.63594-1.892 0.122-3.7771 0.21406-5.6891 0.16406-3.814-0.04104-7.6664-0.51462-11.423-1.4156-0.469-0.098-0.932-0.23663-1.4-0.36563l-1.39-0.391-1.377-0.457c-0.459-0.145-0.91288-0.3035-1.3719-0.4875-1.836-0.679-3.6187-1.4923-5.3297-2.4453-6.855-3.795-12.448-9.5528-16.291-16.183-1.922-3.324-3.4496-6.8548-4.5016-10.519-1.061-3.656-1.6552-7.4473-1.7172-11.245-0.04752-2.2265 0.10983-4.4586 0.46406-6.6578-0.18888 0.85522-0.41858 1.6553-0.6875 2.3844-1.148 3.146-2.8601 5.1062-3.9781 6.0812 0.162-0.698 0.305-1.4246 0.425-2.1516 0.139-0.951 0.26394-1.9163 0.33594-2.8953 0.028-0.489 0.05131-0.97675 0.07031-1.4688 0.019-0.502 0.03-0.98825 0.025-1.4812-0.024-1.979-0.14869-3.9731-0.45469-5.9141-0.077-0.488-0.16206-0.97513-0.23906-1.4531-0.086-0.483-0.19125-0.95981-0.30625-1.4328-0.105-0.468-0.19912-0.94225-0.32812-1.4062-0.13-0.459-0.25888-0.91788-0.39688-1.3719-0.287-0.898-0.56475-1.788-0.91875-2.625-0.325-0.85-0.68762-1.6679-1.0656-2.4469-0.416-0.765-0.76038-1.5282-1.2094-2.2172-0.22-0.348-0.42994-0.67906-0.63594-1.0141-0.225-0.326-0.44438-0.63969-0.65938-0.95469-0.425-0.602-0.91406-1.1524-1.3391-1.6734-0.445-0.516-0.91181-0.97494-1.3328-1.3859-0.454-0.406-0.87988-0.76562-1.2719-1.0906-0.411-0.315-0.79388-0.57813-1.1469-0.80313-0.335-0.238-0.68325-0.39613-0.95625-0.55312-0.286-0.14401-0.52619-0.26406-0.71719-0.36406-0.402-0.172-0.62188-0.24375-0.62188-0.24375s0.19162 0.15313 0.51562 0.45313c0.153 0.162 0.34969 0.36474 0.57969 0.59374 0.11 0.114 0.23381 0.23819 0.35781 0.36719 0.129 0.129 0.24881 0.29194 0.38281 0.43594 0.544 0.612 1.1471 1.3989 1.7781 2.3469 0.296 0.472 0.63619 0.96969 0.91719 1.5297 0.154 0.282 0.31544 0.54931 0.47344 0.84531 0.158 0.287 0.30231 0.59244 0.44531 0.89844 0.598 1.233 1.1458 2.6045 1.6438 4.0625 0.239 0.74701 0.48806 1.4923 0.68906 2.2813 0.1 0.386 0.21906 0.77869 0.31406 1.1797 0.091 0.402 0.18244 0.80931 0.27344 1.2203 0.095 0.397 0.16212 0.81581 0.25312 1.2328 0.082 0.416 0.16331 0.83526 0.22031 1.2563 0.067 0.421 0.13331 0.85087 0.19531 1.2719 0.053 0.43 0.10081 0.86618 0.15781 1.2922 0.105 0.87 0.16769 1.7328 0.22969 2.6078 0.067 0.88 0.06694 1.7507 0.08594 2.6297 0.034 1.74-0.04738 3.4805-0.20938 5.1625-0.057 0.621-0.14425 1.224-0.23125 1.825-1.137-1.247-2.504-2.9533-3.775-5.1953-1.272-2.232-2.4381-4.9999-3.2891-8.4359-0.354-1.377-0.64869-2.8684-0.95469-4.3984-0.316-1.524-0.62794-3.0969-0.98594-4.6359-0.727-3.092-1.6642-6.0127-3.1172-8.2547-0.716-1.133-1.5956-2.0318-2.5906-2.7578-0.133-0.086-0.25656-0.18275-0.37656-0.26875-0.129-0.086-0.2535-0.17706-0.3875-0.23906-0.273-0.144-0.53138-0.27694-0.78438-0.41094-0.258-0.153-0.52544-0.225-0.77344-0.325-0.268-0.095-0.52162-0.19556-0.76562-0.27656-0.497-0.143-0.96562-0.23962-1.3906-0.34062-0.206-0.052-0.4055-0.07632-0.5875-0.095312-0.182-0.024-0.35012-0.04248-0.50312-0.06248-0.626-0.076-0.96094-0.11406-0.96094-0.11406s0.28712-0.19106 0.80312-0.53906c0.143-0.081 0.29638-0.1875 0.45938-0.2875 0.163-0.11 0.34869-0.22587 0.55469-0.32188 0.42-0.2 0.90788-0.43912 1.4719-0.67812 0.291-0.096 0.60275-0.19131 0.91875-0.29531 0.324-0.096 0.67819-0.23013 1.0422-0.27813 0.372-0.062 0.758-0.12362 1.175-0.19062 0.2-0.038 0.41725-0.04816 0.63125-0.05312 0.211-0.0048 0.43438-0.01376 0.65938-0.01872 1.773-0.034 3.8918 0.31125 5.9188 1.1812 2.036 0.846 4.0047 2.1232 5.7547 3.6422 1.749 1.521 3.3119 3.2603 4.6219 5.0813 1.319 1.82 2.4185 3.7236 3.3125 5.6156 0.879 1.879 1.5394 3.7475 1.9984 5.5125 0.669 2.672 0.84081 5.0993 0.70781 7.2453-0.03692 0.58444-0.09906 1.1444-0.17656 1.6875 0.21297-1.0399 0.46751-2.0716 0.77344-3.0875 1.095-3.638 2.8719-7.0704 5.1859-10.048 2.313-2.992 5.1724-5.5072 8.2984-7.4672 1.558-0.979 3.1829-1.8343 4.8469-2.5453 1.663-0.713 3.3656-1.3392 5.0766-1.8172 0.841-0.264 1.7206-0.44531 2.5766-0.67031 0.865-0.162 1.7249-0.33888 2.5859-0.47188 0.86-0.125 1.7113-0.28269 2.5813-0.35469 0.435-0.038 0.87-0.08512 1.3-0.12812 0.43-0.018 0.86969-0.04448 1.3047-0.06248 0.865-0.06304 1.7456-0.02936 2.6156-0.0344 0.439 0.01496 0.87906 0.04872 1.3141 0.06872l0.65469 0.04216 0.65 0.0672c1.75 0.153 3.4796 0.51538 5.1766 0.98438 1.706 0.449 3.3414 1.1289 4.9094 1.9219s3.0445 1.7544 4.3875 2.8594c1.329 1.099 2.5428 2.3316 3.5938 3.6406 1.062 1.315 1.9411 2.7248 2.6781 4.1688 0.4245 0.83285 0.79611 1.679 1.125 2.5312 0.7236 0.68355 1.4685 1.376 2.2547 2.0672 1.822 1.596 3.8633 3.1726 6.1953 4.2016 1.181 0.506 2.3938 0.86569 3.7328 1.0047 1.338 0.167 2.6672 0.22318 3.9672 0.04216 1.3-0.207 2.5617-0.62494 3.6797-1.2859 1.119-0.654 2.1041-1.5439 2.8781-2.5859 0.779-1.046 1.3491-2.2326 1.7031-3.4656 0.334-1.229 0.46787-2.4994 0.39687-3.7234-0.072-1.229-0.33094-2.4097-0.76094-3.4797-0.449-1.071-1.0332-2.0171-1.7172-2.8391-1.395-1.596-3.101-2.59-4.611-3.15-0.187-0.072-0.36924-0.13794-0.55624-0.21094-0.182-0.05096-0.36238-0.10043-0.53438-0.14843-0.354-0.086008-0.67874-0.19982-0.99374-0.25782-0.321-0.052-0.60738-0.10513-0.88438-0.15313-0.272-0.048-0.51719-0.094688-0.74219-0.10469-0.898-0.076-1.3859-0.11406-1.3859-0.11406s0.48887-0.0008 1.3969 0.008c0.225-0.00896 0.47769 0.01976 0.75469 0.04376 0.272 0.024 0.57744 0.05248 0.89844 0.087496 0.325 0.03296 0.65913 0.11769 1.0281 0.17969 0.181 0.038 0.37774 0.07296 0.56874 0.11094 0.187 0.05696 0.38244 0.11487 0.57344 0.17187 1.596 0.468 3.4613 1.3615 5.0953 2.9875 0.794 0.826 1.511 1.8158 2.075 2.9578 0.554 1.138 0.92675 2.4339 1.0938 3.7969 0.163 1.357 0.10631 2.7906-0.20469 4.2156-0.316 1.424-0.88994 2.8306-1.7359 4.1016-0.841 1.272-1.9544 2.4027-3.2734 3.2688-1.32 0.86-2.8213 1.444-4.3703 1.75-1.548 0.28699-3.1071 0.27618-4.6031 0.14218-1.501-0.105-3.0443-0.49656-4.4203-1.0516-2.4226-0.9945-4.4335-2.4331-6.1828-3.8953 0.10431 0.56038 0.19706 1.1201 0.26563 1.6781 0.373 2.954 0.22849 5.8506-0.28751 8.5516-0.545 2.71-1.4679 5.2479-2.8109 7.4609-0.67 1.104-1.4238 2.1357-2.2938 3.0437-0.86 0.908-1.8073 1.6978-2.8203 2.3438-1.013 0.647-2.1034 1.1172-3.1844 1.4422-0.535 0.172-1.094 0.25006-1.625 0.36406-0.54 0.048-1.0615 0.12888-1.5875 0.12188-1.042 0.04-2.0311-0.10106-2.9641-0.26406-0.463-0.113-0.91656-0.20306-1.3516-0.33906-0.425-0.149-0.85925-0.26156-1.2562-0.42656-1.616-0.621-2.9932-1.3857-4.1922-2.1797-1.21-0.784-2.2227-1.6257-3.0688-2.4047-1.716-1.551-2.9594-2.8005-3.8484-3.6125-0.44-0.402-0.7935-0.70281-1.0125-0.90781-0.239-0.202-0.35469-0.30625-0.35469-0.30625s0.49775 0.38274 1.4438 1.1187c0.956 0.727 2.3278 1.8722 4.1828 3.1922 0.932 0.665 1.9932 1.3436 3.2172 1.9266 1.233 0.595 2.6284 1.1161 4.1484 1.4531 0.378 0.103 0.77362 0.13569 1.1656 0.20469 0.392 0.06304 0.794 0.07464 1.2 0.11562 0.808 0.0072 1.6308-0.0072 2.4438-0.175 0.42-0.05 0.81174-0.19075 1.2187-0.29375 0.392-0.152 0.78832-0.27669 1.1703-0.47969 0.756-0.366 1.4922-0.83481 2.1422-1.4328 1.319-1.176 2.3899-2.7598 3.1219-4.6078 0.75-1.836 1.1654-3.9241 1.2844-6.0891 0.216-4.345-0.8115-9.1009-3.2875-13.111-2.419-4.039-6.3106-7.1662-11.302-8.7812-1.256-0.396-2.5571-0.74594-3.9281-0.96094l-0.50626-0.08594-0.51718-0.07184c-0.354-0.03904-0.69856-0.08669-1.0516-0.12969-0.708-0.04296-1.4152-0.13318-2.1422-0.14218-0.368-0.009-0.73474-0.02528-1.0937-0.04528-0.368 0.01-0.73138 0.01032-1.1094 0.02032-0.736-0.02-1.4822 0.05824-2.2422 0.08125-0.755 0.04304-1.4997 0.13831-2.2547 0.19531-0.736 0.124-1.4925 0.19269-2.2375 0.35469-1.501 0.258-2.9833 0.65044-4.4453 1.1234-1.463 0.464-2.8833 1.0702-4.2453 1.7922-2.734 1.433-5.2442 3.3848-7.2422 5.8328-2.022 2.437-3.5229 5.3386-4.5219 8.4406-0.999 3.107-1.448 6.4491-1.425 9.8141 0.063 6.747 2.0699 13.606 5.6219 19.531 3.518 5.951 8.695 10.937 14.775 14.017 1.52 0.767 3.0937 1.4095 4.7047 1.9375 0.397 0.136 0.81213 0.25562 1.2281 0.36562l1.2375 0.35156 1.2625 0.28438c0.411 0.095 0.83212 0.19706 1.2531 0.26406 3.36 0.638 6.7761 0.90287 10.189 0.77187 1.702-0.04104 3.4099-0.21731 5.1109-0.42031 1.697-0.222 3.3802-0.48581 5.0672-0.83281 2.542-0.51128 5.0606-1.1533 7.5625-1.8594-2.187 0.36126-4.5374 0.69298-7.0656 0.92969-3.427 0.304-7.1738 0.44456-11.233 0.20156-1.018-0.04104-2.0421-0.15675-3.0891-0.26875-1.037-0.096-2.1309-0.24831-3.2109-0.47031-2.16-0.442-4.3351-1.1118-6.4531-1.9938-4.23-1.788-8.261-4.4215-11.65-7.7625-3.374-3.344-6.1273-7.4364-7.5703-11.898-0.727-2.222-1.1574-4.5191-1.2344-6.7781 0-0.566-0.023-1.1284 0-1.6844 0.043-0.557 0.04831-1.1159 0.12031-1.6609 0.129-1.089 0.2915-2.1799 0.5875-3.2219 0.306-1.032 0.67475-2.0304 1.1187-2.9734 0.469-0.927 0.97406-1.8167 1.5391-2.6297 1.156-1.63 2.4963-3.0101 3.9203-4.1141 1.415-1.114 2.9396-1.9279 4.4016-2.5109 1.478-0.583 2.921-0.87813 4.25-1.0031 1.319-0.119 2.5142-0.0376 3.5563 0.13438 1.023 0.168 1.8788 0.43981 2.5578 0.68281 0.674 0.262 1.1891 0.49182 1.5141 0.68282 0.334 0.172 0.51719 0.26406 0.51719 0.26406s-0.18257-0.08206-0.52657-0.23906c-0.339-0.168-0.86006-0.36687-1.5391-0.59687-0.688-0.211-1.5442-0.43994-2.5672-0.56094-1.018-0.114-2.194-0.13725-3.475 0.04376-1.271 0.172-2.6671 0.52744-4.0531 1.1484-1.391 0.631-2.8106 1.4673-4.1156 2.5953-2.624 2.213-4.9179 5.4916-5.8359 9.4016-0.239 0.975-0.34469 1.9783-0.42969 3.0203-0.048 0.514-0.02882 1.0414-0.05782 1.5594 0 0.528 0.03781 1.0486 0.05782 1.5766 0.152 2.111 0.62119 4.2363 1.3672 6.2813 1.491 4.109 4.1762 7.8427 7.4172 10.905 3.27 3.047 7.1039 5.4369 11.072 7.0359 1.988 0.791 4.0048 1.3832 6.0078 1.7672 0.999 0.204 1.9739 0.32688 2.9969 0.42188 0.999 0.098 1.9938 0.214 2.9688 0.25 3.896 0.237 7.5286 0.13594 10.866-0.08906 3.336-0.236 6.3895-0.62282 9.1625-1.0078 5.4243-0.79458 9.7706-1.629 13.214-2.2781 2.2986-0.7649 4.5979-1.5224 6.9094-2.2359 1.63-0.502 3.2744-0.97325 4.9234-1.4312 0.827-0.213 1.6452-0.44875 2.4812-0.64375 0.813-0.199 1.6242-0.40087 2.4422-0.59687 3.159-0.767 6.2766-1.5298 9.3406-2.2688 3.035-0.753 6.1089-1.4364 9.0969-2.1234 1.496-0.334 2.973-0.66813 4.45-1.0031 0.731-0.162 1.4571-0.32918 2.1891-0.49218 0.731-0.167 1.4474-0.32463 2.1594-0.46563 5.712-1.173 11.345-2.2991 16.913-2.9281 5.564-0.621 11.094-0.77306 16.437 0.03592 2.664 0.406 5.2781 1.0301 7.7531 1.9531 2.477 0.913 4.8198 2.1092 6.9328 3.5312 0.268 0.182 0.52537 0.35894 0.78437 0.53594 0.258 0.184 0.50076 0.38744 0.74376 0.57344 0.0897 0.06752 0.17243 0.13343 0.25937 0.2 0.64613-0.04224 1.3084-0.13674 1.9781-0.3125 1.196-0.299 2.4058-0.88731 3.5188-1.7953 1.099-0.918 2.0852-2.1809 2.7922-3.6859 0.698-1.496 1.1317-3.2224 1.1937-4.9844 0.076-1.755-0.21006-3.5399-0.88906-5.1219-0.678-1.584-1.7581-2.9444-3.0531-3.8984-0.651-0.478-1.3446-0.85087-2.0516-1.1469-0.698-0.306-1.4245-0.492-2.1125-0.65-1.386-0.282-2.6769-0.31426-3.7469-0.28126-1.072 0.052-1.9323 0.16213-2.5203 0.25313-0.598 0.104-0.91251 0.15313-0.91251 0.15313s0.30669-0.09238 0.87969-0.25938c0.583-0.172 1.4338-0.378 2.5188-0.55 1.077-0.162 2.4037-0.27113 3.9047-0.12813 0.751 0.086 1.5402 0.21006 2.3422 0.46406 0.813 0.248 1.6248 0.59794 2.4188 1.0609 1.578 0.942 2.9934 2.4175 3.9344 4.2125 0.941 1.785 1.4389 3.8488 1.4859 5.9078 0.048 2.06-0.33818 4.1237-1.1172 5.9797-0.774 1.853-1.9701 3.4942-3.4031 4.6812-1.443 1.183-3.0738 1.9096-4.6188 2.2156-0.033 0.0064-0.0641 0.008-0.0969 0.01408 0.0457 0.04584 0.0902 0.08948 0.13594 0.13438 0.459 0.44 0.87962 0.92219 1.2906 1.3922 1.654 1.913 2.8961 4.0252 3.8281 6.1812 1.869 4.319 2.4187 8.9116 1.6297 13.191-0.387 2.136-1.1839 4.1873-2.3219 5.9703-1.133 1.797-2.6253 3.303-4.2703 4.4-1.644 1.107-3.4178 1.8016-5.1188 2.2266-0.86 0.232-1.7014 0.335-2.5234 0.45-0.41 0.04-0.81306 0.05808-1.2141 0.08906-0.205 0.01-0.40613 0.01768-0.60313 0.02968-0.2 0-0.39081 0.000312-0.58281-0.0048-0.391-0.0072-0.78324-0.0116-1.1562-0.0156-0.378-0.03096-0.75644-0.05872-1.1234-0.07968-0.368-0.022-0.73513-0.08712-1.1031-0.12812-0.359-0.04104-0.71687-0.10119-1.0719-0.16719-1.424-0.254-2.7915-0.6395-4.0625-1.1625-1.277-0.533-2.4469-1.2108-3.4609-2.0188s-1.8634-1.741-2.5234-2.725c-0.66-0.985-1.1281-2.0084-1.4391-3.0094-0.32-0.997-0.468-1.9717-0.55-2.8797-0.134-1.828 0.0675-3.4129 0.3625-4.7609 0.623-2.689 1.5117-4.4624 2.1047-5.6094 0.306-0.574 0.54482-0.98356 0.70782-1.2516 0.162-0.27 0.24687-0.40626 0.24687-0.40626s-0.0418 0.14944-0.13281 0.44844c-0.095 0.301-0.24794 0.75787-0.41094 1.3719-0.32 1.229-0.80812 3.1148-0.92812 5.6578-0.051 1.267 0.0289 2.703 0.37187 4.2 0.192 0.74 0.44231 1.5029 0.79531 2.2359 0.364 0.732 0.82232 1.4409 1.3953 2.0859 1.157 1.293 2.7915 2.3023 4.8125 2.8703 1.009 0.28501 2.1099 0.46175 3.2859 0.54375 0.286 0.026 0.5828 0.04376 0.8828 0.04376 0.307 0 0.60751 0.02336 0.91251 0.0094 0.316-0.008 0.62187-0.01816 0.94687-0.02816 0.301-0.026 0.61313-0.05528 0.92813-0.08125 0.158-0.014 0.30575-0.02664 0.46875-0.04064 0.153-0.02104 0.30481-0.04976 0.45781-0.06872 0.316-0.05296 0.6315-0.09812 0.9375-0.15312 0.602-0.153 1.2279-0.28538 1.8109-0.50938 1.191-0.406 2.3093-0.98113 3.2703-1.7531 1.926-1.537 3.231-3.9089 3.575-6.8109 0.33-2.882-0.21525-6.1982-1.7312-9.2312-0.75-1.513-1.705-2.9826-2.9-4.2516-0.306-0.311-0.5995-0.63631-0.9375-0.92031-0.159-0.144-0.3005-0.29262-0.4875-0.44062l-0.55313-0.44687c-0.182-0.146-0.36524-0.30288-0.55624-0.44688l-0.58282-0.4125c-0.192-0.139-0.3825-0.28475-0.5875-0.41875l-0.60781-0.38282c-1.645-1.028-3.4409-1.8813-5.3859-2.5453-1.95-0.665-4.0491-1.1137-6.2531-1.3937-4.416-0.569-9.2635-0.38682-14.362 0.24218-5.125 0.631-10.498 1.7287-16.23 2.9047-0.722 0.136-1.4336 0.29269-2.1406 0.45469-0.712 0.155-1.4309 0.31613-2.1469 0.47813-1.444 0.321-2.8961 0.63906-4.3641 0.96406-0.10996 0.02432-0.22274 0.0492-0.33282 0.07344-1.0987 0.45174-2.6942 1.1031-4.9016 2.0453-2.266 0.959-5.1292 2.2238-8.5562 3.9328-1.711 0.868-3.5652 1.8467-5.4922 3.0188-1.926 1.178-3.9531 2.5257-5.9031 4.1797-1.931 1.654-3.8099 3.6226-4.9609 5.9406-0.579 1.152-0.976 2.3818-1.125 3.6578-0.019 0.325-0.0718 0.6285-0.0718 0.9875l-0.008 0.51562 0.0187 0.51875c0.029 0.68299 0.10444 1.3619 0.24844 2.0219 0.277 1.324 0.79344 2.5647 1.5484 3.6547 0.746 1.097 1.7583 2.0244 2.9063 2.7484 1.156 0.731 2.4573 1.2468 3.7953 1.5578 1.343 0.308 2.7101 0.416 4.0391 0.325 2.648-0.163 5.1046-1.1436 6.7156-2.7016 0.401-0.389 0.75612-0.80488 1.0531-1.2469 0.291-0.445 0.53363-0.89962 0.71563-1.3656 0.363-0.947 0.50599-1.9008 0.52499-2.7828 0.029-1.766-0.37149-3.1996-0.68749-4.1516-0.081-0.236-0.15207-0.44456-0.21407-0.62656-0.072-0.184-0.12981-0.33738-0.18281-0.45938-0.1-0.249-0.14844-0.375-0.14844-0.375s0.0675 0.118 0.20156 0.35c0.067 0.112 0.15276 0.26013 0.24376 0.42813 0.091 0.172 0.19193 0.36956 0.31093 0.60156 0.44 0.911 1.0656 2.2936 1.2906 4.2016 0.1 0.944 0.0964 2.0299-0.19063 3.1719-0.139 0.569-0.35825 1.1401-0.63125 1.7141-0.287 0.569-0.64093 1.1224-1.0609 1.6484-1.711 2.122-4.4989 3.6223-7.6109 4.1703-1.558 0.289-3.2111 0.34394-4.8891 0.13594-1.678-0.199-3.3843-0.67282-4.9953-1.4828-1.606-0.804-3.1363-1.9509-4.3453-3.4109-1.21-1.456-2.1181-3.1961-2.6391-5.0031-0.272-0.904-0.444-1.8167-0.55-2.7297-0.028-0.232-0.0522-0.45562-0.0672-0.69062l-0.0375-0.67813c-0.033-0.447-0.00062-0.94337 0.009-1.4094 0.095-1.9 0.58369-3.7557 1.3297-5.4047 0.736-1.654 1.6824-3.1416 2.7484-4.4156 1.057-1.273 2.1886-2.3981 3.3406-3.3781 2.11-1.7855 4.2407-3.1247 6.2641-4.2344-0.2838 0.06936-0.56478 0.13694-0.84843 0.20313-1.3038 0.33558-2.6235 0.68436-3.9516 1.0547-1.6852 0.85177-3.5531 1.913-5.5562 3.3687-1.525 1.116-3.1114 2.4486-4.6594 4.0766-1.563 1.625-3.0451 3.5786-4.3641 5.8516-0.636 1.147-1.234 2.3801-1.75 3.6781-0.521 1.301-0.94687 2.6789-1.2719 4.1109-0.651 2.851-0.86863 5.9248-0.51563 8.9578 0.354 3.03 1.2656 6.0271 2.7906 8.5891 1.511 2.567 3.6614 4.6631 6.1094 5.9031 2.443 1.26 5.1099 1.6724 7.4859 1.5094 0.143-0.005 0.29694-0.0163 0.43594-0.0203 0.152-0.021 0.29481-0.0362 0.43281-0.0531 0.297-0.033 0.58456-0.069 0.85156-0.1 0.282-0.055 0.55456-0.104 0.82656-0.15 0.129-0.033 0.26288-0.0522 0.39688-0.0812 0.134-0.033 0.25819-0.0627 0.39219-0.0938 0.507-0.132 1.0039-0.25262 1.4719-0.41562 0.468-0.141 0.91905-0.28413 1.339-0.45313 0.842-0.306 1.5781-0.66287 2.2281-0.94687 0.636-0.326 1.1856-0.59694 1.6156-0.83594 0.869-0.493 1.3422-0.76562 1.3422-0.76562s-0.453 0.3035-1.275 0.8625c-0.431 0.272-0.95613 0.58112-1.5781 0.95312-0.626 0.333-1.3377 0.73969-2.1797 1.1047-0.411 0.204-0.86044 0.37581-1.3234 0.55781-0.464 0.2-0.9615 0.35419-1.4875 0.51719-0.124 0.041-0.25419 0.0867-0.39219 0.12969-0.129 0.034-0.26756 0.0646-0.40156 0.10469-0.277 0.065-0.55362 0.13681-0.84062 0.20781-0.282 0.06-0.57831 0.10818-0.87031 0.16718-0.153 0.024-0.30638 0.0518-0.45938 0.0828-0.153 0.014-0.30138 0.031-0.45938 0.05-0.61549 0.0812-1.2568 0.12526-1.9172 0.12812zm232.47 0c-0.66055-0.003-1.3025-0.0469-1.9188-0.12812-0.155-0.019-0.30736-0.036-0.45936-0.05-0.155-0.031-0.30669-0.0588-0.45469-0.0828-0.297-0.059-0.588-0.10718-0.875-0.16718-0.282-0.071-0.56295-0.14281-0.83595-0.20781-0.139-0.04-0.27293-0.0707-0.41093-0.10469-0.131-0.043-0.26407-0.0887-0.38907-0.12969-0.525-0.163-1.0222-0.31719-1.4812-0.51719-0.478-0.182-0.91769-0.35381-1.3297-0.55781-0.832-0.365-1.5471-0.77169-2.1781-1.1047-0.621-0.372-1.1534-0.68112-1.5734-0.95312-0.826-0.559-1.275-0.8625-1.275-0.8625s0.46649 0.27262 1.3375 0.76562c0.439 0.239 0.984 0.50994 1.625 0.83594 0.65 0.284 1.3776 0.64087 2.2266 0.94687 0.407 0.169 0.86225 0.31213 1.3312 0.45313 0.468 0.163 0.96387 0.28362 1.4719 0.41562 0.133 0.031 0.26763 0.0607 0.39063 0.0938 0.138 0.029 0.26656 0.0482 0.40156 0.0812 0.268 0.046 0.53488 0.095 0.82188 0.15 0.278 0.031 0.559 0.067 0.85 0.1 0.145 0.017 0.28781 0.0322 0.43281 0.0531 0.148 0.004 0.29419 0.0153 0.44219 0.0203 2.377 0.163 5.0445-0.24937 7.4875-1.5094 2.444-1.24 4.5974-3.3411 6.1094-5.9031 1.523-2.562 2.4364-5.5591 2.7844-8.5891 0.363-3.033 0.13564-6.1068-0.50936-8.9578-0.33-1.432-0.7522-2.8099-1.2672-4.1109-0.522-1.298-1.1201-2.5311-1.7641-3.6781-1.318-2.273-2.7974-4.2266-4.3594-5.8516-1.545-1.628-3.1349-2.9606-4.6609-4.0766-2.0046-1.4562-3.8727-2.5184-5.5578-3.3703-1.3237-0.36997-2.6426-0.71782-3.9453-1.0531-0.28641-0.06648-0.56674-0.13503-0.85157-0.20469 2.0309 1.1099 4.1573 2.4499 6.2734 4.2359 1.146 0.98 2.2699 2.1051 3.3359 3.3781 1.06 1.274 2.0087 2.7616 2.7547 4.4156 0.736 1.649 1.2221 3.5047 1.3281 5.4047 0 0.466 0.0377 0.96238 0.005 1.4094-0.02 0.456-0.0479 0.91275-0.11093 1.3688-0.099 0.913-0.27076 1.8257-0.54376 2.7297-0.516 1.807-1.4241 3.5471-2.6391 5.0031-1.213 1.46-2.7453 2.6069-4.3453 3.4109-1.611 0.81-3.3207 1.2838-5.0047 1.4828-1.672 0.208-3.3264 0.15306-4.8844-0.13594-3.108-0.548-5.8999-2.0483-7.6109-4.1703-0.422-0.526-0.77394-1.0794-1.0609-1.6484-0.272-0.574-0.496-1.1451-0.625-1.7141-0.284-1.142-0.29144-2.2276-0.19844-3.1766 0.227-1.903 0.85163-3.2859 1.2906-4.1969 0.125-0.232 0.22093-0.42956 0.31093-0.60156 0.096-0.168 0.178-0.31613 0.25-0.42813 0.129-0.232 0.20469-0.35 0.20469-0.35s-0.0586 0.126-0.15156 0.375c-0.053 0.122-0.1155 0.27538-0.1875 0.45938-0.062 0.182-0.12963 0.39056-0.21563 0.62656-0.316 0.952-0.72093 2.3856-0.68593 4.1516 0.017 0.882 0.16112 1.8358 0.52812 2.7828 0.182 0.466 0.4255 0.92062 0.7125 1.3656 0.301 0.442 0.65057 0.85788 1.0516 1.2469 1.617 1.558 4.0682 2.5386 6.7172 2.7016 1.324 0.091 2.7011-0.017 4.0391-0.325 1.338-0.311 2.6383-0.82682 3.7953-1.5578 1.146-0.724 2.1556-1.6514 2.9016-2.7484 0.76-1.09 1.2751-2.3307 1.5531-3.6547 0.142-0.66 0.22068-1.3389 0.25468-2.0219l0.0218-0.51875-0.0141-0.51562c0-0.359-0.0522-0.6625-0.0782-0.9875-0.146-1.276-0.53919-2.5058-1.1172-3.6578-1.152-2.318-3.0336-4.2866-4.9656-5.9406-1.945-1.654-3.9767-3.0017-5.9047-4.1797-1.926-1.172-3.7789-2.1508-5.4859-3.0188-3.432-1.709-6.2916-2.9738-8.5516-3.9328-2.2186-0.94202-3.8158-1.5936-4.9062-2.0453-0.11064-0.0244-0.22382-0.04904-0.33437-0.07344-1.473-0.325-2.9248-0.64306-4.3578-0.96406-0.727-0.162-1.4346-0.32313-2.1516-0.47813-0.707-0.162-1.4232-0.31869-2.1422-0.45469-5.735-1.176-11.104-2.2737-16.223-2.9047-5.105-0.629-9.9499-0.81118-14.372-0.24218-2.203 0.28-4.2974 0.72874-6.2484 1.3937-1.949 0.664-3.7487 1.5173-5.3937 2.5453l-0.60469 0.38282c-0.207 0.134-0.39651 0.27975-0.58751 0.41875l-0.57968 0.4125c-0.189 0.144-0.37737 0.30088-0.55937 0.44688l-0.54844 0.44687c-0.188 0.148-0.32919 0.29662-0.49219 0.44062-0.336 0.284-0.6305 0.60931-0.9375 0.92031-1.195 1.269-2.1499 2.7386-2.8969 4.2516-1.515 3.033-2.0637 6.3492-1.7297 9.2312 0.344 2.902 1.643 5.2739 3.575 6.8109 0.965 0.772 2.0841 1.3471 3.2641 1.7531 0.588 0.224 1.2102 0.35638 1.8172 0.50938 0.307 0.05496 0.62025 0.10012 0.93125 0.15312 0.154 0.01904 0.30637 0.04776 0.45937 0.06872 0.162 0.014 0.31613 0.02664 0.47813 0.04064 0.307 0.026 0.6175 0.05528 0.9375 0.08125 0.305 0.01 0.61156 0.02016 0.92656 0.02816 0.306 0.014 0.61219-0.0094 0.91719-0.0094 0.302 0 0.59737-0.01776 0.88437-0.04376 1.172-0.082 2.2724-0.25875 3.2844-0.54375 2.027-0.568 3.6614-1.5773 4.8094-2.8703 0.578-0.645 1.031-1.3539 1.4-2.0859 0.358-0.733 0.59906-1.4959 0.78906-2.2359 0.349-1.497 0.43013-2.933 0.37813-4.2-0.12-2.543-0.60725-4.4288-0.93125-5.6578-0.164-0.614-0.3135-1.0709-0.4125-1.3719-0.086-0.299-0.125-0.44844-0.125-0.44844s0.0786 0.13626 0.24062 0.40626c0.162 0.268 0.40994 0.67756 0.71094 1.2516 0.588 1.147 1.478 2.9204 2.1 5.6094 0.3 1.348 0.49463 2.9329 0.36563 4.7609-0.08 0.908-0.22844 1.8827-0.54844 2.8797-0.317 1.001-0.78419 2.0244-1.4422 3.0094-0.657 0.984-1.5023 1.917-2.5203 2.725-1.014 0.808-2.1837 1.4858-3.4547 2.0188-1.277 0.523-2.6498 0.9085-4.0688 1.1625-0.354 0.066-0.71256 0.12619-1.0766 0.16719-0.363 0.04104-0.731 0.10612-1.1 0.12812-0.373 0.02104-0.74463 0.04872-1.1156 0.07968-0.379 0.004-0.76706 0.0086-1.1641 0.0156-0.191 0.0048-0.38494 0.0048-0.58594 0.0048-0.192-0.012-0.39343-0.01968-0.59843-0.02968-0.402-0.03096-0.80875-0.04904-1.2188-0.08906-0.822-0.115-1.6651-0.218-2.5141-0.45-1.708-0.425-3.477-1.1196-5.125-2.2266-1.645-1.097-3.1364-2.603-4.2734-4.4-1.129-1.783-1.9259-3.8343-2.3219-5.9703-0.785-4.279-0.23562-8.8716 1.6344-13.191 0.931-2.156 2.1699-4.2682 3.8219-6.1812 0.416-0.47 0.83257-0.95219 1.3016-1.3922 0.0434-0.0444 0.0898-0.08748 0.13438-0.13281-0.0344-0.0064-0.067-0.0086-0.10156-0.0156-1.543-0.306-3.1679-1.0326-4.6109-2.2156-1.439-1.187-2.6248-2.8282-3.4078-4.6812-0.779-1.856-1.172-3.9197-1.125-5.9797 0.049-2.059 0.54363-4.1228 1.4906-5.9078 0.941-1.795 2.3584-3.2705 3.9344-4.2125 0.789-0.463 1.6111-0.81294 2.4141-1.0609 0.802-0.254 1.5972-0.37806 2.3422-0.46406 1.505-0.143 2.8296-0.03384 3.9156 0.12813 1.08 0.172 1.9354 0.378 2.5094 0.55 0.573 0.167 0.88906 0.25938 0.88906 0.25938s-0.32006-0.04912-0.91406-0.15313c-0.592-0.091-1.4562-0.20113-2.5172-0.25313-1.08-0.03296-2.3678-0.000744-3.7578 0.28126-0.688 0.158-1.4111 0.344-2.1141 0.65-0.703 0.296-1.3943 0.66887-2.0453 1.1469-1.3 0.954-2.3761 2.3144-3.0531 3.8984-0.68 1.582-0.96132 3.3669-0.89532 5.1219 0.072 1.762 0.49832 3.4884 1.1953 4.9844 0.707 1.505 1.6916 2.7679 2.7906 3.6859 1.12 0.908 2.3244 1.4963 3.5234 1.7953 0.67006 0.17526 1.3319 0.27007 1.975 0.3125 0.0864-0.06664 0.16933-0.13242 0.25781-0.2 0.248-0.186 0.492-0.38944 0.75-0.57344 0.263-0.177 0.52169-0.35394 0.77969-0.53594 2.113-1.422 4.4542-2.6182 6.9312-3.5312 2.476-0.923 5.0958-1.5471 7.7578-1.9531 5.344-0.809 10.874-0.65694 16.438-0.03592 5.564 0.629 11.206 1.7551 16.912 2.9281 0.707 0.141 1.4254 0.29863 2.1594 0.46563 0.727 0.163 1.4596 0.33018 2.1906 0.49218 1.472 0.335 2.9553 0.66913 4.4453 1.0031 2.992 0.687 6.0716 1.3704 9.1016 2.1234 3.064 0.739 6.1751 1.5018 9.3391 2.2688 0.813 0.196 1.6259 0.39787 2.4469 0.59687 0.822 0.195 1.6446 0.43075 2.4766 0.64375 1.645 0.458 3.2884 0.92925 4.9234 1.4312 2.3091 0.71392 4.6113 1.4722 6.9125 2.2375 3.4445 0.64897 7.7874 1.4824 13.208 2.2766 2.777 0.385 5.8261 0.77182 9.1641 1.0078 3.336 0.225 6.9628 0.32606 10.869 0.08906 0.97-0.036 1.9585-0.152 2.9625-0.25 1.013-0.095 2.0051-0.21788 3.0031-0.42188 1.994-0.384 4.015-0.97618 6-1.7672 3.966-1.599 7.8034-3.9889 11.073-7.0359 3.252-3.062 5.9281-6.7957 7.4141-10.905 0.756-2.045 1.2194-4.1706 1.3734-6.2766 0.023-0.533 0.065-1.0532 0.05-1.5812-0.014-0.518 0.0008-1.0454-0.05-1.5594-0.078-1.042-0.19093-2.0453-0.43593-3.0203-0.91401-3.91-3.1976-7.1886-5.8266-9.4016-1.31-1.128-2.7302-1.9643-4.1172-2.5953-1.394-0.621-2.7774-0.97644-4.0594-1.1484-1.279-0.181-2.4544-0.15775-3.4734-0.04376-1.018 0.121-1.8685 0.34994-2.5625 0.56094-0.683 0.23-1.2038 0.42887-1.5438 0.59687-0.343 0.157-0.525 0.23906-0.525 0.23906s0.1765-0.09206 0.5125-0.26406c0.328-0.191 0.8395-0.42082 1.5125-0.68282 0.68-0.243 1.5394-0.51481 2.5734-0.68281 1.027-0.172 2.2282-0.25338 3.5562-0.13438 1.319 0.125 2.7718 0.42013 4.2438 1.0031 1.463 0.583 2.9824 1.3969 4.3984 2.5109 1.43 1.104 2.7623 2.4841 3.9203 4.1141 0.562 0.813 1.0808 1.7027 1.5438 2.6297 0.435 0.947 0.8115 1.9414 1.1125 2.9734 0.297 1.042 0.46475 2.1329 0.59375 3.2219 0.066 0.545 0.0764 1.1039 0.10937 1.6609 0.033 0.556 0.009 1.1184 0.009 1.6844-0.082 2.259-0.50549 4.5561-1.2375 6.7781-1.438 4.462-4.1973 8.5544-7.5703 11.898-3.384 3.341-7.4243 5.9745-11.645 7.7625-2.123 0.882-4.2931 1.5518-6.4531 1.9938-1.09 0.222-2.1786 0.37431-3.2156 0.47031-1.047 0.112-2.0713 0.22775-3.0953 0.26875-4.053 0.243-7.8039 0.10244-11.222-0.20156-2.5292-0.23658-4.8798-0.56708-7.0672-0.92813 2.4995 0.70589 5.0226 1.3467 7.5625 1.8578 1.684 0.347 3.3661 0.61081 5.0641 0.83281 1.697 0.203 3.4031 0.37931 5.1141 0.42031 3.408 0.131 6.8312-0.13387 10.192-0.77187 0.42-0.06704 0.83469-0.16906 1.2547-0.26406l1.2531-0.28438 1.2375-0.35156c0.416-0.11 0.83868-0.22962 1.2297-0.36562 1.617-0.528 3.1885-1.1705 4.7125-1.9375 6.072-3.08 11.247-8.0662 14.77-14.017 3.547-5.925 5.5599-12.784 5.6219-19.531 0.02-3.365-0.42043-6.7071-1.4234-9.8141-1.004-3.102-2.5094-6.0036-4.5234-8.4406-2.006-2.448-4.5029-4.3998-7.2469-5.8328-1.361-0.722-2.7768-1.3282-4.2438-1.7922-1.459-0.473-2.9359-0.86544-4.4359-1.1234-0.755-0.162-1.5045-0.23069-2.2375-0.35469-0.76-0.05704-1.5112-0.15231-2.2672-0.19531-0.753-0.02304-1.5083-0.10125-2.2453-0.08125-0.363-0.01-0.73013-0.01032-1.1031-0.02032-0.363 0.02-0.73206 0.03632-1.0891 0.04528-0.732 0.009-1.4399 0.09918-2.1469 0.14218-0.35 0.04304-0.69812 0.09069-1.0531 0.12969l-0.51563 0.07184-0.50625 0.08594c-1.367 0.215-2.6761 0.56494-3.9281 0.96094-4.991 1.615-8.8776 4.7422-11.302 8.7812-2.475 4.01-3.4985 8.7659-3.2875 13.111 0.123 2.165 0.53507 4.2531 1.2891 6.0891 0.726 1.848 1.7992 3.4318 3.1172 4.6078 0.66 0.598 1.387 1.0668 2.15 1.4328 0.373 0.203 0.77674 0.32769 1.1687 0.47969 0.401 0.103 0.79582 0.24375 1.2078 0.29375 0.817 0.168 1.6396 0.182 2.4516 0.175 0.407-0.04104 0.80231-0.05264 1.1953-0.11562 0.396-0.06904 0.79019-0.10169 1.1672-0.20469 1.519-0.337 2.922-0.85813 4.15-1.4531 1.233-0.583 2.2823-1.2616 3.2203-1.9266 1.855-1.32 3.2231-2.4652 4.1781-3.1922 0.94701-0.736 1.4438-1.1187 1.4438-1.1187s-0.11544 0.10425-0.34844 0.30625c-0.226 0.205-0.58106 0.50582-1.0141 0.90781-0.895 0.81201-2.1368 2.0615-3.8578 3.6125-0.847 0.779-1.8544 1.6207-3.0594 2.4047-1.203 0.794-2.5793 1.5587-4.1953 2.1797-0.402 0.165-0.83269 0.27756-1.2547 0.42656-0.439 0.136-0.89256 0.22606-1.3516 0.33906-0.934 0.163-1.9268 0.30406-2.9578 0.26406-0.531 0.0072-1.0634-0.07392-1.5984-0.12188-0.535-0.114-1.09-0.19206-1.625-0.36406-1.08-0.325-2.1698-0.79519-3.1828-1.4422-1.008-0.646-1.9587-1.4358-2.8297-2.3438-0.866-0.908-1.6164-1.9397-2.2844-3.0437-1.349-2.213-2.2659-4.7509-2.8109-7.4609-0.518-2.701-0.6558-5.5976-0.2828-8.5516 0.0683-0.55898 0.16026-1.1198 0.26405-1.6812-1.7466 1.4632-3.7577 2.9033-6.1828 3.8984-1.381 0.555-2.9199 0.94656-4.4219 1.0516-1.49 0.134-3.0572 0.14481-4.6062-0.14218-1.543-0.30601-3.0451-0.89001-4.3641-1.75-1.32-0.86601-2.433-1.9968-3.275-3.2688-0.84-1.271-1.4246-2.6776-1.7406-4.1016-0.305-1.425-0.36243-2.8586-0.19843-4.2156 0.171-1.363 0.53505-2.6589 1.089-3.7969 0.563-1.142 1.282-2.1318 2.075-2.9578 1.634-1.626 3.4983-2.5195 5.0953-2.9875 0.19199-0.05704 0.39012-0.11488 0.57812-0.17187 0.191-0.038 0.37675-0.07296 0.56875-0.11094 0.363-0.062 0.69744-0.14669 1.0234-0.17969 0.325-0.03496 0.62956-0.06352 0.90156-0.087496 0.273-0.024 0.53212-0.05272 0.75312-0.04376 0.908-0.00896 1.4-0.008 1.4-0.008 0.00001 0-0.48762 0.03808-1.3906 0.11406-0.22 0.01-0.46818 0.05672-0.74218 0.10469-0.271 0.048-0.56894 0.10113-0.88594 0.15313-0.314 0.058-0.63375 0.17181-0.99375 0.25782-0.172 0.048-0.35238 0.097432-0.53438 0.14843-0.182 0.07304-0.36425 0.13894-0.55625 0.21094-1.505 0.56-3.2096 1.554-4.6156 3.15-0.668 0.822-1.2658 1.7681-1.7078 2.8391-0.433 1.07-0.69037 2.2507-0.75937 3.4797-0.07 1.224 0.0591 2.4944 0.40313 3.7234 0.344 1.233 0.91787 2.4196 1.6969 3.4656 0.77 1.042 1.7529 1.9319 2.8719 2.5859 1.127 0.661 2.3862 1.0789 3.6812 1.2859 1.301 0.181 2.6292 0.12482 3.9672-0.04216 1.339-0.139 2.5506-0.49869 3.7266-1.0047 2.344-1.029 4.3902-2.6056 6.2062-4.2016 0.78618-0.69273 1.523-1.3853 2.2484-2.0703 0.32776-0.85124 0.6992-1.6963 1.1203-2.5281 0.742-1.444 1.6278-2.8538 2.6828-4.1688 1.052-1.309 2.2604-2.5416 3.5984-3.6406 1.344-1.105 2.8164-2.0664 4.3844-2.8594 1.566-0.793 3.2075-1.4729 4.9125-1.9219 1.693-0.469 3.4274-0.83138 5.1734-0.98438l0.64844-0.0672 0.66093-0.04216c0.435-0.02 0.87038-0.05376 1.3094-0.06872 0.869 0.0048 1.7453-0.02864 2.6203 0.0344 0.43 0.018 0.86381 0.04448 1.3078 0.06248 0.422 0.04304 0.86088 0.09012 1.2969 0.12812 0.865 0.072 1.7156 0.22969 2.5766 0.35469 0.859 0.133 1.7246 0.30988 2.5906 0.47188 0.851 0.225 1.729 0.40631 2.575 0.67031 1.717 0.478 3.3999 1.1045 5.0719 1.8125 1.664 0.716 3.2901 1.571 4.8531 2.55 3.121 1.96 5.9901 4.4752 8.2891 7.4672 2.322 2.978 4.0938 6.4104 5.1938 10.048 0.30374 1.0068 0.55822 2.029 0.77031 3.0594-0.35485-2.5275-0.30935-5.5137 0.53125-8.9047 0.459-1.764 1.1189-3.6329 1.9969-5.5219 0.899-1.883 1.9992-3.7852 3.3172-5.6062 1.31-1.821 2.8694-3.5618 4.6234-5.0828 1.744-1.519 3.7143-2.7946 5.7453-3.6406 2.031-0.875 4.1464-1.2152 5.9234-1.1812 0.228 0.0048 0.44906 0.01376 0.66406 0.01872 0.215 0.0048 0.42556 0.01512 0.62656 0.05312 0.42 0.068 0.802 0.12762 1.175 0.19062 0.367 0.048 0.713 0.18344 1.05 0.27344 0.311 0.11 0.61875 0.204 0.91875 0.3 0.561 0.239 1.0465 0.47969 1.4625 0.67969 0.205 0.091 0.39337 0.21131 0.55937 0.32031 0.164 0.101 0.31568 0.20494 0.45468 0.28594 0.52101 0.349 0.81407 0.54062 0.81407 0.54062s-0.34463 0.03704-0.96563 0.11406c-0.155 0.01904-0.3268 0.03984-0.5078 0.05784-0.182 0.02-0.37382 0.04856-0.58282 0.10156-0.432 0.1-0.89887 0.19506-1.3969 0.33906-0.238 0.081-0.49826 0.18156-0.75626 0.27656-0.257 0.101-0.52481 0.173-0.78281 0.325-0.254 0.129-0.50581 0.26794-0.78281 0.41094-0.135 0.06304-0.25981 0.15306-0.38281 0.23906-0.125 0.086-0.24444 0.18118-0.37344 0.26718-0.994 0.727-1.8818 1.6198-2.6078 2.7578-1.445 2.242-2.3774 5.1582-3.0984 8.2562-0.363 1.539-0.67037 3.1109-0.98437 4.6359-0.317 1.53-0.60819 3.0214-0.96719 4.3984-1.041 4.178-2.5328 7.3699-4.1188 9.8219-1.578 2.434-3.1943 4.1395-4.2563 5.1625 0.12101-0.67 0.24044-1.3376 0.37344-2.0156 0.168-0.884 0.36332-1.7754 0.54532-2.6734 0.086-0.449 0.19088-0.89406 0.29688-1.3391 0.092-0.454 0.20124-0.89656 0.30624-1.3516 0.391-1.801 0.83056-3.5904 1.2516-5.3594 0.1-0.449 0.21938-0.87875 0.33438-1.3188 0.086-0.435 0.21025-0.87 0.30625-1.3 0.115-0.431 0.21962-0.859 0.34062-1.275 0.1-0.421 0.20838-0.84281 0.30938-1.2578 0.219-0.832 0.441-1.6451 0.65-2.4391 0.201-0.793 0.469-1.5491 0.65-2.3031 0.225-0.737 0.43937-1.4676 0.65937-2.1516 0.106-0.344 0.2152-0.68687 0.3172-1.0219 0.109-0.33 0.22349-0.65094 0.33749-0.96094 0.197-0.651 0.44563-1.2286 0.64063-1.8016 0.215-0.569 0.45393-1.0899 0.63593-1.5969 0.219-0.502 0.43019-0.9665 0.61719-1.3875 0.205-0.42 0.40744-0.79225 0.57344-1.1562 0.168-0.353 0.34919-0.6345 0.49219-0.9125 0.154-0.272 0.28681-0.50182 0.38281-0.68282 0.238-0.359 0.3625-0.54062 0.3625-0.54062s-0.20069 0.13794-0.55469 0.41094c-0.162 0.148-0.37318 0.335-0.61718 0.55-0.119 0.114-0.24094 0.22413-0.38594 0.35313-0.133 0.124-0.252 0.27725-0.4 0.43125-0.57401 0.588-1.2251 1.3464-1.9031 2.2734-0.316 0.479-0.69944 0.95156-1.0234 1.5016-0.162 0.268-0.33362 0.54087-0.51562 0.82187-0.173 0.288-0.32682 0.58206-0.50781 0.88906-0.704 1.199-1.3376 2.5619-2.0016 3.9859-0.293 0.737-0.63737 1.4691-0.93437 2.2391-0.152 0.382-0.30443 0.76362-0.44843 1.1656-0.143 0.401-0.29076 0.79431-0.44376 1.1953-0.148 0.401-0.28419 0.81244-0.41719 1.2234-0.144 0.411-0.28593 0.82719-0.41093 1.2422-0.132 0.42101-0.27194 0.84288-0.41094 1.2719-0.119 0.421-0.25287 0.85125-0.37187 1.2812-0.248 0.86-0.50726 1.7294-0.73126 2.6094-0.217 0.884-0.44537 1.7698-0.65937 2.6578-0.397 1.788-0.78956 3.5846-1.0766 5.4016-0.115 0.665-0.21088 1.3382-0.29688 2.0172-1.146-1.395-2.4211-3.5262-3.1641-6.4422-0.0446-0.17866-0.0812-0.36994-0.12187-0.55469 0.34944 2.1851 0.50443 4.4022 0.45781 6.6141-0.059 3.798-0.65532 7.5893-1.7203 11.245-1.053 3.664-2.5824 7.1948-4.4984 10.519-3.85 6.63-9.4415 12.388-16.288 16.183-1.715 0.953-3.4975 1.7663-5.3375 2.4453-0.455 0.184-0.91418 0.3425-1.3672 0.4875l-1.3828 0.45625-1.3906 0.3875c-0.462 0.129-0.931 0.26763-1.4 0.36563-3.758 0.901-7.6093 1.3746-11.42 1.4156-1.912 0.05-3.8054-0.04208-5.6844-0.16406-1.882-0.158-3.7461-0.35094-5.5781-0.63594-3.675-0.535-7.2497-1.3371-10.73-2.2141-3.49-0.88-6.8793-1.862-10.195-2.825-0.83168-0.24778-1.6458-0.48842-2.4688-0.73282 0.91002 0.6357 1.8137 1.267 3.3172 2.3375 2.024 1.437 4.5909 3.2802 7.8219 5.4812 3.232 2.201 7.1423 4.7484 11.945 7.3484 4.828 2.548 10.604 5.0786 16.797 6.1766 3.078 0.552 6.2476 0.73087 9.3156 0.49687 3.069-0.227 6.0274-0.87725 8.7344-1.7812 0.334-0.112 0.66869-0.22631 1.0047-0.34531 0.328-0.11 0.65744-0.22318 0.97344-0.36718 0.641-0.268 1.2618-0.5295 1.8828-0.7875 0.611-0.27 1.1829-0.58718 1.7609-0.86718 0.564-0.289 1.1361-0.55994 1.6531-0.88594 1.041-0.624 2.0562-1.1771 2.9312-1.8031 0.892-0.605 1.743-1.1419 2.45-1.7109 0.727-0.557 1.3776-1.0572 1.9516-1.4922 0.549-0.466 1.0131-0.86718 1.4031-1.1922 0.766-0.655 1.1859-1.0094 1.1859-1.0094s-0.38582 0.38562-1.1078 1.0906c-0.364 0.351-0.81369 0.78631-1.3297 1.2953-0.535 0.476-1.1661 1.0129-1.8531 1.6219-0.67 0.624-1.4918 1.2169-2.3438 1.8859-0.849 0.69-1.8395 1.3193-2.8625 2.0203-0.512 0.36-1.0657 0.66956-1.6297 1.0016-0.574 0.318-1.139 0.68294-1.75 0.98594-0.611 0.306-1.2371 0.61738-1.8781 0.93438-0.31 0.163-0.64413 0.29994-0.97813 0.43594-0.34 0.134-0.67031 0.27775-1.0203 0.41875-2.738 1.085-5.7932 1.9249-9.0062 2.3219-3.207 0.40201-6.5552 0.36101-9.8312-0.1-3.269-0.45899-6.4572-1.305-9.4312-2.375-2.977-1.066-5.7419-2.3486-8.2359-3.6656-4.972-2.689-8.8866-5.445-12.027-7.875-0.78923-0.61326-1.5297-1.2053-2.2266-1.7766 0.40398 0.59856 0.79857 1.2194 1.1766 1.8703 0.707 1.253 1.3466 2.6024 1.9016 4.0344 0.545 1.429 0.97444 2.9475 1.2984 4.5125 0.636 3.133 0.77638 6.4887 0.25938 9.7797-0.51 3.279-1.6534 6.5041-3.4594 9.2391-1.793 2.734-4.2938 4.9289-7.0578 6.1359-2.0715 0.918-4.2137 1.2898-6.1953 1.2813zm-252.32-0.51562c-0.15063-0.002-0.30732-0.0162-0.47032-0.0438-0.315-0.067-0.67844-0.16669-1.0234-0.32969-0.711-0.315-1.4535-0.84669-2.1125-1.5297-0.65-0.679-1.2142-1.5055-1.6062-2.3375-0.535-1.137-0.87957-2.3832-1.0516-3.6562-0.076-0.333-0.12387-0.65956-0.17187-1.0016-0.086 1.313-0.0857 2.7194-0.10469 3.9484-0.019 1.223-0.0999 2.2949-0.53593 2.9109-0.147 0.216-0.324 0.33987-0.525 0.39687-0.249 0.294-0.56388 0.438-0.94688 0.375-0.382-0.067-0.841-0.33925-1.3-0.88125-0.932-1.088-1.5297-2.8831-1.6547-4.6781-0.134-1.797 0.20168-3.5504 0.67968-4.7484 0.703-1.735 1.663-2.8232 2.6-4.1812 1.416-2.038 2.8018-4.6126 4.4938-7.0016 0.162-0.237 0.33425-0.41094 0.50625-0.53594 0.431-0.722 0.91763-0.96406 1.1656-0.86406 0.269 0.103 0.30681 0.547-0.0422 1.25-1.449 2.961-1.9755 6.0552-1.6875 8.7922 0.267 2.378 1.1671 4.2439 2.1891 5.8859 0.326 0.514 0.71688 1.1785 1.1469 1.8375 0.406 0.615 0.85125 1.2847 1.2812 1.9297 0.402 0.609 0.727 1.1853 0.9 1.7703 0.09 0.287 0.14244 0.58382 0.12344 0.88282-0.01 0.294-0.0808 0.60449-0.24376 0.91249-0.244 0.488-0.63624 0.77775-1.1812 0.86875-0.13351 0.02-0.27751 0.03-0.42813 0.0282zm97.769-6.5125s0.29587-0.16282 0.82187-0.45781c0.258-0.15001 0.58357-0.31719 0.95157-0.54219 0.368-0.217 0.78443-0.472 1.2484-0.75 0.454-0.289 0.93494-0.61938 1.4609-0.95938 0.517-0.365 1.0669-0.75387 1.6359-1.1719 1.113-0.856 2.3039-1.8412 3.4609-2.9422 2.294-2.223 4.4253-4.9362 5.9453-7.7563 1.53-2.837 2.4569-5.7294 3.1359-8.2844 0.344-1.281 0.60707-2.4872 0.88907-3.6172 0.267-1.162 0.50787-2.2328 0.72187-3.2078 0.111-0.498 0.24406-0.977 0.33906-1.45 0.096-0.466 0.24125-0.91343 0.33125-1.3484 0.1-0.433 0.215-0.84932 0.325-1.2453 0.09-0.4 0.18963-0.7745 0.29063-1.1375 0.411-1.434 0.81268-2.5695 1.1047-3.3375 0.311-0.76701 0.53438-1.1656 0.53438-1.1656s0.39219 0.21269 1.0422 0.75469c0.651 0.55 1.5348 1.4419 2.4438 2.8469 0.229 0.356 0.45819 0.73881 0.69219 1.1578 0.215 0.42 0.42593 0.87644 0.63593 1.3734 0.224 0.488 0.38644 1.0248 0.57344 1.5938 0.191 0.569 0.33569 1.1762 0.47969 1.8312 0.267 1.297 0.40063 2.7648 0.39063 4.3828-0.048 1.608-0.23894 3.3772-0.73594 5.2422-0.502 1.852-1.2724 3.7899-2.3234 5.6609-1.042 1.867-2.3619 3.6536-3.8719 5.2406-1.505 1.587-3.1922 2.9741-4.9422 4.1141-1.729 1.147-3.5234 2.0509-5.2344 2.7609-3.461 1.382-6.582 1.9646-8.8 2.2016-0.555 0.05-1.0506 0.0902-1.4906 0.13125-0.43 0.036-0.81307 0.0393-1.1141 0.0562-0.607 0.015-0.94218 0.025-0.94218 0.025zm76.642 0s-0.32993-0.01-0.93593-0.025c-0.306-0.017-0.67876-0.0202-1.1188-0.0562-0.439-0.041-0.93718-0.0812-1.4922-0.13125-2.213-0.237-5.3343-0.81957-8.7953-2.2016-1.711-0.71-3.5035-1.6139-5.2375-2.7609-1.744-1.14-3.4312-2.5271-4.9422-4.1141-1.5-1.587-2.8264-3.3736-3.8734-5.2406-1.046-1.871-1.8145-3.8089-2.3125-5.6609-0.506-1.865-0.69362-3.6342-0.74062-5.2422-0.014-1.618 0.11831-3.0858 0.39531-4.3828 0.139-0.655 0.27931-1.2622 0.47031-1.8312 0.186-0.569 0.34944-1.1058 0.57344-1.5938 0.209-0.497 0.42363-0.95344 0.64063-1.3734 0.228-0.419 0.45949-0.80181 0.68749-1.1578 0.912-1.405 1.7974-2.2969 2.4484-2.8469 0.65-0.542 1.0422-0.75469 1.0422-0.75469s0.22737 0.39863 0.53437 1.1656c0.295 0.768 0.694 1.9035 1.1 3.3375 0.104 0.363 0.20032 0.7375 0.29532 1.1375 0.116 0.39601 0.22 0.81232 0.325 1.2453 0.086 0.435 0.22937 0.88243 0.33437 1.3484 0.086 0.473 0.22138 0.952 0.33438 1.45 0.217 0.975 0.45918 2.0458 0.71718 3.2078 0.287 1.13 0.54975 2.3362 0.89375 3.6172 0.683 2.555 1.6009 5.4474 3.1359 8.2844 1.524 2.82 3.6581 5.5332 5.9531 7.7562 1.156 1.101 2.3357 2.0862 3.4547 2.9422 0.568 0.418 1.1132 0.80687 1.6312 1.1719 0.525 0.34 1.0099 0.67037 1.4609 0.95937 0.467 0.278 0.88444 0.533 1.2484 0.75 0.369 0.225 0.69225 0.39219 0.95625 0.5422 0.529 0.29499 0.81562 0.4578 0.81562 0.4578zm35.59-14.562s-0.30513-0.98481-0.80313-2.6078c-0.278-0.803-0.62169-1.7359-1.0047-2.7609-0.453-1.004-0.86043-2.1212-1.4734-3.2062-1.107-2.217-2.5595-4.4272-4.1375-6.3062-1.579-1.898-3.2903-3.4757-4.7703-4.9047-2.205-2.168-3.9301-4.1042-5.1641-5.9062-0.315-0.442-0.60105-0.879-0.83905-1.3-0.25-0.42-0.48838-0.79062-0.68438-1.1656-0.406-0.732-0.679-1.3786-0.875-1.8766 0.43 0.309 0.86543 0.61982 1.2984 0.93282 0.287 0.198 0.57151 0.397 0.86251 0.6 0.277 0.212 0.56324 0.41981 0.83124 0.63281 0.572 0.416 1.1525 0.81788 1.6875 1.2719l0.83593 0.65c0.277 0.211 0.55538 0.41994 0.80938 0.66094 0.519 0.462 1.0692 0.88694 1.5812 1.3359 0.248 0.237 0.49662 0.46913 0.74062 0.70313 0.254 0.222 0.51225 0.44175 0.75625 0.66875 0.228 0.239 0.46219 0.47694 0.69219 0.71094 0.235 0.228 0.46756 0.45625 0.70156 0.68125 0.442 0.465 0.84851 0.953 1.2875 1.4 0.219 0.212 0.40118 0.46175 0.59218 0.69375 0.192 0.239 0.373 0.46562 0.575 0.69062 0.4 0.435 0.71538 0.91269 1.0594 1.3547 0.326 0.44 0.67962 0.85143 0.94062 1.2984 0.293 0.42699 0.57918 0.83331 0.84218 1.2203 0.274 0.392 0.47313 0.78506 0.70313 1.1391 0.229 0.36 0.44363 0.694 0.64063 1 0.172 0.318 0.32393 0.60731 0.48593 0.87031 0.307 0.528 0.55075 0.93475 0.71875 1.2188 0.143 0.285 0.22032 0.4375 0.22032 0.4375s-0.029-0.18444-0.0859-0.52344c-0.096-0.33-0.2155-0.82125-0.3875-1.4312-0.092-0.299-0.16181-0.646-0.28281-1-0.133-0.358-0.27731-0.74994-0.42031-1.1609-0.162-0.407-0.29125-0.85232-0.50625-1.2953-0.201-0.43999-0.41626-0.9005-0.63126-1.3875-0.105-0.249-0.23887-0.488-0.37187-0.725-0.134-0.243-0.26725-0.48775-0.40625-0.74375-0.139-0.246-0.27688-0.50206-0.42188-0.76406-0.148-0.249-0.31993-0.49356-0.48593-0.75156-0.168-0.253-0.33112-0.50562-0.50312-0.76562-0.172-0.263-0.33538-0.527-0.53438-0.775-0.198-0.256-0.39275-0.5095-0.59375-0.7625-0.191-0.258-0.39319-0.51626-0.59219-0.78126-0.221-0.249-0.44194-0.49506-0.66094-0.73906-0.221-0.256-0.44438-0.50918-0.65938-0.76718-0.225-0.263-0.47849-0.49194-0.71249-0.73594-0.242-0.243-0.48663-0.48225-0.74063-0.73125-0.479-0.501-1.0038-0.94194-1.5328-1.4109l-0.79531-0.69687-0.82656-0.65c-1.099-0.894-2.2548-1.6919-3.3938-2.4969-0.43-0.28-0.86531-0.55782-1.2953-0.83282 0.635-0.103 1.4134-0.20838 2.2984-0.18438 0.875 0.04704 1.8931 0.13475 3.0031 0.41875 1.099 0.304 2.3408 0.70913 3.6078 1.4281 0.311 0.173 0.63587 0.35825 0.97187 0.55625 0.324 0.198 0.63944 0.44181 0.97344 0.68281 0.651 0.493 1.3386 1.0001 1.9656 1.6641 2.108 2.031 4.042 4.9375 5.2 8.1375 1.186 3.198 1.601 6.5654 1.525 9.4484 0.019 1.438-0.20606 2.7728-0.33906 3.9438-0.225 1.179-0.445 2.2013-0.65 3.0453-0.493 1.68-0.82656 2.65-0.82656 2.65zm-147.84-0.0016s-0.33925-0.96688-0.83125-2.6469c-0.21-0.84401-0.431-1.8673-0.65-3.0453-0.134-1.171-0.35375-2.5079-0.34375-3.9469-0.077-2.878 0.34312-6.2489 1.5281-9.4469 1.157-3.2 3.0976-6.1071 5.2016-8.1391 0.196-0.191 0.39182-0.38162 0.58282-0.56562 0.201-0.18 0.40182-0.34113 0.60782-0.50313 0.406-0.318 0.803-0.62438 1.2-0.90938 0.382-0.292 0.79236-0.5155 1.1844-0.7375 0.397-0.218 0.78326-0.42194 1.1563-0.61094 0.191-0.09 0.37425-0.18306 0.55625-0.26406 0.195-0.06904 0.38206-0.14194 0.56406-0.21094 0.373-0.134 0.72569-0.25626 1.0797-0.35626 0.344-0.106 0.68212-0.20238 1.0031-0.28438 0.339-0.062 0.664-0.10981 0.975-0.15781 0.621-0.086 1.1963-0.13144 1.7313-0.14844 0.526-0.014 1.0238 0.0348 1.4578 0.08282 0.884 0.103 1.5811 0.26956 2.0781 0.42656-0.515 0.153-1.0416 0.31625-1.5766 0.48125-0.345 0.119-0.69818 0.22831-1.0422 0.34531-0.345 0.139-0.68725 0.27963-1.0312 0.41562-0.689 0.29901-1.3919 0.5695-2.0609 0.9375l-1.0094 0.55c-0.345 0.177-0.67306 0.35813-0.98906 0.57813-0.64 0.428-1.3008 0.83243-1.9078 1.2984-0.296 0.244-0.60174 0.48288-0.89374 0.72188-0.291 0.248-0.58207 0.48662-0.86407 0.74062-0.268 0.262-0.53981 0.52462-0.80781 0.79062-0.253 0.27-0.51332 0.537-0.77032 0.8-0.483 0.559-0.93649 1.1286-1.3625 1.6906-0.224 0.28-0.41588 0.5735-0.59688 0.8625-0.191 0.289-0.36463 0.57818-0.54063 0.86718-0.359 0.562-0.64949 1.1451-0.91249 1.7141-0.254 0.574-0.52019 1.1022-0.69219 1.6562-0.178 0.538-0.34112 1.0542-0.50312 1.5422-0.149 0.492-0.22464 0.97282-0.31564 1.4078-0.081 0.444-0.153 0.85325-0.225 1.2312-0.028 0.38-0.0613 0.73075-0.0703 1.0438-0.039 0.617-0.0494 1.1014-0.0594 1.4234 0.019 0.33 0.0297 0.50469 0.0297 0.50469s0.0534-0.18406 0.13438-0.51406c0.1-0.33 0.26644-0.80538 0.44844-1.4094 0.096-0.294 0.19169-0.63338 0.32969-0.98438 0.139-0.349 0.29269-0.72738 0.45469-1.1344 0.172-0.399 0.32506-0.82856 0.56406-1.2516 0.22-0.43 0.44943-0.87618 0.69843-1.3422 0.115-0.239 0.262-0.46688 0.4-0.69688 0.154-0.227 0.297-0.46018 0.45-0.69218 0.153-0.241 0.30675-0.47788 0.46875-0.72188 0.163-0.239 0.35338-0.461 0.53438-0.7 0.182-0.234 0.36431-0.47394 0.54531-0.71094 0.187-0.239 0.38313-0.476 0.60313-0.7 0.21-0.222 0.41625-0.45238 0.63125-0.68438 0.22-0.224 0.43881-0.45394 0.65781-0.68594 0.24-0.212 0.47975-0.42406 0.71875-0.63906 0.243-0.213 0.48725-0.43374 0.73125-0.64375 0.234-0.229 0.51075-0.41281 0.76875-0.60781 0.268-0.199 0.53113-0.39587 0.80313-0.59687 0.507-0.416 1.1004-0.72875 1.6594-1.0938 0.282-0.177 0.56331-0.34831 0.84531-0.52031l0.89844-0.45938c1.162-0.655 2.4-1.1405 3.6-1.6375 0.455-0.163 0.9125-0.31531 1.3625-0.47031-0.268 0.561-0.63056 1.1698-1.0516 1.8578-0.401 0.703-0.92857 1.4141-1.5016 2.1781-0.56 0.78201-1.2514 1.5399-1.9734 2.3859-0.187 0.203-0.37869 0.40556-0.57969 0.60156-0.205 0.21-0.38619 0.43731-0.59219 0.64531-0.402 0.435-0.87938 0.83869-1.3094 1.3047-1.482 1.43-3.1926 3.0067-4.7656 4.9047-1.582 1.878-3.0257 4.0898-4.1437 6.3078-0.602 1.085-1.0129 2.2007-1.4719 3.2047-0.383 1.025-0.728 1.9564-1 2.7594-0.498 1.623-0.79844 2.6078-0.79844 2.6078zm-132.69-20.493s-0.24975-0.10238-0.71875-0.28438c-0.478-0.179-1.1467-0.48706-1.9687-0.93906-0.813-0.461-1.7882-1.0658-2.7922-1.8828-1.022-0.813-2.0882-1.823-3.1062-3.025-2.051-2.383-3.8631-5.5946-4.8531-9.1406-1.018-3.53-1.0931-7.4064-0.22812-10.659 0.669-2.45 1.8498-4.4929 3.2078-6.0219 1.357-1.538 2.9004-2.5566 4.3344-3.1516 0.358-0.148 0.70412-0.28338 1.0531-0.38438 0.358-0.095 0.69219-0.17731 1.0172-0.24531 0.636-0.136 1.2619-0.16687 1.8109-0.17187 0.55-0.0048 1.0573 0.05552 1.5063 0.1375 0.445 0.076 0.81719 0.17244 1.1422 0.27344-0.263 0.119-0.53544 0.23269-0.79844 0.35469-0.277 0.112-0.54912 0.24387-0.80312 0.39687-0.698 0.371-1.3562 0.80488-2.0062 1.2969l-0.94219 0.79375c-0.301 0.28299-0.59338 0.57387-0.88438 0.87187-1.114 1.227-2.0754 2.6218-2.7734 4.1188-0.191 0.366-0.35225 0.74143-0.50625 1.1234-0.143 0.38-0.28688 0.76457-0.39688 1.1516-0.12 0.383-0.24837 0.76131-0.33437 1.1453-0.09 0.385-0.18075 0.77281-0.24375 1.1578-0.057 0.38-0.11388 0.75782-0.17188 1.1328-0.038 0.378-0.06594 0.752-0.08594 1.125-0.023 0.364-0.01944 0.72806-0.02344 1.0891-0.015 0.359 0.0047 0.71694 0.04375 1.0609 0.038 0.693 0.10475 1.3583 0.21875 1.9953 0.134 0.633 0.25362 1.2358 0.41562 1.8078 0.172 0.564 0.34438 1.1021 0.53438 1.5891 0.187 0.497 0.39681 0.95662 0.60781 1.3656 0.205 0.42 0.42088 0.79538 0.62188 1.1344 0.191 0.342 0.39119 0.64513 0.59219 0.90313 0.191 0.263 0.36419 0.49418 0.51719 0.69218 0.162 0.189 0.30594 0.34969 0.41094 0.47969 0.225 0.255 0.34375 0.3875 0.34375 0.3875s-0.04875-0.17738-0.14375-0.50938c-0.048-0.163-0.10425-0.36913-0.18125-0.60313-0.057-0.239-0.13831-0.51006-0.22031-0.81406-0.091-0.301-0.1565-0.63994-0.2375-1.0109-0.087-0.365-0.15369-0.76687-0.22969-1.1969-0.086-0.421-0.12981-0.87825-0.18281-1.3562-0.057-0.481-0.09444-0.979-0.12344-1.5-0.029-1.052-0.03831-2.1784 0.10469-3.3484 0.019-0.297 0.05669-0.58738 0.10469-0.88438 0.048-0.299 0.08613-0.59756 0.15313-0.90156 0.062-0.294 0.12519-0.59713 0.19219-0.90313 0.076-0.304 0.15744-0.60281 0.24844-0.90781 0.072-0.299 0.18625-0.60113 0.28125-0.90313 0.11-0.299 0.20506-0.60618 0.33906-0.89218 0.235-0.601 0.5165-1.1739 0.8125-1.7469 0.153-0.278 0.3165-0.5585 0.4875-0.8375 0.168-0.268 0.35456-0.52731 0.52656-0.79531 0.163-0.274 0.38712-0.51463 0.57812-0.76563 0.196-0.255 0.40688-0.48462 0.62188-0.71562 0.841-0.94 1.7923-1.7304 2.7953-2.3594 0.378-0.229 0.75581-0.44194 1.1328-0.63594 0.034 1.133 0.083 2.7242 0.15 4.8422-0.01 0.406 0.019 0.84712 0 1.2531 0.004 0.43-0.04038 0.83075-0.05938 1.2688-0.076 0.845-0.22756 1.7136-0.47656 2.6766-0.411 1.563-1.1579 3.4316-1.7219 5.6516-0.564 2.209-1.0046 4.7241-1.0516 7.1281-0.091 2.412 0.2205 4.6895 0.5875 6.3625 0.197 0.829 0.38762 1.5218 0.54062 1.9828 0.148 0.479 0.23125 0.74375 0.23125 0.74375zm413.23 0s0.0811-0.26575 0.23907-0.74375c0.149-0.461 0.3315-1.1511 0.5375-1.9781 0.367-1.673 0.67625-3.9562 0.58125-6.3672-0.047-2.404-0.47756-4.9186-1.0516-7.1266-0.565-2.22-1.3112-4.0901-1.7172-5.6531-0.32-1.172-0.46263-2.2012-0.51563-3.2312-0.043-1.031-0.0181-2.0451 0.011-3.0641 0.082-2.036 0.10895-4.0672 0.16094-5.3922 0.15501 0.204 0.30163 0.40181 0.46563 0.60781 0.152 0.193 0.30443 0.39638 0.44843 0.60938 0.391 0.528 0.73069 1.0905 1.0797 1.6375l0.48438 0.8375c0.138 0.294 0.28975 0.58406 0.44375 0.86406 0.582 1.147 1.0278 2.3316 1.4438 3.5156 0.114 0.289 0.19612 0.5935 0.27812 0.8875 0.103 0.295 0.19926 0.5865 0.28126 0.8875 0.082 0.299 0.16681 0.58819 0.23281 0.89219 0.057 0.301 0.16387 0.58269 0.22187 0.87969 0.07 0.298 0.13244 0.59281 0.19844 0.88281 0.053 0.293 0.11281 0.58288 0.18281 0.87188 0.068 0.284 0.0951 0.57194 0.15312 0.86094 0.053 0.28 0.0968 0.56531 0.14376 0.84531 0.119 0.557 0.16244 1.1076 0.24844 1.6406 0.072 0.533 0.15762 1.0551 0.19062 1.5641 0.059 0.502 0.11869 0.988 0.15469 1.45 0.047 0.466 0.0764 0.91325 0.10937 1.3312 0.047 0.425 0.0627 0.82094 0.0797 1.1859 0.029 0.371 0.0434 0.70975 0.0594 1.0188 0.023 0.31 0.0466 0.58656 0.0656 0.82656 0.006 0.243 0.0103 0.45031 0.0203 0.62031 0.019 0.339 0.0281 0.51719 0.0281 0.51719s0.071-0.1725 0.2-0.4875c0.069-0.163 0.14407-0.3605 0.23907-0.5875 0.077-0.235 0.16675-0.50182 0.26875-0.80782 0.105-0.294 0.19-0.635 0.3-1 0.109-0.363 0.20556-0.75906 0.30156-1.1891 0.105-0.421 0.20031-0.88094 0.29531-1.3609 0.106-0.478 0.13969-0.98918 0.22969-1.5172 0.139-1.056 0.24406-2.201 0.26406-3.425 0-0.304-0.00024-0.61369-0.006-0.92969-0.008-0.308 0.00056-0.62644-0.0234-0.94844-0.023-0.318-0.0435-0.64375-0.0625-0.96875-0.028-0.327-0.0561-0.65906-0.0891-0.98906-0.033-0.334-0.0828-0.665-0.14375-1-0.045-0.339-0.0958-0.68032-0.16875-1.0203-0.125-0.678-0.29519-1.3616-0.46719-2.0516-0.116-0.345-0.21519-0.68794-0.31719-1.0359-0.113-0.347-0.2315-0.68625-0.3625-1.0312-0.123-0.346-0.27531-0.67475-0.42031-1.0188-0.129-0.349-0.29113-0.68675-0.45313-1.0188-0.674-1.336-1.4537-2.6476-2.4047-3.8516-0.356-0.443-0.713-0.87844-1.1-1.2984 1.596-0.163 3.9102 0.05336 6.3422 1.5594 0.627 0.366 1.2012 0.82825 1.8062 1.3562 0.571 0.541 1.169 1.1467 1.675 1.8547 1.067 1.398 1.9644 3.1428 2.5094 5.1578 0.865 3.252 0.78863 7.1294-0.23437 10.659-0.991 3.547-2.7966 6.7592-4.8516 9.1422-1.017 1.202-2.0848 2.2099-3.1078 3.0219-0.994 0.818-1.9782 1.4224-2.7812 1.8844-0.832 0.451-1.5014 0.75863-1.9734 0.94063-0.463 0.18-0.72344 0.28281-0.72344 0.28281zm-222.9-8.25c-0.364-0.012-0.70718-0.07184-1.0422-0.12187-0.329-0.06-0.65026-0.11762-0.95626-0.21562-0.296-0.105-0.57862-0.22175-0.84062-0.34375-0.268-0.124-0.51662-0.24431-0.74062-0.39531-0.225-0.152-0.43556-0.31544-0.62656-0.47344-0.392-0.325-0.72163-0.6425-0.96563-1.0125-0.507-0.715-0.81288-1.3908-0.94688-2.0438-0.138-0.636-0.16212-1.1784-0.15312-1.5844 0.201 0.224 0.41025 0.43538 0.63125 0.65938 0.152 0.142 0.29738 0.29456 0.45938 0.42656 0.163 0.122 0.33424 0.24675 0.50624 0.36875l0.53594 0.36094c0.182 0.112 0.37682 0.20369 0.58282 0.30469l0.27656 0.12969c0.048 0.136 0.11593 0.30706 0.21093 0.48906 0.063 0.122 0.139 0.24494 0.225 0.36094 0.086 0.122 0.19657 0.23962 0.30157 0.36562 0.12 0.117 0.23825 0.24313 0.38125 0.35313 0.144 0.117 0.288 0.23 0.45 0.325 0.163 0.095 0.33425 0.16269 0.50625 0.22969 0.171 0.07 0.353 0.1105 0.525 0.1625 0.173 0.05 0.34581 0.0616 0.50781 0.09062 0.163 0.014 0.31538 0.0048 0.45938 0 0.143-0.014 0.26087-0.0091 0.37187-0.02808 0.114-0.022 0.21618-0.0376 0.29218-0.0516 0.158-0.02696 0.24844-0.04216 0.24844-0.04216s-0.0911-0.0093-0.25312-0.02032c-0.072-0.008-0.17256-0.0144-0.27656-0.02344-0.111-0.0048-0.21969-0.0416-0.35469-0.0656-0.124-0.026-0.25381-0.05216-0.38281-0.10313-0.134-0.04504-0.27694-0.10725-0.41094-0.18125-0.119-0.081-0.25844-0.152-0.37344-0.25-0.114-0.091-0.22781-0.18206-0.33281-0.28906-0.101-0.096-0.19212-0.20674-0.27812-0.31874-0.077-0.103-0.13769-0.22406-0.20469-0.33906-0.024-0.052-0.0435-0.10425-0.0625-0.15625 0.229 0.074 0.48657 0.08162 0.72656 0.11562 0.22401 0.02304 0.44875 0.04472 0.66875 0.06872 0.224 0.01704 0.44875-0.02144 0.66875-0.02344 0.224-0.01696 0.43994-0.03128 0.66094-0.04528 0.228-0.012 0.42906-0.08869 0.63906-0.12969 0.416-0.107 0.84169-0.18175 1.2047-0.36875 0.369-0.167 0.75431-0.28925 1.0703-0.50625 0.11-0.074 0.22-0.14306 0.325-0.21406 0.038 0.012 0.0766 0.01296 0.11563 0.02496 0.23 0.04 0.49681 0.07416 0.78281 0.0672 0.283-0.022 0.58363-0.093 0.86563-0.175 0.138-0.05 0.28318-0.09 0.41718-0.15 0.143-0.058 0.26588-0.12131 0.37188-0.19531 0.114-0.074 0.224-0.15118 0.325-0.21718 0.105-0.07 0.19212-0.14594 0.27812-0.21094 0.162-0.129 0.28088-0.26119 0.37188-0.34219 0.086-0.091 0.12969-0.14218 0.12969-0.14218s-0.0568 0.03856-0.15782 0.10156c-0.114 0.05696-0.254 0.14944-0.45 0.22344-0.096 0.04-0.191 0.08087-0.3 0.12187-0.11 0.038-0.22562 0.06992-0.34062 0.11094-0.119 0.03096-0.2385 0.06224-0.3625 0.08126-0.124 0.022-0.25881 0.0228-0.38281 0.0328-0.249 0-0.48813-0.02216-0.70313-0.0672 0.119-0.117 0.24475-0.22762 0.36875-0.34062 0.109-0.112 0.21963-0.21638 0.31563-0.33438 0.095-0.117 0.18087-0.23275 0.27187-0.34375 0.167-0.229 0.33006-0.442 0.46406-0.65 0.248-0.432 0.43975-0.81338 0.56875-1.1344 0.144-0.308 0.19576-0.58706 0.24376-0.76406 0.053-0.173 0.0718-0.27187 0.0718-0.27187s-0.0713 0.06864-0.19532 0.19062c-0.125 0.127-0.30668 0.31062-0.55468 0.51562-0.249 0.204-0.52732 0.4835-0.89532 0.7375-0.172 0.131-0.37712 0.26556-0.57812 0.40156-0.191 0.148-0.41481 0.27644-0.65781 0.39844-0.23 0.12-0.46951 0.27012-0.73751 0.37812-0.267 0.101-0.54049 0.2075-0.81249 0.3125-0.287 0.108-0.59207 0.15869-0.88907 0.22969-0.157 0.02896-0.30106 0.08162-0.46406 0.09062-0.148 0.01704-0.30987 0.03064-0.47187 0.04064-0.106 0.01-0.22094 0.01928-0.33594 0.03128 0.01-0.062 0.029-0.13587 0.039-0.22187 0.023-0.093 0.0386-0.21062 0.0766-0.31562 0.038-0.122 0.0864-0.235 0.13438-0.35 0.048-0.114 0.10393-0.22906 0.16093-0.33906 0.072-0.108 0.13394-0.21419 0.21094-0.31719l0.10469-0.16874c0.039-0.05296 0.0816-0.09375 0.11562-0.14375 0.076-0.096 0.15307-0.19538 0.23907-0.25938 0.076-0.076 0.15144-0.15175 0.22344-0.21875 0.082-0.06904 0.15331-0.14112 0.22031-0.20312 0.129-0.122 0.25806-0.18288 0.33906-0.24688 0.086-0.05296 0.13437-0.09687 0.13437-0.09687s-0.0675 0.0184-0.1625 0.0344c-0.106 0.022-0.25731 0.02328-0.42031 0.08125-0.091 0.024-0.17244 0.05496-0.27344 0.08594-0.09 0.03096-0.18562 0.05944-0.29062 0.09844-0.105 0.024-0.20125 0.08062-0.30625 0.14062-0.048 0.024-0.10513 0.05616-0.15313 0.09219 0 0.012-0.15312 0.1-0.15313 0.1-0.109 0.058-0.20024 0.15306-0.30624 0.23906-0.1 0.093-0.19619 0.215-0.29219 0.325-0.09 0.112-0.19488 0.21775-0.27188 0.34375-0.096 0.117-0.17087 0.25569-0.24687 0.37969-0.067 0.139-0.14018 0.26082-0.19218 0.38282-0.068 0.119-0.11013 0.23462-0.15313 0.31562-0.018 0.074-0.0476 0.12894-0.0656 0.18594-0.096-0.01904-0.19251-0.0408-0.28751-0.05784-0.316-0.05904-0.6318-0.12331-0.9328-0.24531-0.302-0.112-0.59738-0.19831-0.88438-0.37031-0.277-0.158-0.5545-0.28443-0.8125-0.47343-0.249-0.186-0.49632-0.36826-0.74532-0.55626-0.162-0.163-0.32449-0.32081-0.48749-0.48281 0.76-0.421 1.6929-0.94962 2.4859-1.4156 0.201-0.122 0.39144-0.23431 0.57344-0.32031 0.186-0.117 0.35832-0.22775 0.52032-0.29375 0.043-0.02104 0.0813-0.04 0.12031-0.05l0.125-0.07192c0.081-0.04104 0.15213-0.06864 0.22813-0.09062 0.16199-0.03096 0.31612-0.1125 0.47812-0.1125 0.516-0.06304 1.2232 0.09362 2.2562 0.04064 1.013-0.04504 2.3191-0.27382 3.5281-0.73282 0.32-0.09 0.60244-0.22987 0.89844-0.34687 0.287-0.127 0.59256-0.23031 0.85156-0.37031 0.525-0.271 1.0424-0.50718 1.4484-0.74218 0.841-0.48 1.3516-0.77657 1.3516-0.77657s0.0478 0.58275 0.0578 1.5938c0 0.502-0.0578 1.0912-0.14375 1.7812-0.03 0.352-0.11862 0.695-0.19062 1.075-0.091 0.366-0.16263 0.77162-0.31563 1.1656-0.487 1.604-1.4531 3.3923-2.9641 4.8813-0.191 0.184-0.37282 0.37518-0.58282 0.54218-0.22 0.17-0.43 0.33406-0.65 0.48906-0.22 0.163-0.44975 0.31218-0.66875 0.46718-0.248 0.129-0.4885 0.25769-0.7375 0.37969-0.238 0.115-0.48693 0.23206-0.73593 0.33906-0.248 0.101-0.50663 0.174-0.76563 0.25-0.515 0.144-1.0161 0.28494-1.5281 0.31094-0.373 0.03304-0.75538 0.05472-1.1094 0.05472zm32.383-0.0048c-0.299-0.0024-0.60682-0.02408-0.92031-0.05152-0.506-0.026-1.0077-0.16694-1.5297-0.31094-0.248-0.076-0.51526-0.14688-0.75626-0.24688-0.257-0.108-0.50031-0.22562-0.74531-0.34062-0.242-0.121-0.48656-0.25069-0.72656-0.37969-0.225-0.155-0.44975-0.30574-0.66875-0.46874-0.231-0.15501-0.439-0.3175-0.65-0.4875-0.22-0.167-0.40274-0.35818-0.59374-0.54218-1.51-1.489-2.4745-3.2773-2.9625-4.8813-0.153-0.394-0.21981-0.79962-0.30781-1.1656-0.076-0.379-0.17144-0.72456-0.19844-1.0766-0.076-0.69-0.13906-1.2777-0.13906-1.7797 0.004-1.011 0.0625-1.5938 0.0625-1.5938s0.50588 0.29556 1.3469 0.77657c0.401 0.23399 0.92244 0.47118 1.4484 0.74218 0.254 0.14 0.56369 0.24175 0.85468 0.36875 0.293 0.117 0.57519 0.259 0.89219 0.35 1.219 0.459 2.5117 0.68625 3.5297 0.73125 1.037 0.05296 1.7371-0.10362 2.2531-0.04064 0.105 0.0048 0.20087 0.02536 0.29687 0.05936 0.09 0.03296 0.18438 0.04128 0.28438 0.08125 0.086 0.036 0.19212 0.10275 0.27812 0.14375 0.106 0.04096 0.20563 0.09212 0.31562 0.15312 0.10501 0.04904 0.21201 0.13062 0.32501 0.19062 0.105 0.056 0.22431 0.11706 0.34531 0.18906 0.238 0.131 0.47637 0.31069 0.73437 0.42969 1.024 0.61 2.137 1.1889 2.85 1.6359-0.268 0.046-0.53575 0.09019-0.79375 0.14219-0.172 0.034-0.33381 0.08256-0.50781 0.10156-0.172 0.02104-0.33825 0.03496-0.50625 0.06096l-0.4875 0.08126-0.4875 0.02032-0.22969 0.02344c-0.09-0.096-0.19106-0.21312-0.31406-0.32812-0.083-0.081-0.16481-0.16869-0.25781-0.25469-0.082-0.096-0.18232-0.18388-0.27032-0.27188-0.094-0.082-0.185-0.17006-0.27499-0.23906-0.092-0.07696-0.18213-0.14913-0.27813-0.20313-0.085-0.07704-0.17182-0.13906-0.25782-0.18906-0.086-0.06504-0.16243-0.09213-0.24843-0.12812-0.067-0.04104-0.14294-0.0444-0.21094-0.05936-0.071-0.03496-0.13363-0.04-0.19063-0.05-0.062-0.0072-0.11505-0.02616-0.16405-0.0172-0.043 0.0048-0.0949 0.01016-0.12188 0.0172-0.068 0.0016-0.10625 0.0156-0.10625 0.0156s0.0373 0.01272 0.0953 0.04376c0.03 0.014 0.0742 0.03648 0.11719 0.06248 0.046 0.014 0.0946 0.06368 0.15156 0.10469 0.047 0.04096 0.10394 0.08144 0.16094 0.14844 0.057 0.072 0.13018 0.09587 0.19218 0.17187 0.057 0.07696 0.1292 0.132 0.1922 0.225 0.066 0.081 0.141 0.1645 0.2 0.2625 0.07 0.091 0.13262 0.199 0.19062 0.3 0.077 0.102 0.13387 0.21144 0.19687 0.29844 0.019 0.04704 0.0518 0.08869 0.0719 0.12969-0.164 0.01904-0.33044-0.02176-0.49844-0.01872-0.143-0.0032-0.28706-0.01632-0.43906-0.02032-0.139 0.01104-0.28075-0.02792-0.41875-0.03592-0.145-0.014-0.28881-0.02832-0.43281-0.04528-0.143 0.0048-0.27638-0.04072-0.40938-0.05472-0.278-0.05-0.56513-0.06976-0.82813-0.14375-0.262-0.06-0.53487-0.0885-0.79687-0.1625-0.096-0.024-0.18213-0.04776-0.27813-0.06872 0-0.03096-0.0154-0.06072-0.0234-0.09375-0.062-0.182-0.13937-0.373-0.23437-0.55-0.086-0.203-0.20126-0.387-0.30626-0.55-0.063-0.076-0.12462-0.15318-0.19062-0.21718-0.067-0.06304-0.12519-0.13913-0.19219-0.20313-0.066-0.06-0.12418-0.11787-0.19218-0.17187-0.057-0.05096-0.11888-0.09025-0.17188-0.13125-0.109-0.093-0.21862-0.13469-0.29062-0.17969-0.067-0.046-0.1-0.06872-0.1-0.06872s0.0182 0.0404 0.0672 0.10938c0.043 0.068 0.12331 0.14831 0.19532 0.27031 0.043 0.05896 0.0817 0.12787 0.11874 0.19687 0.029 0.078 0.0726 0.15706 0.11562 0.23906 0.039 0.086 0.0563 0.17975 0.0953 0.26875 0.043 0.086 0.0662 0.181 0.10625 0.275 0.056 0.186 0.0983 0.37931 0.13125 0.57031-0.132-0.04-0.25656-0.0748-0.37656-0.10782-0.119-0.036-0.24419-0.06216-0.36719-0.10312-0.105-0.04096-0.22394-0.08262-0.33594-0.11562-0.218-0.081-0.43813-0.14738-0.65313-0.20938-0.416-0.136-0.77149-0.29494-1.0875-0.38594-0.324-0.096-0.56169-0.19282-0.72969-0.25782-0.178-0.062-0.26406-0.09531-0.26406-0.09531s0.0581 0.07816 0.16406 0.21718c0.113 0.136 0.26825 0.34875 0.50625 0.56875 0.228 0.227 0.49819 0.52662 0.84219 0.81562 0.171 0.141 0.35331 0.29762 0.54531 0.46562 0.185 0.174 0.41038 0.31075 0.63438 0.46875 0.231 0.155 0.45762 0.33894 0.71562 0.48594 0.26 0.146 0.532 0.29326 0.8 0.45626 0.287 0.148 0.59443 0.259 0.89843 0.4 0.153 0.06704 0.29988 0.14806 0.47188 0.18906 0.164 0.05 0.32575 0.10094 0.49375 0.16094 0.113 0.036 0.23937 0.07304 0.35937 0.11406-0.03 0.06-0.0739 0.12163-0.11093 0.19062-0.058 0.07696-0.12494 0.17526-0.21094 0.25626-0.086 0.096-0.19525 0.17106-0.30625 0.26406-0.114 0.06904-0.24193 0.14918-0.38593 0.21718-0.149 0.054-0.30207 0.1435-0.46407 0.1625l-0.25781 0.04528c-0.076 0.01-0.172 0.0087-0.25 0.01872-0.176 0.01104-0.353 0.01968-0.525 0.0048-0.166-0.01904-0.34731-0.004-0.49531-0.05472-0.158-0.04-0.30763-0.07448-0.44063-0.1125-0.277-0.06904-0.49737-0.16419-0.65937-0.21719-0.162-0.054-0.24376-0.10312-0.24376-0.10312s0.071 0.06752 0.21407 0.1625c0.135 0.094 0.32637 0.25088 0.58437 0.39688 0.133 0.076 0.27613 0.15774 0.42813 0.24374 0.153 0.091 0.33543 0.12644 0.52343 0.19844 0.186 0.06904 0.37626 0.10982 0.58126 0.15782 0.102 0.024 0.20662 0.05008 0.31562 0.06408-0.005 0.01 0.325 0.0094 0.325 0.0094 0.214 0.01704 0.43588-0.01384 0.64688-0.0328 0.215-0.03096 0.42931-0.07592 0.62031-0.13594 0.192-0.088 0.38393-0.17526 0.53593-0.28126 0.176-0.097 0.30607-0.21843 0.43907-0.32343 0.109-0.118 0.22125-0.23062 0.30625-0.34063 0.077-0.1 0.14319-0.21494 0.19219-0.31094 0.037-0.074 0.0561-0.13318 0.0891-0.19218 0.109 0.012 0.21538 0.01928 0.33438 0.03128 0.379 0.026 0.76118 0.09069 1.1422 0.05472 0.383-0.01896 0.78887 0.02016 1.1719-0.04688 0.387-0.05904 0.79869-0.08006 1.1797-0.16406 0.392-0.088 0.77975-0.17494 1.1688-0.26094 0.281-0.081 0.55556-0.17182 0.82656-0.25782-0.119 0.953-0.5358 2.1879-1.6828 3.2969-0.283 0.265-0.61694 0.53526-0.98594 0.78126-0.387 0.229-0.82231 0.43306-1.2953 0.61406-0.115 0.048-0.23726 0.08837-0.35626 0.13437-0.125 0.03504-0.25405 0.06464-0.38905 0.09063-0.262 0.05496-0.53488 0.10462-0.82188 0.14062-0.2775 0.048-0.56819 0.06464-0.86719 0.06248zm-139.8-20.275c-1.061 0.05-1.8122-0.83706-2.3422-1.8891-0.545-1.07-0.94694-2.3261-1.1609-3.3391-0.159-0.704-0.26387-1.3819-0.39687-2.0609-0.058-0.172-0.1145-0.34238-0.1625-0.50938-0.081 1.412-0.64944 2.8962-1.9734 3.0922-0.225 0.03296-0.44432 0.02768-0.64532 0.0048-0.679 0.064-1.3964-0.16175-1.8844-0.56875-0.244-0.203-0.41988-0.41194-0.49688-0.63594-0.105-0.217-0.13369-0.43975-0.10469-0.66875 0.033-0.452 0.26769-0.94831 0.55469-1.3953 0.105-0.153 0.22444-0.31512 0.34844-0.47813 0.12-0.172 0.2428-0.33387 0.3578-0.49687 0.248-0.344 0.47395-0.70269 0.63595-1.1047 0.502-1.2 0.19649-2.6631-0.48751-3.9531-0.062-0.125-0.1-0.24819-0.1-0.36719-0.536-0.631 0.12382-1.4202 0.80782-0.84218 1.434 1.181 2.8048 2.3763 4.2578 3.6953 1.243 1.157 2.5248 2.2847 3.5578 3.8297 0.162 0.245 0.32512 0.53506 0.47812 0.86406 0.153 0.342 0.31569 0.71494 0.42969 1.1109 0.249 0.796 0.40251 1.7004 0.38751 2.5484-0.014 0.421-0.0441 0.83657-0.13907 1.2016-0.096 0.371-0.21893 0.70912-0.38593 1.0031-0.349 0.569-0.86194 0.92538-1.5359 0.95938zm254.25-2.1156c-0.48762-0.03248-0.98062-0.19887-1.4531-0.48438-0.928-0.56-1.7008-1.6106-2.0078-2.6266-0.201-0.684-0.28144-1.4163-0.24844-2.1453-0.023-0.186-0.0322-0.37869-0.0422-0.57969-0.517 1.418-0.92356 3.1171-2.1266 3.7141-0.211 0.103-0.42224 0.15338-0.63124 0.15938-0.65 0.274-1.3957 0.1635-1.9797-0.5625-0.285-0.366-0.45938-0.83238-0.55938-1.3344-0.082-0.507-0.0766-1.062 0.009-1.6 0.182-1.085 0.67781-2.1156 1.2578-2.7656 0.199-0.23 0.42094-0.44056 0.63594-0.62656 0.23-0.187 0.46281-0.34957 0.68281-0.50157 0.459-0.321 0.937-0.594 1.4-0.9 1.381-0.932 2.5913-2.1605 3.8203-3.3125 0.123-0.11 0.25226-0.17762 0.38126-0.21562 0.61299-0.75 1.4257-0.16182 0.99374 0.61718-0.912 1.63-1.2785 3.4221-0.98749 5.0141 0.244 1.4 1.0168 2.5096 1.7828 3.4406 0.482 0.606 1.1071 1.4361 1.4141 2.1891 0.086 0.193 0.11506 0.38044 0.13906 0.57344 0.023 0.189 0.006 0.37394-0.0531 0.56094-0.123 0.373-0.41912 0.74006-1.0031 1.0641-0.454 0.2535-0.93737 0.35438-1.425 0.32187zm93.68-3.2766c-1.608-0.018-3.0066-0.4515-4.0906-1.0875-1.1-0.612-1.8802-1.4201-2.4312-2.1891-0.545-0.765-0.858-1.5281-1.05-2.1031 0.368 0.192 0.74925 0.403 1.1562 0.55 0.257 0.091 0.52612 0.20525 0.80312 0.28125 0.278 0.07704 0.55363 0.14962 0.84063 0.21562l0.87969 0.12969c0.297 0.03296 0.58831 0.04224 0.89531 0.05624 1.199 0.0048 2.4133-0.15237 3.5453-0.53437 0.282-0.09601 0.56894-0.18288 0.83594-0.29688 0.278-0.125 0.54532-0.23887 0.79532-0.37187 0.258-0.139 0.51605-0.26794 0.76405-0.41094 0.24-0.154 0.46826-0.317 0.70626-0.475 0.445-0.334 0.89169-0.66357 1.2547-1.0516 0.195-0.181 0.38749-0.36281 0.56249-0.55781 0.172-0.182 0.34607-0.369 0.48907-0.575 0.148-0.2 0.29875-0.39582 0.44375-0.58282 0.139-0.2 0.26225-0.40056 0.38125-0.60156 0.244-0.392 0.43544-0.80357 0.62344-1.1766 0.328-0.783 0.57787-1.5063 0.69687-2.1703 0.119-0.659 0.19687-1.2329 0.19687-1.7109s-0.039-0.84143-0.0641-1.0984c-0.033-0.24-0.0562-0.375-0.0562-0.375s-0.0527 0.11718-0.16874 0.31718c-0.099 0.216-0.28001 0.50638-0.47501 0.88438-0.221 0.363-0.48881 0.80731-0.83281 1.2953-0.154 0.249-0.36269 0.47794-0.55469 0.73594-0.215 0.249-0.41937 0.51613-0.65937 0.77813-0.496 0.512-1.0384 1.0474-1.6734 1.5344-0.316 0.24-0.64075 0.48806-0.99375 0.68906-0.188 0.11-0.35025 0.22838-0.53125 0.33438-0.196 0.096-0.37581 0.19119-0.55781 0.29219-0.191 0.091-0.39325 0.17687-0.58125 0.27187-0.195 0.086-0.40557 0.15369-0.60157 0.22969-0.195 0.076-0.40125 0.14356-0.60625 0.20156-0.209 0.05696-0.41 0.12294-0.625 0.16094-0.207 0.048-0.41712 0.097-0.62812 0.125-0.211 0.02896-0.41963 0.05696-0.64063 0.08594-0.419 0.038-0.84056 0.04832-1.2516 0.02032-0.832-0.01904-1.6342-0.19325-2.3672-0.43125-0.271-0.115-0.52969-0.206-0.77969-0.325 0.68-1.08 1.4068-2.3701 1.9328-3.4891 0.287-0.554 0.51569-1.0849 0.77969-1.4969 0.273-0.406 0.55781-0.74037 0.98281-0.98438 0.344-0.205 0.77056-0.34356 1.3016-0.50156 0.525-0.152 1.1331-0.33506 1.8031-0.56406 0.658-0.221 1.3843-0.49594 2.1203-0.83594 0.736-0.339 1.4601-0.74656 2.1531-1.2016 1.405-0.898 2.599-2.0404 3.4109-3.0094 0.383-0.484 0.70501-0.90806 0.9-1.2141 0.20501-0.317 0.31875-0.48438 0.31875-0.48438s0.129 0.15906 0.35 0.46406c0.234 0.311 0.53025 0.77525 0.85626 1.4062 0.64499 1.252 1.3372 3.2116 1.4562 5.6156 0.069 1.2 0.0005 2.5001-0.2375 3.8141-0.244 1.315-0.66112 2.6624-1.2531 3.9344-0.594 1.271-1.3666 2.4805-2.2906 3.5375-0.92599 1.052-1.998 1.9352-3.125 2.5812-1.707 0.979-3.5144 1.3861-5.1094 1.3641zm-448.32-0.0064c-0.327 0.0086-0.6635 0.0016-1.0062-0.02344-1.372-0.104-2.8337-0.52838-4.2297-1.3344-1.128-0.646-2.2036-1.5292-3.1266-2.5812-0.927-1.057-1.6918-2.2665-2.2938-3.5375-0.593-1.272-1.0091-2.6194-1.2531-3.9344-0.239-1.314-0.31106-2.6141-0.23906-3.8141 0.115-2.404 0.81812-4.3636 1.4531-5.6156 0.335-0.631 0.62694-1.0952 0.86094-1.4062 0.224-0.305 0.34375-0.46406 0.34375-0.46406s0.12 0.16738 0.325 0.48438c0.191 0.306 0.51581 0.73006 0.90781 1.2141 0.808 0.969 1.9987 2.1114 3.4047 3.0094 0.688 0.455 1.423 0.86256 2.15 1.2016 0.736 0.339 1.4619 0.61494 2.1219 0.83594 0.669 0.229 1.2818 0.41206 1.8078 0.56406 0.526 0.158 0.956 0.29656 1.3 0.50156 0.516 0.29201 0.83119 0.71719 1.1422 1.2672 0.315 0.564 0.62106 1.2524 0.98906 1.9594 0.717 1.443 1.7119 2.9726 2.3719 3.9766-0.344-0.1-0.67906-0.16287-1.0141-0.27187-0.215-0.06296-0.42025-0.11988-0.63125-0.19688-0.21-0.06704-0.41094-0.14238-0.61094-0.20937l-0.59375-0.22501c-0.201-0.07096-0.39181-0.16774-0.58281-0.24374-0.756-0.326-1.4673-0.69857-2.1703-1.0516-0.171-0.096-0.34325-0.18131-0.50625-0.29531-0.172-0.092-0.34919-0.16843-0.51719-0.27343-0.162-0.1-0.32388-0.19688-0.49688-0.29688-0.157-0.101-0.32388-0.19181-0.49688-0.28281-0.324-0.2-0.64062-0.39619-0.96562-0.59219-0.163-0.086-0.31475-0.19031-0.46875-0.29531-0.153-0.106-0.32288-0.1875-0.47188-0.2875-0.153-0.101-0.31038-0.19662-0.45938-0.29062-0.148-0.101-0.292-0.20619-0.45-0.29219-0.311-0.182-0.588-0.38243-0.875-0.57343-0.564-0.36301-1.0986-0.72626-1.5766-1.0563-0.497-0.316-0.90425-0.63569-1.2813-0.87969-0.363-0.243-0.66837-0.44443-0.85937-0.59843-0.202-0.142-0.31563-0.22031-0.31563-0.22031s0.04275 0.11631 0.11875 0.34531c0.077 0.22 0.2055 0.54081 0.3875 0.93281 0.181 0.388 0.4115 0.85425 0.7125 1.3812 0.148 0.258 0.32394 0.5205 0.48594 0.8125 0.177 0.287 0.39744 0.55894 0.59844 0.86094 0.42 0.602 0.91787 1.2224 1.4719 1.8484 0.287 0.302 0.56906 0.62581 0.88906 0.93281 0.163 0.152 0.32206 0.31538 0.48906 0.45938 0.177 0.157 0.34394 0.30575 0.51094 0.46875 0.182 0.153 0.368 0.29506 0.55 0.43906 0.182 0.157 0.37306 0.29606 0.56406 0.43906 0.191 0.149 0.39556 0.28887 0.60156 0.42187 0.201 0.139 0.40188 0.28594 0.62188 0.41094l0.65312 0.38125c0.225 0.124 0.44569 0.24975 0.67969 0.36875 0.469 0.215 0.93206 0.45831 1.4391 0.64531 0.994 0.373 2.0462 0.69706 3.1312 0.88906 0.406 0.05704 0.80806 0.1325 1.2141 0.1625-0.679 1.214-1.9746 2.6719-4.1156 3.4359-0.80325 0.294-1.7081 0.46778-2.6891 0.49374zm112.39-1.0141c-0.66-0.02104-1.3202-0.10031-1.9172-0.27031-0.292-0.07496-0.58231-0.16082-0.84531-0.25782-0.258-0.106-0.50156-0.22206-0.72656-0.33906-0.631-0.33-1.142-0.72962-1.625-1.1406-0.478-0.402-0.91869-0.84181-1.4297-1.2328-1.51-1.224-3.4563-2.2046-5.4063-3.1656-0.191-0.086-0.32905-0.20943-0.43905-0.32343-1.176-0.421-0.95632-1.4148 0.20468-1.1578 2.443 0.536 4.8321 0.60294 6.9641 0.11094 1.845-0.436 3.2929-1.3067 4.6219-2.2047 0.416-0.273 0.95156-0.61994 1.5016-0.93594 0.273-0.177 0.55982-0.32512 0.83282-0.47812 0.272-0.167 0.55856-0.29562 0.82656-0.41562 0.258-0.129 0.52549-0.2255 0.78749-0.2875 0.259-0.081 0.51731-0.11 0.77031-0.1 0.497 0.01 0.98513 0.20113 1.4531 0.70313 0.727 0.77 0.68831 1.8589 0.0203 2.9969-0.66 1.113-2.0031 2.1217-3.3281 2.6047-0.45899 0.158-0.91662 0.3015-1.3906 0.3875-0.234 0.04304-0.4735 0.08513-0.7125 0.12813-0.239 0.03304-0.48756 0.05384-0.72656 0.07184-0.249 0.03904-0.49725 0.09063-0.75625 0.11563 1.955 0.343 4.236 0.45343 5.125 1.5234 0.154 0.196 0.23475 0.39744 0.26875 0.59844 0.41 0.597 0.33375 1.3674-0.53125 2.0844-0.43 0.335-0.97988 0.59318-1.5969 0.76718-0.607 0.141-1.2863 0.24319-1.9453 0.21719zm219.59-0.69375c-0.545-0.026-1.1028-0.06216-1.6438-0.15313-0.545-0.107-1.061-0.23769-1.539-0.40469-0.467-0.192-0.89951-0.41225-1.2625-0.65625-0.707-0.511-1.1234-1.152-1.1234-1.85 0.02-1.113 1.2197-1.5864 2.6297-1.8344 1.43-0.254 3.1211-0.39231 4.5141-0.42031 0.476-0.01896 0.9442-0.01136 1.4172-0.0344 0.234-0.0048 0.469-0.0048 0.7-0.0048l0.70624-0.02816c0.244-0.02896 0.48769-0.05392 0.72969-0.09688-1.902-0.238-3.8668-1.0849-4.0188-2.4609-0.03-0.234-0.009-0.44531 0.05-0.64531-0.036-0.699 0.33344-1.3668 0.97344-1.7578 0.33-0.216 0.67381-0.33513 1.0328-0.37813 0.364-0.072 0.72706-0.02592 1.1141 0.01408 0.377 0.04704 0.76919 0.16756 1.1422 0.27656 0.192 0.062 0.37268 0.13462 0.55468 0.21562 0.172 0.07104 0.34426 0.14738 0.50626 0.23438 0.238 0.119 0.45881 0.26356 0.68281 0.40156 0.225 0.134 0.43593 0.26694 0.66093 0.41094 0.439 0.295 0.89138 0.54506 1.4094 0.76406 1.562 0.646 3.6239 0.556 5.6219 0.125 0.201-0.04304 0.373-0.0484 0.525-0.02344 1.1-0.421 1.6351 0.45818 0.57812 1.0172-2.203 1.191-4.259 2.3517-6.325 3.5797-1.801 1.062-3.421 2.1792-5.475 2.9922-0.631 0.27-1.5321 0.494-2.5531 0.62499-0.508 0.05-1.0568 0.10119-1.6078 0.09219z" fill="#fff"/></g></svg>
