<?xml version="1.0" encoding="UTF-8" standalone="no"?>
<!-- Created with Inkscape (http://www.inkscape.org/) -->

<svg
   xmlns:dc="http://purl.org/dc/elements/1.1/"
   xmlns:cc="http://creativecommons.org/ns#"
   xmlns:rdf="http://www.w3.org/1999/02/22-rdf-syntax-ns#"
   xmlns:svg="http://www.w3.org/2000/svg"
   xmlns="http://www.w3.org/2000/svg"
   xmlns:sodipodi="http://sodipodi.sourceforge.net/DTD/sodipodi-0.dtd"
   xmlns:inkscape="http://www.inkscape.org/namespaces/inkscape"
   id="svg2"
   version="1.1"
   inkscape:version="0.91 r13725"
   xml:space="preserve"
   width="625"
   height="165"
   viewBox="0 0 625 165"
   sodipodi:docname="fondo.svg"><metadata
     id="metadata8"><rdf:RDF><cc:Work
         rdf:about=""><dc:format>image/svg+xml</dc:format><dc:type
           rdf:resource="http://purl.org/dc/dcmitype/StillImage" /><dc:title></dc:title></cc:Work></rdf:RDF></metadata><defs
     id="defs6"><clipPath
       clipPathUnits="userSpaceOnUse"
       id="clipPath18"><path
         d="M 0,350 500,350 500,0 0,0 0,350 Z"
         id="path20"
         inkscape:connector-curvature="0" /></clipPath></defs><sodipodi:namedview
     pagecolor="#ffffff"
     bordercolor="#666666"
     borderopacity="1"
     objecttolerance="10"
     gridtolerance="10"
     guidetolerance="10"
     inkscape:pageopacity="0"
     inkscape:pageshadow="2"
     inkscape:window-width="1366"
     inkscape:window-height="718"
     id="namedview4"
     showgrid="false"
     inkscape:zoom="0.53942857"
     inkscape:cx="161.41419"
     inkscape:cy="218.75"
     inkscape:window-x="0"
     inkscape:window-y="24"
     inkscape:window-maximized="1"
     inkscape:current-layer="g10" /><g
     id="g10"
     inkscape:groupmode="layer"
     inkscape:label="009"
     transform="matrix(1.25,0,0,-1.25,0,165)"><path
       style="fill:#2e0025;fill-opacity:0.18716578;fill-rule:nonzero;stroke:none"
       d="m 232.72187,131.12047 c 0,0 0.0766,-0.20831 0.19063,-0.59531 0.134,-0.373 0.29237,-0.93225 0.45937,-1.60625 0.326,-1.367 0.60231,-3.23081 0.62031,-5.30781 0.111,-4.128 -0.67768,-9.15156 -0.30468,-13.27657 0.181,-2.05 0.66037,-3.82687 1.30937,-5.29687 0.641,-1.47 1.45351,-2.635 2.23751,-3.5 0.784,-0.861 1.54949,-1.43131 2.11249,-1.770314 0.569,-0.339 0.92657,-0.471872 0.92657,-0.471872 0,0 0.27831,0.268688 0.67031,0.779686 0.401,0.519 0.92181,1.2625 1.43281,2.2375 1.013,1.958 2.03644,4.75493 1.67344,8.96093 -0.191,2.101 -0.74538,4.56082 -1.63438,7.05782 -0.439,1.236 -0.95644,2.48544 -1.54844,3.67344 -0.593,1.185 -1.26262,2.32294 -1.96562,3.33594 -1.396,2.046 -2.98281,3.57368 -4.18281,4.47968 -0.602,0.457 -1.09393,0.78607 -1.46093,0.98907 -0.345,0.199 -0.53595,0.31093 -0.53595,0.31093 z m 34.55938,0 c 0,0 -0.18738,-0.11194 -0.53438,-0.31093 -0.363,-0.20301 -0.86205,-0.53207 -1.46405,-0.98907 -1.195,-0.906 -2.78113,-2.43368 -4.17813,-4.47968 -0.703,-1.013 -1.37094,-2.15094 -1.96094,-3.33594 -0.595,-1.188 -1.11569,-2.43744 -1.55469,-3.67344 -0.881,-2.497 -1.436,-4.95682 -1.625,-7.05782 -0.37,-4.206 0.65694,-7.00293 1.66094,-8.96093 0.517,-0.975 1.04306,-1.7185 1.43906,-2.2375 0.397,-0.510998 0.67032,-0.779686 0.67032,-0.779686 0,0 0.35387,0.132872 0.92187,0.471872 0.568,0.339004 1.32819,0.909314 2.11719,1.770314 0.789,0.865 1.5965,2.03 2.2375,3.5 0.65,1.47 1.12368,3.24687 1.30468,5.29687 0.371,4.12501 -0.41056,9.14857 -0.30156,13.27657 0.026,2.077 0.29219,3.94081 0.61719,5.30781 0.171,0.674 0.32437,1.23325 0.45937,1.60625 0.125,0.387 0.19063,0.59531 0.19063,0.59531 z m 123.85625,-6.35156 c -0.0967,8e-4 -0.19212,-0.006 -0.28437,-0.0203 -0.588,-0.096 -0.85895,-0.53456 -0.93595,-1.15156 -0.033,-0.311 -0.0186,-0.66132 0.0203,-1.04532 0.027,-0.397 0.10906,-0.81237 0.18906,-1.25937 0.164,-0.894 0.373,-1.87625 0.575,-2.85625 0.191,-0.989 0.35319,-1.97869 0.49219,-2.87969 0.191,-1.233 0.3265,-2.462 0.3875,-3.7 0,-0.317 -0.009,-0.64062 -0.039,-0.96562 -0.191,1.233 -0.5835,2.50318 -1.1375,3.44218 -0.572,0.933 -1.26175,1.53588 -1.96875,1.57188 -0.248,0.01 -0.46018,-0.0402 -0.64218,-0.13125 -0.353,-0.011 -0.67576,-0.15219 -0.94376,-0.39219 -0.26,-0.238 -0.45475,-0.57075 -0.59375,-0.99375 -0.267,-0.841 -0.19569,-1.74444 -0.005,-2.69844 0.196,-0.949 0.50263,-1.95831 0.84063,-2.77031 0.479,-1.167 1.10968,-2.156 1.42968,-3.475 0.478,-1.984 0.0334,-4.62169 -1.06562,-7.00469 -0.1,-0.242 -0.1645,-0.453936 -0.1875,-0.635936 -0.412,-0.65 -0.45819,-1.137312 -0.26719,-1.345312 0.182,-0.203 0.62138,-0.09994 1.10938,0.514064 2.035,2.586 3.66044,5.281504 5.12344,8.037504 1.244,2.40599 2.38118,4.64006 2.99218,7.43906 0.182,0.872 0.31626,2.09631 0.23126,3.47031 -0.077,1.377 -0.38807,2.90275 -0.93907,4.29375 -0.555,1.386 -1.32681,2.62406 -2.18281,3.43906 -0.425,0.406 -0.86612,0.71682 -1.27812,0.90782 -0.32251,0.13425 -0.63031,0.20661 -0.92031,0.20937 z m -257.36875,-4.42344 c -1.98103,0.009 -4.12525,-0.36325 -6.19375,-1.28125 -2.763,-1.207 -5.267,-3.40194 -7.05,-6.13594 -1.821,-2.735 -2.95394,-5.96006 -3.46094,-9.23906 -0.521,-3.291 -0.38756,-6.643682 0.24844,-9.779682 0.325,-1.565008 0.76037,-3.083504 1.30937,-4.512504 0.55,-1.432 1.19107,-2.781376 1.88907,-4.034376 0.37596,-0.646504 0.76556,-1.264512 1.16719,-1.859376 -0.69339,0.567568 -1.43031,1.156624 -2.21407,1.765624 -3.145,2.43 -7.04588,5.186 -12.02188,7.875 -2.495,1.317 -5.26293,2.599632 -8.235932,3.665632 -2.973,1.07 -6.160936,1.915992 -9.435936,2.374992 -3.269,0.461 -6.625496,0.502 -9.837499,0.1 -3.203,-0.397 -6.262875,-1.236872 -8.996875,-2.321872 -0.344,-0.141 -0.6785,-0.284752 -1.0125,-0.418752 -0.34,-0.136 -0.669063,-0.272936 -0.989063,-0.435936 -0.636,-0.317 -1.267688,-0.628376 -1.879688,-0.934376 -0.611,-0.303 -1.174437,-0.667936 -1.748437,-0.985936 -0.559,-0.332 -1.119,-0.64156 -1.625,-1.00156 -1.023,-0.701 -2.018063,-1.330312 -2.864063,-2.020312 -0.856,-0.669 -1.672249,-1.261936 -2.356249,-1.885936 -0.679,-0.609 -1.305313,-1.14588 -1.845313,-1.62188 -0.516,-0.509 -0.966687,-0.944312 -1.329687,-1.295312 -0.717,-0.705 -1.107813,-1.090624 -1.107813,-1.090624 0,0 0.421313,0.354376 1.195313,1.009376 0.383,0.325 0.850312,0.726184 1.395312,1.192184 0.574,0.435 1.228,0.935192 1.95,1.492192 0.708,0.569 1.562875,1.105936 2.446875,1.710936 0.88,0.626 1.893625,1.179128 2.940625,1.803128 0.521,0.326 1.084125,0.596936 1.653125,0.885936 0.579,0.28 1.147375,0.597184 1.759375,0.867184 0.617,0.258 1.248375,0.519504 1.884375,0.787504 0.315,0.144 0.64,0.257184 0.975,0.367184 0.334,0.119 0.668125,0.233312 1.003125,0.345312 2.71,0.904 5.663812,1.554248 8.732814,1.781248 3.068,0.234 6.234184,0.05512 9.317184,-0.496872 6.19,-1.098 11.969192,-3.62856 16.792192,-6.17656 4.809,-2.6 8.719,-5.14744 11.95,-7.34844 3.232,-2.201 5.79794,-4.044248 7.81094,-5.481248 1.51121,-1.070664 2.4169,-1.701768 3.32968,-2.337504 -0.82333,0.244608 -1.63816,0.484824 -2.47031,0.732816 -3.327,0.963 -6.705,1.945 -10.2,2.825 -3.479,0.877 -7.05057,1.679064 -10.72657,2.214064 -1.835,0.285 -3.69943,0.477936 -5.57343,0.635936 -1.891998,0.122 -3.777062,0.214064 -5.689062,0.164064 -3.814,-0.04104 -7.66644,-0.514624 -11.42344,-1.415624 -0.469,-0.098 -0.932,-0.236632 -1.4,-0.365632 L 80.439064,80.076722 79.0625,79.620474 c -0.459,-0.145 -0.912875,-0.303504 -1.371875,-0.487504 -1.836,-0.679 -3.618687,-1.492312 -5.329687,-2.445312 -6.855,-3.795 -12.447625,-9.552808 -16.290625,-16.182808 -1.922,-3.324 -3.449563,-6.854752 -4.501563,-10.518752 -1.061,-3.656 -1.655188,-7.447312 -1.717188,-11.245312 -0.04752,-2.226528 0.109833,-4.4586 0.464063,-6.657816 -0.188883,0.855224 -0.418582,1.65532 -0.6875,2.384376 -1.148,3.146 -2.860125,5.106248 -3.978125,6.081248 0.162,-0.698 0.305,-1.42456 0.425,-2.15156 0.139,-0.951 0.263938,-1.916312 0.335938,-2.895312 0.028,-0.489 0.05131,-0.976752 0.07031,-1.468752 0.019,-0.502 0.03,-0.988248 0.025,-1.481248 -0.024,-1.979 -0.148688,-3.973064 -0.454688,-5.914064 -0.077,-0.488 -0.162062,-0.975128 -0.239062,-1.453128 -0.086,-0.483 -0.19125,-0.959808 -0.30625,-1.432808 -0.105,-0.468 -0.199125,-0.942248 -0.328125,-1.406248 -0.13,-0.459 -0.258875,-0.91788 -0.396875,-1.37188 -0.287,-0.898 -0.56475,-1.788 -0.91875,-2.625 -0.325,-0.85 -0.687625,-1.667872 -1.065625,-2.446872 -0.416,-0.765 -0.760375,-1.528184 -1.209375,-2.217192 -0.22,-0.348 -0.429938,-0.679056 -0.635938,-1.014056 -0.225,-0.326 -0.444375,-0.639688 -0.659375,-0.954688 -0.425,-0.602 -0.914062,-1.15244 -1.339062,-1.67344 -0.445,-0.5160001 -0.911812,-0.9749361 -1.332812,-1.3859361 -0.454,-0.406 -0.879875,-0.765624 -1.271875,-1.090624 -0.411,-0.315 -0.793876,-0.578128 -1.146876,-0.803128 -0.335,-0.238 -0.683249,-0.396128 -0.956249,-0.55312 -0.286,-0.144008 -0.526188,-0.264064 -0.717188,-0.364064 -0.402,-0.172 -0.621875,-0.243752 -0.621875,-0.243752 0,0 0.191625,0.153128 0.515625,0.453128 0.153,0.162 0.349687,0.364744 0.579687,0.593744 0.11,0.114 0.233813,0.238192 0.357813,0.367192 0.129,0.129 0.248812,0.291936 0.382812,0.435936 0.544,0.612 1.147126,1.398872 1.778126,2.346872 0.296,0.4720001 0.636187,0.9696881 0.917187,1.5296881 0.154,0.282 0.315438,0.549312 0.473438,0.845312 0.158,0.287 0.302312,0.59244 0.445312,0.89844 0.598,1.233 1.14575,2.604496 1.64375,4.062496 0.239,0.747008 0.488062,1.492256 0.689062,2.281256 0.1,0.386 0.219063,0.778688 0.314063,1.179688 0.091,0.402 0.182437,0.809312 0.273437,1.220312 0.095,0.397 0.162125,0.815808 0.253125,1.232808 0.082,0.416 0.163313,0.835256 0.220313,1.256256 0.067,0.421 0.133313,0.850872 0.195313,1.271872 0.053,0.43 0.100812,0.866184 0.157812,1.292184 0.105,0.87 0.167688,1.732816 0.229688,2.607816 0.067,0.88 0.06694,1.750688 0.08594,2.629688 0.034,1.74 -0.04738,3.480496 -0.209375,5.162496 -0.057,0.621 -0.14425,1.224 -0.23125,1.825 -1.137,-1.247 -2.504,-2.953312 -3.775,-5.195312 -1.272,-2.232 -2.438063,-4.999936 -3.289063,-8.435936 -0.354,-1.377 -0.648687,-2.86844 -0.954687,-4.39844 -0.316,-1.524 -0.627937,-3.096936 -0.985937,-4.635936 -0.727,-3.092 -1.664188,-6.012688 -3.117188,-8.2546881 -0.716,-1.133 -1.595625,-2.031808 -2.590625,-2.757808 -0.133,-0.086 -0.256563,-0.182752 -0.376563,-0.268752 -0.129,-0.086 -0.2535,-0.177064 -0.3875,-0.239064 -0.273,-0.144 -0.531375,-0.276936 -0.784375,-0.410936 -0.258,-0.153 -0.525437,-0.225 -0.773437,-0.325 -0.268,-0.095 -0.521625,-0.19556 -0.765625,-0.27656 -0.497,-0.143 -0.965625,-0.239624 -1.390625,-0.340624 -0.206,-0.052 -0.4055,-0.07632 -0.5875,-0.095312 -0.182,-0.024 -0.350125,-0.04248 -0.503125,-0.06248 -0.626,-0.076 -0.960937,-0.114064 -0.960937,-0.114064 0,0 0.287124,-0.191064 0.803124,-0.539064 0.143,-0.081 0.296376,-0.187496 0.459376,-0.287496 0.163,-0.11 0.348687,-0.225872 0.554687,-0.32188 0.42,-0.2 0.907875,-0.43912 1.471875,-0.67812 0.291,-0.096 0.60275,-0.191312 0.91875,-0.295312 0.324,-0.096 0.678188,-0.230128 1.042188,-0.278128 0.372,-0.062 0.758,-0.123624 1.175,-0.190624 0.2,-0.038 0.417249,-0.04816 0.631249,-0.05312 0.211,-0.0048 0.434375,-0.01376 0.659375,-0.01872 1.773,-0.034 3.891751,0.311248 5.918751,1.181248 2.036,0.846 4.004687,2.123184 5.754687,3.642184 1.749,1.521 3.311875,3.260256 4.621875,5.0812561 1.319,1.82 2.4185,3.723624 3.3125,5.615624 0.879,1.879 1.539438,3.747496 1.998438,5.512496 0.669,2.672 0.840812,5.099312 0.707812,7.245312 -0.03692,0.58444 -0.09906,1.144392 -0.176563,1.687504 0.212974,-1.039872 0.46751,-2.071568 0.773438,-3.087504 1.095,-3.638 2.871938,-7.070432 5.185938,-10.048432 2.313,-2.992 5.172437,-5.507192 8.298437,-7.4671921 1.558,-0.979 3.182875,-1.834312 4.846875,-2.545312 1.663,-0.713 3.365563,-1.339184 5.076563,-1.817184 0.841,-0.264 1.720562,-0.445312 2.576562,-0.670312 0.865,-0.162 1.724938,-0.33888 2.585938,-0.47188 0.860003,-0.125 1.711251,-0.282688 2.581251,-0.354688 0.435,-0.038 0.87,-0.08512 1.3,-0.12812 0.43,-0.018 0.869688,-0.04448 1.304688,-0.06248 0.865,-0.06304 1.745624,-0.02936 2.615624,-0.0344 0.439,0.01496 0.879064,0.04872 1.314064,0.06872 l 0.654688,0.04216 0.65,0.0672 c 1.75,0.153 3.47956,0.515376 5.17656,0.984376 1.706,0.449 3.341376,1.128872 4.909372,1.921872 1.568,0.793 3.0445,1.754376 4.3875,2.859376 1.329,1.0990001 2.54275,2.3316241 3.59375,3.6406241 1.062,1.315 1.94113,2.724752 2.67813,4.168752 0.4245,0.832848 0.79611,1.678968 1.125,2.531248 0.7236,0.683552 1.46848,1.375968 2.25469,2.067192 1.822,1.596 3.86331,3.17256 6.19531,4.20156 1.181,0.506 2.39381,0.865688 3.73281,1.004688 1.338,0.167 2.66719,0.223184 3.96719,0.04216 1.3,-0.207 2.56169,-0.624936 3.67969,-1.285936 1.119,-0.654 2.10412,-1.543936 2.87812,-2.585936 0.779,-1.046 1.34913,-2.232624 1.70313,-3.465624 0.334,-1.229 0.46787,-2.49944 0.39687,-3.72344 -0.072,-1.229 -0.33094,-2.409688 -0.76094,-3.479688 -0.449,-1.071 -1.03318,-2.017064 -1.71718,-2.839064 -1.395,-1.5960001 -3.10095,-2.5900001 -4.61095,-3.1500001 -0.187,-0.072 -0.36924,-0.137936 -0.55624,-0.210936 -0.182,-0.05096 -0.36238,-0.100432 -0.53438,-0.148432 -0.354,-0.086008 -0.67874,-0.199816 -0.99374,-0.257816 -0.321,-0.052 -0.60738,-0.105128 -0.88438,-0.153128 -0.272,-0.048 -0.51719,-0.094688 -0.74219,-0.104688 -0.898,-0.076 -1.38594,-0.114056 -1.38594,-0.114056 0,0 0.48887,-8e-4 1.39687,0.008 0.225,-0.00896 0.47769,0.01976 0.75469,0.04376 0.272,0.024 0.57744,0.05248 0.89844,0.087496 0.325,0.03296 0.65913,0.117688 1.02813,0.179688 0.181,0.038 0.37774,0.07296 0.56874,0.110944 0.187,0.05696 0.38244,0.114872 0.57344,0.171872 1.596,0.468 3.46132,1.361496 5.09532,2.987496 0.794,0.8260001 1.511,1.8158161 2.075,2.9578161 0.554,1.138 0.92675,2.433872 1.09375,3.796872 0.163,1.357 0.10631,2.790624 -0.20469,4.215624 -0.316,1.424 -0.88994,2.830568 -1.73594,4.101568 -0.841,1.272 -1.95444,2.402744 -3.27344,3.268752 -1.32,0.86 -2.82131,1.444 -4.37031,1.75 -1.548,0.286992 -3.10713,0.276184 -4.60313,0.142184 -1.501,-0.105 -3.04431,-0.49656 -4.42031,-1.05156 -2.42265,-0.994496 -4.43346,-2.433104 -6.18281,-3.895312 0.10431,0.560384 0.19706,1.120144 0.26563,1.67812 0.373,2.954 0.22849,5.850568 -0.28751,8.55156 -0.545,2.71 -1.46793,5.247944 -2.81093,7.460944 -0.67,1.104 -1.42375,2.135744 -2.29375,3.043744 -0.86,0.908 -1.80732,1.697752 -2.82032,2.343752 -1.013,0.647 -2.10336,1.117192 -3.18436,1.442192 -0.535,0.172 -1.094,0.250056 -1.625,0.364056 -0.54,0.048 -1.061508,0.12888 -1.587508,0.12188 -1.042,0.04 -2.031064,-0.101064 -2.964064,-0.264064 -0.463,-0.113 -0.91656,-0.203064 -1.35156,-0.339064 -0.425,-0.149 -0.859248,-0.26156 -1.256248,-0.42656 -1.616,-0.621 -2.993192,-1.385688 -4.192192,-2.179688 -1.21,-0.784 -2.222744,-1.625688 -3.068752,-2.404688 -1.716,-1.551 -2.959432,-2.800496 -3.848432,-3.612504 -0.44,-0.402 -0.793504,-0.702808 -1.012504,-0.907808 -0.239,-0.202 -0.354688,-0.306248 -0.354688,-0.306248 0,0 0.497752,0.382744 1.443752,1.118744 0.956,0.727 2.327816,1.872192 4.182816,3.192192 0.932,0.665 1.993184,1.34356 3.217184,1.92656 1.233,0.595 2.62844,1.116128 4.14844,1.453128 0.378,0.103 0.773624,0.135688 1.165624,0.204688 0.392,0.06304 0.794,0.07464 1.2,0.115624 0.808,0.0072 1.630752,-0.0072 2.443752,-0.175 0.42,-0.05 0.811744,-0.190752 1.21874,-0.293752 0.392,-0.152 0.78832,-0.276688 1.17032,-0.479688 0.756,-0.366 1.49219,-0.834808 2.14219,-1.432808 1.319,-1.176 2.38987,-2.759816 3.12187,-4.607816 0.75,-1.836 1.16538,-3.924064 1.28438,-6.089064 0.216,-4.345 -0.8115,-9.100936 -3.2875,-13.110936 -2.419,-4.039 -6.310568,-7.166248 -11.301568,-8.781248 -1.256,-0.396 -2.55712,-0.745936 -3.92812,-0.960936 l -0.506256,-0.08594 -0.517184,-0.07184 c -0.354,-0.03904 -0.69856,-0.08669 -1.05156,-0.129688 -0.708,-0.04296 -1.415192,-0.133184 -2.142192,-0.142184 -0.368,-0.009 -0.734744,-0.02528 -1.093744,-0.04528 -0.368,0.01 -0.731376,0.01032 -1.109376,0.02032 -0.736,-0.02 -1.482192,0.05824 -2.242192,0.08125 -0.754998,0.04304 -1.499686,0.138312 -2.254686,0.195312 -0.736,0.124 -1.4925,0.192688 -2.2375,0.354688 -1.501,0.258 -2.983312,0.65044 -4.445312,1.12344 -1.463,0.464 -2.883312,1.070184 -4.245312,1.792184 -2.734,1.433 -5.244188,3.384816 -7.242188,5.832816 -2.022,2.437 -3.522875,5.338624 -4.521875,8.440624 -0.999,3.107 -1.448,6.449064 -1.425,9.814064 0.063,6.747 2.069875,13.606248 5.621875,19.531248 3.518,5.951 8.695,10.937184 14.775,14.017184 1.52,0.767 3.093688,1.409504 4.704688,1.937504 0.397,0.136 0.812126,0.255624 1.228126,0.365624 l 1.237496,0.35156 1.262504,0.284376 c 0.411,0.095 0.83212,0.197064 1.25312,0.264064 3.36,0.638 6.776064,0.902872 10.189064,0.771872 1.702,-0.04104 3.409936,-0.217312 5.110936,-0.420312 1.696996,-0.222 3.380196,-0.485808 5.067196,-0.832808 2.54202,-0.51128 5.06061,-1.153296 7.56249,-1.859376 -2.18698,0.361256 -4.53737,0.692984 -7.06562,0.929688 -3.427,0.304 -7.17381,0.44456 -11.23281,0.20156 -1.018,-0.04104 -2.042064,-0.156752 -3.089064,-0.268752 -1.037,-0.096 -2.130936,-0.248312 -3.210936,-0.470312 -2.16,-0.442 -4.335128,-1.111752 -6.453128,-1.993752 -4.229999,-1.788 -8.260999,-4.421496 -11.649999,-7.762496 -3.374,-3.344 -6.127313,-7.43644 -7.570313,-11.89844 -0.727,-2.222 -1.157375,-4.51912 -1.234375,-6.77812 0,-0.566 -0.023,-1.128376 0,-1.684376 0.043,-0.557 0.04831,-1.115936 0.120313,-1.660936 0.129,-1.089 0.2915,-2.17988 0.5875,-3.22188 0.306,-1.032 0.674749,-2.030432 1.118749,-2.973432 0.469,-0.927 0.974063,-1.816688 1.539063,-2.629688 1.156,-1.63 2.496312,-3.010064 3.920312,-4.114064 1.415,-1.114 2.939563,-1.927936 4.401563,-2.510936 1.478,-0.583 2.921,-0.878128 4.25,-1.003128 1.319,-0.119 2.51425,-0.0376 3.556251,0.134376 1.023,0.168 1.878808,0.439808 2.557808,0.682808 0.674,0.262 1.189064,0.491816 1.514064,0.682816 0.334,0.172 0.517192,0.264064 0.517192,0.264064 0,0 -0.182568,-0.08206 -0.526568,-0.239064 -0.339,-0.168 -0.860056,-0.366872 -1.539056,-0.596872 -0.688,-0.211 -1.544192,-0.439944 -2.567192,-0.560944 -1.017999,-0.114 -2.193999,-0.137248 -3.474999,0.04376 -1.271,0.172 -2.667125,0.52744 -4.053125,1.14844 -1.391,0.631 -2.810625,1.467312 -4.115625,2.595312 -2.624,2.213 -4.917937,5.49156 -5.835937,9.40156 -0.239,0.975 -0.344688,1.978312 -0.429688,3.020312 -0.048,0.514 -0.02882,1.041376 -0.05782,1.559376 0,0.528 0.03781,1.04856 0.05782,1.57656 0.152,2.111 0.621188,4.236256 1.367188,6.281256 1.491,4.109 4.176187,7.842688 7.417187,10.904688 3.27,3.047 7.103875,5.436936 11.071879,7.035936 1.987992,0.791 4.004808,1.383184 6.007808,1.767184 0.999,0.204 1.973872,0.32688 2.996872,0.42188 0.999,0.098 1.993752,0.214 2.968752,0.25 3.896,0.237 7.528624,0.135936 10.865624,-0.08906 3.336,-0.236 6.3895,-0.622816 9.1625,-1.007816 5.42427,-0.794576 9.7706,-1.629008 13.21407,-2.27812 2.29861,-0.764896 4.59792,-1.522392 6.90937,-2.235944 1.63,-0.502 3.27444,-0.973248 4.92344,-1.431248 0.827,-0.213 1.64524,-0.448752 2.48124,-0.643752 0.813,-0.199 1.6242,-0.400872 2.4422,-0.596872 3.159,-0.767 6.27662,-1.529752 9.34062,-2.268752 3.035,-0.753 6.10887,-1.436432 9.09687,-2.123432 1.496,-0.334 2.973,-0.668128 4.45,-1.003128 0.731,-0.162 1.45707,-0.329184 2.18907,-0.492184 0.731,-0.167 1.44737,-0.324632 2.15937,-0.465632 5.712,-1.173 11.34451,-2.29912 16.91251,-2.92812 5.564,-0.621 11.09449,-0.773064 16.43749,0.03592 2.664,0.406 5.27813,1.030128 7.75313,1.953128 2.477,0.913 4.81981,2.109248 6.93281,3.531248 0.268,0.182 0.52537,0.358936 0.78437,0.535936 0.258,0.184 0.50076,0.38744 0.74376,0.57344 0.0897,0.06752 0.17243,0.133432 0.25937,0.2 0.64613,-0.04224 1.30843,-0.136744 1.97812,-0.312504 1.196,-0.299 2.40575,-0.887312 3.51875,-1.795312 1.099,-0.918 2.0852,-2.180936 2.7922,-3.685936 0.698,-1.496 1.13174,-3.222376 1.19374,-4.984376 0.076,-1.755 -0.21006,-3.539872 -0.88906,-5.121872 -0.678,-1.584 -1.75812,-2.94444 -3.05312,-3.89844 -0.651,-0.478 -1.34456,-0.850872 -2.05156,-1.146872 -0.698,-0.306 -1.42451,-0.492 -2.11251,-0.65 -1.386,-0.282 -2.67687,-0.314256 -3.74687,-0.281256 -1.072,0.052 -1.93231,0.162128 -2.52031,0.253128 -0.598,0.104 -0.91251,0.153128 -0.91251,0.153128 0,0 0.30669,-0.09238 0.87969,-0.259376 0.583,-0.172 1.43375,-0.378 2.51875,-0.55 1.077,-0.162 2.40369,-0.271128 3.90469,-0.128128 0.751,0.086 1.54019,0.210064 2.34219,0.464064 0.813,0.248 1.62475,0.597936 2.41875,1.060936 1.578,0.942 2.99337,2.417504 3.93437,4.212504 0.941,1.785 1.43894,3.848808 1.48594,5.907808 0.048,2.06 -0.33818,4.123688 -1.11718,5.979688 -0.774,1.853 -1.97013,3.494248 -3.40313,4.681248 -1.443,1.183 -3.07375,1.909632 -4.61875,2.215632 -0.033,0.0064 -0.0641,0.008 -0.0969,0.01408 0.0457,0.04584 0.0902,0.08948 0.13594,0.134376 0.459,0.44 0.87962,0.922192 1.29062,1.392192 1.654,1.913 2.89613,4.025248 3.82813,6.181248 1.869,4.319 2.41869,8.911624 1.62969,13.190624 -0.387,2.136 -1.18388,4.187312 -2.32188,5.970312 -1.133,1.797 -2.62531,3.303 -4.27031,4.4 -1.644,1.107 -3.41775,1.80156 -5.11875,2.22656 -0.86,0.232 -1.70144,0.335 -2.52344,0.45 -0.41,0.04 -0.81306,0.05808 -1.21406,0.08906 -0.205,0.01 -0.40613,0.01768 -0.60313,0.02968 -0.2,0 -0.39081,3.12e-4 -0.58281,-0.0048 -0.391,-0.0072 -0.78324,-0.0116 -1.15624,-0.0156 -0.378,-0.03096 -0.75644,-0.05872 -1.12344,-0.07968 -0.368,-0.022 -0.73513,-0.08712 -1.10313,-0.12812 -0.359,-0.04104 -0.71687,-0.101192 -1.07187,-0.167192 -1.424,-0.254 -2.79151,-0.639496 -4.06251,-1.162496 -1.277,-0.533 -2.44693,-1.210752 -3.46093,-2.018752 -1.014,-0.808 -1.86344,-1.741 -2.52344,-2.725 -0.66,-0.985 -1.12806,-2.008376 -1.43906,-3.009376 -0.32,-0.997 -0.468,-1.971688 -0.55,-2.879688 -0.134,-1.828 0.0675,-3.412936 0.3625,-4.760936 0.623,-2.689 1.51168,-4.462376 2.10468,-5.609376 0.306,-0.574 0.54482,-0.98356 0.70782,-1.25156 0.162,-0.27 0.24687,-0.406256 0.24687,-0.406256 0,0 -0.0418,0.14944 -0.13281,0.44844 -0.095,0.301 -0.24794,0.757872 -0.41094,1.371872 -0.32,1.229 -0.80812,3.114816 -0.92812,5.657816 -0.051,1.267 0.0289,2.703 0.37187,4.2 0.192,0.74 0.44231,1.502936 0.79531,2.235936 0.364,0.732 0.82232,1.440936 1.39532,2.085936 1.157,1.293 2.7915,2.30232 4.8125,2.870312 1.009,0.285008 2.10994,0.461752 3.28594,0.543752 0.286,0.026 0.5828,0.04376 0.8828,0.04376 0.307,0 0.60751,0.02336 0.91251,0.0094 0.316,-0.008 0.62187,-0.01816 0.94687,-0.02816 0.301,-0.026 0.61313,-0.05528 0.92813,-0.08125 0.158,-0.014 0.30575,-0.02664 0.46875,-0.04064 0.153,-0.02104 0.30481,-0.04976 0.45781,-0.06872 0.316,-0.05296 0.6315,-0.09812 0.9375,-0.15312 0.602,-0.153 1.22794,-0.285376 1.81094,-0.509376 1.191,-0.406 2.30931,-0.981128 3.27031,-1.753128 1.926,-1.537 3.231,-3.908936 3.575,-6.810936 0.33,-2.882 -0.21525,-6.198248 -1.73125,-9.231248 -0.75,-1.513 -1.705,-2.982568 -2.9,-4.251568 -0.306,-0.311 -0.5995,-0.636312 -0.9375,-0.920312 -0.159,-0.144 -0.3005,-0.292624 -0.4875,-0.440624 l -0.55313,-0.446872 c -0.182,-0.146 -0.36524,-0.30288 -0.55624,-0.44688 l -0.58282,-0.412496 c -0.192,-0.139 -0.3825,-0.284752 -0.5875,-0.418752 l -0.60781,-0.382816 c -1.645,-1.027992 -3.44094,-1.881312 -5.38594,-2.545312 -1.95,-0.665 -4.04913,-1.113744 -6.25313,-1.393744 -4.416,-0.569 -9.26349,-0.386816 -14.36249,0.242184 -5.125,0.631 -10.49769,1.728688 -16.22969,2.904688 -0.722,0.136 -1.43362,0.292688 -2.14062,0.454688 -0.712,0.155 -1.43088,0.316128 -2.14688,0.478128 -1.444,0.321 -2.89606,0.639056 -4.36406,0.964056 -0.10996,0.02432 -0.22274,0.0492 -0.33282,0.07344 -1.09874,0.451736 -2.69416,1.103064 -4.90156,2.045312 -2.266,0.959 -5.12924,2.223816 -8.55624,3.932816 -1.711,0.868 -3.5652,1.846744 -5.4922,3.018752 -1.926,1.177992 -3.95312,2.52568 -5.90312,4.17968 -1.931,1.654 -3.80994,3.622632 -4.96094,5.940632 -0.579,1.152 -0.976,2.381808 -1.125,3.657808 -0.019,0.325 -0.0718,0.628504 -0.0718,0.987504 l -0.008,0.515624 0.0187,0.518752 c 0.029,0.682992 0.10444,1.361872 0.24844,2.021872 0.277,1.324 0.79344,2.564688 1.54843,3.654688 0.746,1.097 1.75826,2.02444 2.90626,2.748432 1.156,0.731 2.45731,1.24682 3.79531,1.55782 1.343,0.308 2.71006,0.416 4.03906,0.325 2.648,-0.163 5.10463,-1.14356 6.71563,-2.701564 0.401,-0.389 0.75612,-0.80488 1.05312,-1.24688 0.291,-0.445 0.53363,-0.899624 0.71563,-1.365624 0.363,-0.947 0.50599,-1.900808 0.52499,-2.782808 0.029,-1.766 -0.37149,-3.199568 -0.68749,-4.151568 -0.081,-0.236 -0.15207,-0.44456 -0.21407,-0.62656 -0.072,-0.184 -0.12981,-0.337376 -0.18281,-0.459376 -0.1,-0.249 -0.14844,-0.375 -0.14844,-0.375 0,0 0.0675,0.118 0.20156,0.35 0.067,0.112 0.15276,0.260128 0.24376,0.428128 0.091,0.172 0.19193,0.36956 0.31093,0.60156 0.44,0.911 1.06563,2.29356 1.29063,4.20156 0.1,0.944 0.0964,2.02988 -0.19063,3.17188 -0.139,0.569 -0.35825,1.140064 -0.63125,1.714064 -0.287,0.569 -0.64093,1.122428 -1.06093,1.648428 -1.711,2.122 -4.49894,3.62232 -7.61094,4.17032 -1.558,0.289 -3.21106,0.34394 -4.88906,0.13594 -1.678,-0.199 -3.38431,-0.67282 -4.99531,-1.48282 -1.606,-0.804 -3.13632,-1.95093 -4.34532,-3.41093 -1.21,-1.456002 -2.11806,-3.19613 -2.63906,-5.00313 -0.272,-0.904 -0.444,-1.816688 -0.55,-2.729688 -0.028,-0.232 -0.0522,-0.455624 -0.0672,-0.690624 l -0.0375,-0.678128 c -0.033,-0.447 -6.2e-4,-0.943368 0.009,-1.409368 0.095,-1.9 0.58369,-3.755688 1.32969,-5.404688 0.736,-1.654 1.68243,-3.141624 2.74843,-4.415624 1.057,-1.273 2.18863,-2.398128 3.34063,-3.378128 2.11002,-1.785472 4.24067,-3.124672 6.26406,-4.234376 -0.2838,0.06936 -0.56478,0.136936 -0.84843,0.203128 -1.30381,0.335576 -2.62349,0.68436 -3.95157,1.054688 -1.68516,0.851768 -3.55307,1.913024 -5.55625,3.368744 -1.525,1.116 -3.11138,2.448568 -4.65938,4.076568 -1.563,1.625 -3.04506,3.57856 -4.36406,5.85156 -0.636,1.147 -1.234,2.380128 -1.75,3.678128 -0.521,1.301 -0.94687,2.678936 -1.27187,4.110936 -0.651,2.851 -0.86863,5.924812 -0.51563,8.957812 0.354,3.03 1.26563,6.02706 2.79063,8.58906 1.511,2.567 3.66137,4.66313 6.10937,5.90313 2.443,1.26 5.10994,1.67237 7.48594,1.50937 0.143,-0.005 0.29694,-0.0163 0.43594,-0.0203 0.152,-0.021 0.29481,-0.0362 0.43281,-0.0531 0.297,-0.033 0.58456,-0.069 0.85156,-0.1 0.282,-0.055 0.55456,-0.104 0.82656,-0.15 0.129,-0.033 0.26288,-0.0522 0.39688,-0.0812 0.134,-0.033 0.25819,-0.0627 0.39219,-0.0938 0.507,-0.132 1.00388,-0.25262 1.47188,-0.41562 0.468,-0.141 0.91905,-0.28413 1.33905,-0.45313 0.842,-0.306 1.57813,-0.66287 2.22813,-0.94687 0.636,-0.326 1.18562,-0.59694 1.61562,-0.83594 0.869,-0.493 1.3422,-0.76562 1.3422,-0.76562 0,0 -0.453,0.3035 -1.275,0.8625 -0.431,0.272 -0.95613,0.58112 -1.57813,0.95312 -0.626,0.333 -1.33769,0.73969 -2.17969,1.10469 -0.411,0.204 -0.86044,0.37581 -1.32344,0.55781 -0.464,0.2 -0.9615,0.35419 -1.4875,0.51719 -0.124,0.041 -0.25419,0.0867 -0.39219,0.12969 -0.129,0.034 -0.26756,0.0646 -0.40156,0.10469 -0.277,0.065 -0.55362,0.13681 -0.84062,0.20781 -0.282,0.06 -0.57831,0.10818 -0.87031,0.16718 -0.153,0.024 -0.30638,0.0518 -0.45938,0.0828 -0.153,0.014 -0.30138,0.031 -0.45938,0.05 -0.61549,0.0812 -1.25684,0.12526 -1.91718,0.12812 z m 232.46719,0 c -0.66055,-0.003 -1.3025,-0.0469 -1.91876,-0.12812 -0.155,-0.019 -0.30736,-0.036 -0.45936,-0.05 -0.155,-0.031 -0.30669,-0.0588 -0.45469,-0.0828 -0.297,-0.059 -0.588,-0.10718 -0.875,-0.16718 -0.282,-0.071 -0.56295,-0.14281 -0.83595,-0.20781 -0.139,-0.04 -0.27293,-0.0707 -0.41093,-0.10469 -0.131,-0.043 -0.26407,-0.0887 -0.38907,-0.12969 -0.525,-0.163 -1.02224,-0.31719 -1.48124,-0.51719 -0.478,-0.182 -0.91769,-0.35381 -1.32969,-0.55781 -0.832,-0.365 -1.54712,-0.77169 -2.17812,-1.10469 -0.621,-0.372 -1.15344,-0.68112 -1.57344,-0.95312 -0.826,-0.559 -1.275,-0.8625 -1.275,-0.8625 0,0 0.46649,0.27262 1.33749,0.76562 0.439,0.239 0.984,0.50994 1.625,0.83594 0.65,0.284 1.37757,0.64087 2.22657,0.94687 0.407,0.169 0.86225,0.31213 1.33125,0.45313 0.468,0.163 0.96387,0.28362 1.47187,0.41562 0.133,0.031 0.26763,0.0607 0.39063,0.0938 0.138,0.029 0.26656,0.0482 0.40156,0.0812 0.268,0.046 0.53488,0.095 0.82188,0.15 0.278,0.031 0.559,0.067 0.85,0.1 0.145,0.017 0.28781,0.0322 0.43281,0.0531 0.148,0.004 0.29419,0.0153 0.44219,0.0203 2.377,0.163 5.0445,-0.24937 7.4875,-1.50937 2.444,-1.24 4.59738,-3.34113 6.10938,-5.90313 1.523,-2.562 2.43636,-5.55906 2.78436,-8.58906 0.363,-3.033 0.13564,-6.106812 -0.50936,-8.957812 -0.33,-1.432 -0.7522,-2.809936 -1.2672,-4.110936 -0.522,-1.298 -1.12006,-2.531128 -1.76406,-3.678128 -1.318,-2.273 -2.79738,-4.22656 -4.35938,-5.85156 -1.545,-1.628 -3.13493,-2.960568 -4.66093,-4.076568 -2.00456,-1.456248 -3.87268,-2.5184 -5.55781,-3.370312 -1.32369,-0.369968 -2.64258,-0.717824 -3.94531,-1.05312 -0.28641,-0.06648 -0.56674,-0.135032 -0.85157,-0.204688 2.03093,1.109896 4.15728,2.449912 6.27344,4.235936 1.146,0.98 2.26994,2.105128 3.33594,3.378128 1.06,1.274 2.00868,2.761624 2.75468,4.415624 0.736,1.649 1.22213,3.504688 1.32813,5.404688 0,0.466 0.0377,0.962376 0.005,1.409368 -0.02,0.456 -0.0479,0.912752 -0.11093,1.368752 -0.099,0.913 -0.27076,1.825688 -0.54376,2.729688 -0.516,1.807 -1.42406,3.547128 -2.63906,5.00313 -1.213,1.46 -2.74531,2.60693 -4.34531,3.41093 -1.611,0.81 -3.32069,1.28382 -5.00469,1.48282 -1.672,0.208 -3.32638,0.15306 -4.88438,-0.13594 -3.108,-0.548 -5.89993,-2.04832 -7.61093,-4.17032 -0.422,-0.526 -0.77394,-1.079428 -1.06094,-1.648428 -0.272,-0.574 -0.496,-1.145064 -0.625,-1.714064 -0.284,-1.142 -0.29144,-2.227568 -0.19844,-3.176568 0.227,-1.903 0.85163,-3.285872 1.29063,-4.196872 0.125,-0.232 0.22093,-0.42956 0.31093,-0.60156 0.096,-0.168 0.178,-0.316128 0.25,-0.428128 0.129,-0.232 0.20469,-0.35 0.20469,-0.35 0,0 -0.0586,0.126 -0.15156,0.375 -0.053,0.122 -0.1155,0.275376 -0.1875,0.459376 -0.062,0.182 -0.12963,0.39056 -0.21563,0.62656 -0.316,0.952 -0.72093,2.385568 -0.68593,4.151568 0.017,0.882 0.16112,1.835808 0.52812,2.782808 0.182,0.466 0.4255,0.920624 0.7125,1.365624 0.301,0.442 0.65057,0.85788 1.05157,1.24688 1.617,1.558004 4.06818,2.538564 6.71718,2.701564 1.324,0.091 2.70107,-0.017 4.03907,-0.325 1.338,-0.311 2.63831,-0.82682 3.79531,-1.55782 1.146,-0.724 2.15556,-1.651432 2.90156,-2.748432 0.76,-1.09 1.27513,-2.330688 1.55313,-3.654688 0.142,-0.66 0.22068,-1.33888 0.25468,-2.021872 l 0.0218,-0.518752 -0.0141,-0.515624 c 0,-0.359 -0.0522,-0.662504 -0.0782,-0.987504 -0.146,-1.276 -0.53919,-2.505808 -1.11719,-3.657808 -1.152,-2.318 -3.03362,-4.286632 -4.96562,-5.940632 -1.945,-1.654 -3.97669,-3.001688 -5.90469,-4.17968 -1.926,-1.172 -3.77894,-2.150752 -5.48594,-3.018752 -3.432,-1.709 -6.29156,-2.973816 -8.55156,-3.932816 -2.21859,-0.942016 -3.81576,-1.593584 -4.90625,-2.045312 -0.11064,-0.0244 -0.22382,-0.04904 -0.33437,-0.07344 -1.473,-0.325 -2.92482,-0.643056 -4.35782,-0.964056 -0.727,-0.162 -1.43456,-0.323128 -2.15156,-0.478128 -0.707,-0.162 -1.42319,-0.318688 -2.14219,-0.454688 -5.735,-1.176 -11.10443,-2.273688 -16.22343,-2.904688 -5.105,-0.629 -9.94988,-0.811184 -14.37188,-0.242184 -2.203,0.28 -4.29743,0.728744 -6.24844,1.393744 -1.94899,0.664 -3.74874,1.51732 -5.39374,2.545312 l -0.60469,0.382816 c -0.207,0.134 -0.39651,0.279752 -0.58751,0.418752 l -0.57968,0.412496 c -0.189,0.144 -0.37737,0.30088 -0.55937,0.44688 l -0.54844,0.446872 c -0.188,0.148 -0.32919,0.296624 -0.49219,0.440624 -0.336,0.284 -0.6305,0.609312 -0.9375,0.920312 -1.195,1.269 -2.14987,2.738568 -2.89688,4.251568 -1.515,3.033 -2.06368,6.349248 -1.72968,9.231248 0.344,2.902 1.643,5.273936 3.575,6.810936 0.965,0.772 2.08406,1.347128 3.26406,1.753128 0.588,0.224 1.21019,0.356376 1.81719,0.509376 0.307,0.05496 0.62025,0.10012 0.93125,0.15312 0.154,0.01904 0.30637,0.04776 0.45937,0.06872 0.162,0.014 0.31613,0.02664 0.47813,0.04064 0.307,0.026 0.6175,0.05528 0.9375,0.08125 0.305,0.01 0.61156,0.02016 0.92656,0.02816 0.306,0.014 0.61219,-0.0094 0.91719,-0.0094 0.302,0 0.59737,-0.01776 0.88437,-0.04376 1.172,-0.082 2.27238,-0.258752 3.28438,-0.543752 2.027,-0.568 3.66137,-1.577312 4.80937,-2.870312 0.578,-0.645 1.031,-1.353936 1.4,-2.085936 0.358,-0.733 0.59906,-1.495936 0.78906,-2.235936 0.349,-1.497 0.43013,-2.933 0.37813,-4.2 -0.12,-2.543 -0.60725,-4.428808 -0.93125,-5.657816 -0.164,-0.614 -0.3135,-1.070872 -0.4125,-1.371872 -0.086,-0.299 -0.125,-0.44844 -0.125,-0.44844 0,0 0.0786,0.136256 0.24062,0.406256 0.162,0.268 0.40994,0.67756 0.71094,1.25156 0.588,1.147 1.478,2.920376 2.1,5.609376 0.3,1.348 0.49463,2.932936 0.36563,4.760936 -0.08,0.908 -0.22844,1.882688 -0.54844,2.879688 -0.317,1.001 -0.78419,2.024376 -1.44219,3.009376 -0.657,0.984 -1.50231,1.917 -2.52031,2.725 -1.014,0.808 -2.18369,1.485752 -3.45469,2.018752 -1.277,0.523 -2.64975,0.908496 -4.06875,1.162496 -0.354,0.066 -0.71256,0.126192 -1.07656,0.167192 -0.363,0.04104 -0.731,0.10612 -1.1,0.12812 -0.373,0.02104 -0.74463,0.04872 -1.11563,0.07968 -0.379,0.004 -0.76706,0.0086 -1.16406,0.0156 -0.191,0.0048 -0.38494,0.0048 -0.58594,0.0048 -0.192,-0.012 -0.39343,-0.01968 -0.59843,-0.02968 -0.402,-0.03096 -0.80875,-0.04904 -1.21875,-0.08906 -0.822,-0.115 -1.66507,-0.218 -2.51407,-0.45 -1.708,-0.425 -3.477,-1.11956 -5.125,-2.22656 -1.645,-1.097 -3.13644,-2.603 -4.27344,-4.4 -1.129,-1.783 -1.92587,-3.834312 -2.32187,-5.970312 -0.785,-4.279 -0.23562,-8.871624 1.63438,-13.190624 0.931,-2.156 2.16987,-4.268248 3.82187,-6.181248 0.416,-0.47 0.83257,-0.952192 1.30156,-1.392192 0.0434,-0.0444 0.0898,-0.08748 0.13438,-0.132808 -0.0344,-0.0064 -0.067,-0.0086 -0.10156,-0.0156 -1.543,-0.306 -3.16794,-1.032632 -4.61094,-2.215632 -1.439,-1.187 -2.62482,-2.828248 -3.40782,-4.681248 -0.779,-1.856 -1.172,-3.919688 -1.125,-5.979688 0.049,-2.059 0.54363,-4.122808 1.49063,-5.907808 0.941,-1.795 2.35837,-3.270504 3.93437,-4.212504 0.789,-0.463 1.61107,-0.812936 2.41407,-1.060936 0.802,-0.254 1.59719,-0.378064 2.34219,-0.464064 1.505,-0.143 2.82962,-0.03384 3.91562,0.128128 1.08,0.172 1.93538,0.378 2.50938,0.55 0.573,0.167 0.88906,0.259376 0.88906,0.259376 0,0 -0.32006,-0.04912 -0.91406,-0.153128 -0.592,-0.091 -1.45619,-0.201128 -2.51719,-0.253128 -1.08,-0.03296 -2.36781,-7.44e-4 -3.75781,0.281256 -0.688,0.158 -1.41106,0.344 -2.11406,0.65 -0.703,0.296 -1.39432,0.668872 -2.04532,1.146872 -1.3,0.954 -2.37612,2.31444 -3.05312,3.89844 -0.68,1.582 -0.96132,3.366872 -0.89532,5.121872 0.072,1.762 0.49832,3.488376 1.19532,4.984376 0.707,1.505 1.69162,2.767936 2.79062,3.685936 1.12,0.908 2.32444,1.496312 3.52344,1.795312 0.67006,0.175264 1.33189,0.270072 1.975,0.312504 0.0864,-0.06664 0.16933,-0.132424 0.25781,-0.2 0.248,-0.186 0.492,-0.38944 0.75,-0.57344 0.263,-0.177 0.52169,-0.353936 0.77969,-0.535936 2.113,-1.422 4.45425,-2.618248 6.93125,-3.531248 2.476,-0.923 5.09581,-1.547128 7.75781,-1.953128 5.344,-0.809 10.8745,-0.656936 16.4375,-0.03592 5.564,0.629 11.2055,1.75512 16.9125,2.92812 0.707,0.141 1.42538,0.298632 2.15938,0.465632 0.727,0.163 1.45962,0.330184 2.19062,0.492184 1.472,0.335 2.95531,0.669128 4.44531,1.003128 2.992,0.687 6.07157,1.370432 9.10157,2.123432 3.064,0.739 6.17506,1.501752 9.33906,2.268752 0.813,0.196 1.62588,0.397872 2.44688,0.596872 0.822,0.195 1.64456,0.430752 2.47656,0.643752 1.645,0.458 3.28844,0.929248 4.92344,1.431248 2.3091,0.71392 4.61131,1.472208 6.91249,2.237504 3.44449,0.648968 7.78743,1.482408 13.20782,2.27656 2.777,0.385 5.82606,0.771816 9.16406,1.007816 3.336,0.225 6.96275,0.326064 10.86875,0.08906 0.97,-0.036 1.9585,-0.152 2.9625,-0.25 1.013,-0.095 2.00513,-0.21788 3.00312,-0.42188 1.99401,-0.384 4.01501,-0.976184 6,-1.767184 3.966,-1.599 7.80344,-3.988936 11.07344,-7.035936 3.252,-3.062 5.92806,-6.795688 7.41406,-10.904688 0.756,-2.045 1.21944,-4.170568 1.37344,-6.276568 0.023,-0.533 0.065,-1.053248 0.05,-1.581248 -0.014,-0.518 8e-4,-1.045376 -0.05,-1.559376 -0.078,-1.042 -0.19093,-2.045312 -0.43593,-3.020312 -0.91401,-3.91 -3.19757,-7.18856 -5.82657,-9.40156 -1.31,-1.128 -2.73018,-1.964312 -4.11718,-2.595312 -1.394,-0.621 -2.77738,-0.97644 -4.05938,-1.14844 -1.279,-0.181 -2.45444,-0.157752 -3.47344,-0.04376 -1.018,0.121 -1.8685,0.349944 -2.5625,0.560944 -0.683,0.23 -1.20375,0.428872 -1.54375,0.596872 -0.343,0.157 -0.525,0.239064 -0.525,0.239064 0,0 0.1765,-0.09206 0.5125,-0.264064 0.328,-0.191 0.8395,-0.420816 1.5125,-0.682816 0.68,-0.243 1.53944,-0.514808 2.57344,-0.682808 1.027,-0.172 2.22825,-0.253376 3.55625,-0.134376 1.319,0.125 2.77175,0.420128 4.24375,1.003128 1.463,0.583 2.98243,1.396936 4.39843,2.510936 1.43,1.104 2.76232,2.484064 3.92032,4.114064 0.562,0.813 1.08075,1.702688 1.54375,2.629688 0.435,0.947 0.8115,1.941432 1.1125,2.973432 0.297,1.042 0.46475,2.13288 0.59375,3.22188 0.066,0.545 0.0764,1.103936 0.10937,1.660936 0.033,0.556 0.009,1.118376 0.009,1.684376 -0.082,2.259 -0.50549,4.55612 -1.23749,6.77812 -1.438,4.462 -4.19732,8.55444 -7.57032,11.89844 -3.384,3.341 -7.42431,5.974496 -11.64532,7.762496 -2.12299,0.882 -4.29312,1.551752 -6.45312,1.993752 -1.09,0.222 -2.17862,0.374312 -3.21562,0.470312 -1.047,0.112 -2.07131,0.227752 -3.09531,0.268752 -4.053,0.243 -7.80388,0.10244 -11.22188,-0.20156 -2.52923,-0.236584 -4.87975,-0.56708 -7.06719,-0.928128 2.49952,0.705888 5.0226,1.346656 7.5625,1.857816 1.684,0.347 3.36606,0.610808 5.06406,0.832808 1.697,0.203 3.40307,0.379312 5.11407,0.420312 3.408,0.131 6.83118,-0.133872 10.19218,-0.771872 0.42,-0.06704 0.83469,-0.169064 1.25469,-0.264064 l 1.25313,-0.284376 1.2375,-0.35156 c 0.416,-0.11 0.83868,-0.229624 1.22968,-0.365624 1.617,-0.528 3.18851,-1.170504 4.71251,-1.937504 6.072,-3.08 11.24731,-8.066184 14.77031,-14.017184 3.547,-5.925 5.55987,-12.784248 5.62187,-19.531248 0.02,-3.365 -0.42043,-6.707064 -1.42343,-9.814064 -1.004,-3.102 -2.50944,-6.003624 -4.52344,-8.440624 -2.006,-2.448 -4.50287,-4.399816 -7.24687,-5.832816 -1.361,-0.722 -2.77676,-1.328184 -4.24376,-1.792184 -1.459,-0.473 -2.93593,-0.86544 -4.43593,-1.12344 -0.755,-0.162 -1.50451,-0.230688 -2.23751,-0.354688 -0.76,-0.05704 -1.51118,-0.152312 -2.26718,-0.195312 -0.753,-0.02304 -1.50831,-0.101248 -2.24531,-0.08125 -0.363,-0.01 -0.73013,-0.01032 -1.10313,-0.02032 -0.363,0.02 -0.73206,0.03632 -1.08906,0.04528 -0.732,0.009 -1.43988,0.09918 -2.14688,0.142184 -0.35,0.04304 -0.69812,0.09069 -1.05312,0.129688 l -0.51563,0.07184 -0.50625,0.08594 c -1.367,0.215 -2.67612,0.564936 -3.92812,0.960936 -4.991,1.615 -8.87756,4.742248 -11.30156,8.781248 -2.475,4.01 -3.49851,8.765936 -3.28751,13.110936 0.123,2.165 0.53507,4.253064 1.28907,6.089064 0.726,1.848 1.79919,3.431816 3.11719,4.607816 0.66,0.598 1.387,1.066808 2.15,1.432808 0.373,0.203 0.77674,0.327688 1.16874,0.479688 0.401,0.103 0.79582,0.243752 1.20782,0.293752 0.817,0.168 1.63956,0.182 2.45156,0.175 0.407,-0.04104 0.80231,-0.05264 1.19531,-0.115624 0.396,-0.06904 0.79019,-0.101688 1.16719,-0.204688 1.519,-0.337 2.922,-0.858128 4.15,-1.453128 1.233,-0.583 2.28231,-1.26156 3.22031,-1.92656 1.855,-1.32 3.22313,-2.465192 4.17812,-3.192192 0.94701,-0.736 1.44376,-1.118744 1.44376,-1.118744 0,0 -0.11544,0.104248 -0.34844,0.306248 -0.226,0.205 -0.58106,0.505816 -1.01406,0.907808 -0.895,0.812008 -2.13682,2.061504 -3.85782,3.612504 -0.847,0.779 -1.85437,1.620688 -3.05937,2.404688 -1.203,0.794 -2.57931,1.558688 -4.19531,2.179688 -0.402,0.165 -0.83269,0.27756 -1.25469,0.42656 -0.439,0.136 -0.89256,0.226064 -1.35156,0.339064 -0.934,0.163 -1.92682,0.304064 -2.95782,0.264064 -0.531,0.0072 -1.06343,-0.07392 -1.59843,-0.12188 -0.535,-0.114 -1.09,-0.192056 -1.625,-0.364056 -1.08,-0.325 -2.16982,-0.795192 -3.18282,-1.442192 -1.008,-0.646 -1.95868,-1.435752 -2.82968,-2.343752 -0.866,-0.908 -1.61638,-1.939744 -2.28438,-3.043744 -1.349,-2.213 -2.26594,-4.750944 -2.81094,-7.460944 -0.518,-2.700992 -0.6558,-5.59756 -0.2828,-8.55156 0.0683,-0.558976 0.16026,-1.119848 0.26405,-1.681248 -1.74661,1.463176 -3.75773,2.903312 -6.18281,3.89844 -1.381,0.555 -2.91988,0.94656 -4.42188,1.05156 -1.48999,0.134 -3.05724,0.144808 -4.60624,-0.142184 -1.543,-0.306008 -3.04507,-0.890008 -4.36407,-1.75 -1.32,-0.866008 -2.433,-1.996752 -3.275,-3.268752 -0.84,-1.271 -1.42462,-2.677568 -1.74062,-4.101568 -0.305,-1.425 -0.36243,-2.858624 -0.19843,-4.215624 0.171,-1.363 0.53505,-2.658872 1.08905,-3.796872 0.563,-1.142 1.282,-2.131816 2.075,-2.9578161 1.634,-1.626 3.49831,-2.519496 5.09532,-2.987496 0.19199,-0.05704 0.39012,-0.11488 0.57812,-0.171872 0.191,-0.038 0.37675,-0.07296 0.56875,-0.110944 0.363,-0.062 0.69744,-0.146688 1.02344,-0.179688 0.325,-0.03496 0.62956,-0.06352 0.90156,-0.087496 0.273,-0.024 0.53212,-0.05272 0.75312,-0.04376 0.908,-0.00896 1.4,-0.008 1.4,-0.008 10e-6,0 -0.48762,0.03808 -1.39062,0.114056 -0.22,0.01 -0.46818,0.05672 -0.74218,0.104688 -0.271,0.048 -0.56894,0.101128 -0.88594,0.153128 -0.314,0.058 -0.63375,0.171808 -0.99375,0.257816 -0.172,0.048 -0.35238,0.097432 -0.53438,0.148432 -0.182,0.07304 -0.36425,0.138936 -0.55625,0.210936 -1.505,0.56 -3.20962,1.554 -4.61562,3.1500001 -0.668,0.822 -1.26582,1.768064 -1.70782,2.839064 -0.433,1.07 -0.69037,2.250688 -0.75937,3.479688 -0.07,1.224 0.0591,2.49444 0.40313,3.72344 0.344,1.233 0.91787,2.419624 1.69687,3.465624 0.77,1.042 1.75288,1.931936 2.87188,2.585936 1.127,0.661 2.38625,1.078936 3.68125,1.285936 1.301,0.181 2.62918,0.124816 3.96718,-0.04216 1.339,-0.139 2.55057,-0.498688 3.72657,-1.004688 2.344,-1.029 4.39025,-2.60556 6.20625,-4.20156 0.78618,-0.692728 1.52303,-1.385328 2.24844,-2.070312 0.32776,-0.85124 0.6992,-1.696288 1.12031,-2.528128 0.742,-1.444 1.62781,-2.853752 2.68281,-4.168752 1.052,-1.309 2.26044,-2.541624 3.59844,-3.6406241 1.344,-1.105 2.81637,-2.066376 4.38437,-2.859376 1.566,-0.793 3.2075,-1.472872 4.9125,-1.921872 1.693,-0.469 3.42744,-0.831376 5.17344,-0.984376 l 0.64844,-0.0672 0.66093,-0.04216 c 0.435,-0.02 0.87038,-0.05376 1.30938,-0.06872 0.869,0.0048 1.74531,-0.02864 2.62031,0.0344 0.43,0.018 0.86381,0.04448 1.30781,0.06248 0.422,0.04304 0.86088,0.09012 1.29688,0.12812 0.865,0.072 1.71556,0.229688 2.57656,0.354688 0.859,0.133 1.72462,0.30988 2.59062,0.47188 0.851,0.225 1.729,0.406312 2.575,0.670312 1.717,0.478 3.39988,1.104496 5.07188,1.812496 1.664,0.716 3.29012,1.571 4.85312,2.55 3.121,1.9600001 5.99007,4.4751921 8.28907,7.4671921 2.322,2.978 4.09375,6.410432 5.19375,10.048432 0.30374,1.00684 0.55822,2.028992 0.77031,3.059376 -0.35485,-2.527504 -0.30935,-5.513736 0.53125,-8.904688 0.459,-1.764 1.11887,-3.632872 1.99687,-5.521872 0.899,-1.883 1.99919,-3.785248 3.31719,-5.606248 1.31,-1.8210001 2.86944,-3.5618161 4.62344,-5.0828161 1.744,-1.519 3.71432,-2.794624 5.74532,-3.640624 2.031,-0.875 4.14643,-1.215248 5.92343,-1.181248 0.228,0.0048 0.44906,0.01376 0.66406,0.01872 0.215,0.0048 0.42556,0.01512 0.62656,0.05312 0.42,0.068 0.802,0.127624 1.175,0.190624 0.367,0.048 0.713,0.18344 1.05,0.27344 0.311,0.11 0.61875,0.204 0.91875,0.3 0.561,0.239 1.04651,0.479688 1.46251,0.679688 0.205,0.091 0.39337,0.211312 0.55937,0.320312 0.164,0.101 0.31568,0.204936 0.45468,0.285936 0.52101,0.349 0.81407,0.540624 0.81407,0.540624 0,0 -0.34463,0.03704 -0.96563,0.114064 -0.155,0.01904 -0.3268,0.03984 -0.5078,0.05784 -0.182,0.02 -0.37382,0.04856 -0.58282,0.10156 -0.432,0.1 -0.89887,0.195064 -1.39687,0.339064 -0.238,0.081 -0.49826,0.18156 -0.75626,0.27656 -0.257,0.101 -0.52481,0.173 -0.78281,0.325 -0.254,0.129 -0.50581,0.267936 -0.78281,0.410936 -0.135,0.06304 -0.25981,0.153064 -0.38281,0.239064 -0.125,0.086 -0.24444,0.181184 -0.37344,0.267184 -0.994,0.727 -1.88181,1.619816 -2.60781,2.757816 -1.445,2.2420001 -2.37744,5.1582481 -3.09844,8.2562481 -0.363,1.539 -0.67037,3.110936 -0.98437,4.635936 -0.317,1.53 -0.60819,3.02144 -0.96719,4.39844 -1.041,4.178 -2.53275,7.369872 -4.11875,9.821872 -1.578,2.434 -3.19426,4.139504 -4.25626,5.162504 0.12101,-0.67 0.24044,-1.337624 0.37344,-2.015624 0.168,-0.884 0.36332,-1.77544 0.54532,-2.67344 0.086,-0.449 0.19088,-0.894064 0.29688,-1.339064 0.092,-0.454 0.20124,-0.89656 0.30624,-1.35156 0.391,-1.801 0.83056,-3.590376 1.25156,-5.359376 0.1,-0.449 0.21938,-0.878752 0.33438,-1.318752 0.086,-0.435 0.21025,-0.87 0.30625,-1.3 0.115,-0.431 0.21962,-0.859 0.34062,-1.275 0.1,-0.421 0.20838,-0.842808 0.30938,-1.257808 0.219,-0.832 0.441,-1.645064 0.65,-2.439064 0.201,-0.793 0.469,-1.549128 0.65,-2.303128 0.225,-0.737 0.43937,-1.46756 0.65937,-2.15156 0.106,-0.344 0.2152,-0.686872 0.3172,-1.021872 0.109,-0.33 0.22349,-0.650936 0.33749,-0.960936 0.197,-0.651 0.44563,-1.228568 0.64063,-1.801568 0.215,-0.569 0.45393,-1.089872 0.63593,-1.596872 0.219,-0.5020001 0.43019,-0.9665041 0.61719,-1.3875041 0.205,-0.42 0.40744,-0.792248 0.57344,-1.156248 0.168,-0.353 0.34919,-0.634496 0.49219,-0.912496 0.154,-0.272 0.28681,-0.501816 0.38281,-0.682816 0.238,-0.359 0.3625,-0.540624 0.3625,-0.540624 0,0 -0.20069,0.137936 -0.55469,0.410936 -0.162,0.148 -0.37318,0.335 -0.61718,0.55 -0.119,0.114 -0.24094,0.224128 -0.38594,0.353128 -0.133,0.124 -0.252,0.277248 -0.4,0.431248 -0.57401,0.588 -1.22513,1.34644 -1.90313,2.27344 -0.316,0.4790001 -0.69944,0.9515601 -1.02344,1.5015601 -0.162,0.268 -0.33362,0.540872 -0.51562,0.821872 -0.173,0.288 -0.32682,0.582064 -0.50781,0.889064 -0.704,1.199 -1.33757,2.561936 -2.00157,3.985936 -0.293,0.737 -0.63737,1.469064 -0.93437,2.239064 -0.152,0.382 -0.30443,0.763624 -0.44843,1.165624 -0.143,0.401 -0.29076,0.794312 -0.44376,1.195312 -0.148,0.401 -0.28419,0.81244 -0.41719,1.22344 -0.144,0.411 -0.28593,0.827192 -0.41093,1.242184 -0.132,0.421008 -0.27194,0.84288 -0.41094,1.27188 -0.119,0.421 -0.25287,0.851248 -0.37187,1.281248 -0.248,0.86 -0.50726,1.729376 -0.73126,2.609376 -0.217,0.884 -0.44537,1.769816 -0.65937,2.657816 -0.397,1.788 -0.78956,3.58456 -1.07656,5.40156 -0.115,0.665 -0.21088,1.338184 -0.29688,2.017184 -1.146,-1.395 -2.42106,-3.526184 -3.16406,-6.442184 -0.0446,-0.178656 -0.0812,-0.369936 -0.12187,-0.554688 0.34944,2.185128 0.50443,4.402248 0.45781,6.614064 -0.059,3.798 -0.65532,7.589312 -1.72032,11.245312 -1.053,3.664 -2.58244,7.194752 -4.49843,10.518752 -3.85,6.63 -9.4415,12.387808 -16.2875,16.182808 -1.715,0.953 -3.49751,1.766312 -5.33751,2.445312 -0.455,0.184 -0.91418,0.342504 -1.36718,0.487504 l -1.38282,0.456248 -1.39062,0.387496 c -0.462,0.129 -0.931,0.267632 -1.4,0.365632 -3.758,0.901 -7.60931,1.374624 -11.42031,1.415624 -1.912,0.05 -3.80538,-0.04208 -5.68438,-0.164064 -1.882,-0.158 -3.74612,-0.350936 -5.57812,-0.635936 -3.675,-0.535 -7.24969,-1.337064 -10.72969,-2.214064 -3.49,-0.88 -6.87931,-1.862 -10.19531,-2.825 -0.83168,-0.247776 -1.64581,-0.488416 -2.46875,-0.732816 0.91002,0.635704 1.8137,1.267008 3.31718,2.337504 2.02401,1.437 4.59088,3.280248 7.82188,5.481248 3.232,2.201 7.14232,4.74844 11.94532,7.34844 4.828,2.548 10.60387,5.07856 16.79687,6.17656 3.078,0.552 6.24762,0.730872 9.31562,0.496872 3.069,-0.227 6.02738,-0.877248 8.73438,-1.781248 0.334,-0.112 0.66869,-0.226312 1.00469,-0.345312 0.328,-0.11 0.65744,-0.223184 0.97344,-0.367184 0.641,-0.268 1.26181,-0.529504 1.88281,-0.787504 0.611,-0.27 1.18294,-0.587184 1.76094,-0.867184 0.564,-0.289 1.13612,-0.559936 1.65312,-0.885936 1.041,-0.624 2.05625,-1.177128 2.93125,-1.803128 0.892,-0.605 1.743,-1.141936 2.45,-1.710936 0.727,-0.557 1.37756,-1.057192 1.95156,-1.492192 0.549,-0.466 1.01313,-0.867184 1.40313,-1.192184 0.766,-0.655 1.18594,-1.009376 1.18594,-1.009376 0,0 -0.38582,0.385624 -1.10782,1.090624 -0.364,0.351 -0.81369,0.786312 -1.32969,1.295312 -0.535,0.476 -1.16612,1.01288 -1.85312,1.62188 -0.67,0.624 -1.49175,1.216936 -2.34375,1.885936 -0.849,0.69 -1.8395,1.319312 -2.8625,2.020312 -0.512,0.36 -1.06569,0.66956 -1.62969,1.00156 -0.574,0.318 -1.139,0.682936 -1.75,0.985936 -0.611,0.306 -1.23712,0.617376 -1.87812,0.934376 -0.31,0.163 -0.64413,0.299936 -0.97813,0.435936 -0.34,0.134 -0.67031,0.277752 -1.02031,0.418752 -2.738,1.085 -5.79325,1.92488 -9.00625,2.321872 -3.207,0.402008 -6.55525,0.361008 -9.83125,-0.1 -3.269,-0.458992 -6.45725,-1.305 -9.43125,-2.374992 -2.977,-1.066008 -5.74194,-2.348632 -8.23594,-3.665632 -4.972,-2.689 -8.88656,-5.445 -12.02656,-7.875 -0.78923,-0.613256 -1.52973,-1.205336 -2.22657,-1.77656 0.40398,0.59856 0.79857,1.219408 1.17657,1.870312 0.707,1.253 1.34656,2.602376 1.90156,4.034376 0.545,1.429 0.97444,2.947504 1.29844,4.512504 0.636,3.133 0.77638,6.488676 0.25938,9.779676 -0.51,3.279 -1.65338,6.50407 -3.45938,9.23907 -1.793,2.734 -4.29381,4.92893 -7.05781,6.13593 -2.0715,0.918 -4.21368,1.28984 -6.19532,1.28126 z m -252.325,-0.51562 c -0.15063,-0.002 -0.30732,-0.0162 -0.47032,-0.0438 -0.315,-0.067 -0.67844,-0.16669 -1.02344,-0.32969 -0.711,-0.315 -1.45349,-0.84669 -2.11249,-1.52969 -0.65,-0.679 -1.21425,-1.5055 -1.60625,-2.3375 -0.535,-1.137 -0.87957,-2.38325 -1.05157,-3.65625 -0.076,-0.333 -0.12387,-0.65956 -0.17187,-1.00156 -0.086,1.313 -0.0857,2.71944 -0.10469,3.94844 -0.019,1.223 -0.0999,2.29494 -0.53593,2.91094 -0.147,0.216 -0.324,0.33987 -0.525,0.39687 -0.249,0.294 -0.56388,0.438 -0.94688,0.375 -0.382,-0.067 -0.841,-0.33925 -1.3,-0.88125 -0.932,-1.088 -1.52968,-2.88313 -1.65468,-4.67813 -0.134,-1.797 0.20168,-3.55043 0.67968,-4.74843 0.703,-1.735 1.663,-2.82325 2.6,-4.18125 1.416,-2.038 2.80175,-4.612564 4.49375,-7.001564 0.162,-0.237 0.33425,-0.410936 0.50625,-0.535936 0.431,-0.722 0.91763,-0.964064 1.16563,-0.864064 0.269,0.103 0.30681,0.547 -0.0422,1.25 -1.449,2.961 -1.9755,6.055184 -1.6875,8.792184 0.267,2.378 1.16707,4.24394 2.18906,5.88594 0.326,0.514 0.71688,1.1785 1.14688,1.8375 0.406,0.615 0.85125,1.28469 1.28125,1.92969 0.402,0.609 0.727,1.18531 0.9,1.77031 0.09,0.287 0.14244,0.58382 0.12344,0.88282 -0.01,0.294 -0.0808,0.60449 -0.24376,0.91249 -0.244,0.488 -0.63624,0.77775 -1.18124,0.86875 -0.13351,0.02 -0.27751,0.03 -0.42813,0.0282 z m 97.76875,-6.5125 c 0,0 0.29587,-0.16282 0.82187,-0.45781 0.258,-0.15001 0.58357,-0.31719 0.95157,-0.54219 0.368,-0.217 0.78443,-0.472 1.24843,-0.75 0.454,-0.289 0.93494,-0.61938 1.46094,-0.95938 0.517,-0.365 1.06694,-0.75387 1.63594,-1.17187 1.113,-0.856 2.30394,-1.84119 3.46094,-2.94219 2.294,-2.223 4.42531,-4.93625 5.94531,-7.756252 1.53,-2.837 2.45693,-5.729376 3.13593,-8.284376 0.344,-1.281 0.60707,-2.487184 0.88907,-3.617184 0.267,-1.162 0.50787,-2.232816 0.72187,-3.207816 0.111,-0.498 0.24406,-0.977 0.33906,-1.45 0.096,-0.466 0.24125,-0.913432 0.33125,-1.348432 0.1,-0.433 0.215,-0.84932 0.325,-1.24532 0.09,-0.4 0.18963,-0.774496 0.29063,-1.137496 0.411,-1.434 0.81268,-2.569496 1.10468,-3.337496 0.311,-0.767008 0.53438,-1.165632 0.53438,-1.165632 0,0 0.39219,0.212688 1.04219,0.754688 0.651,0.55 1.53475,1.44188 2.44375,2.84688 0.229,0.356 0.45819,0.738808 0.69219,1.157808 0.215,0.42 0.42593,0.87644 0.63593,1.37344 0.224,0.488 0.38644,1.024752 0.57344,1.593752 0.191,0.569 0.33569,1.176248 0.47969,1.831248 0.267,1.297 0.40063,2.764816 0.39063,4.382808 -0.048,1.608 -0.23894,3.377192 -0.73594,5.242192 -0.502,1.852 -1.27244,3.789936 -2.32344,5.660936 -1.042,1.867002 -2.36187,3.653622 -3.87187,5.240622 -1.505,1.587 -3.19219,2.97407 -4.94219,4.11407 -1.729,1.147 -3.52338,2.05093 -5.23438,2.76093 -3.461,1.382 -6.582,1.96457 -8.8,2.20157 -0.555,0.05 -1.05062,0.0902 -1.49062,0.13125 -0.43,0.036 -0.81307,0.0393 -1.11407,0.0562 -0.607,0.015 -0.94218,0.025 -0.94218,0.025 z m 76.64218,0 c 0,0 -0.32993,-0.01 -0.93593,-0.025 -0.306,-0.017 -0.67876,-0.0202 -1.11876,-0.0562 -0.439,-0.041 -0.93718,-0.0812 -1.49218,-0.13125 -2.213,-0.237 -5.33431,-0.81957 -8.79531,-2.20157 -1.711,-0.71 -3.50351,-1.61394 -5.23751,-2.76094 -1.744,-1.14 -3.43118,-2.52706 -4.94218,-4.11406 -1.5,-1.587 -2.82644,-3.37362 -3.87344,-5.240624 -1.046,-1.871 -1.8145,-3.808936 -2.3125,-5.660936 -0.506,-1.865 -0.69362,-3.634184 -0.74062,-5.242192 -0.014,-1.618 0.11831,-3.085808 0.39531,-4.382808 0.139,-0.655 0.27931,-1.262248 0.47031,-1.831248 0.186,-0.569 0.34944,-1.105752 0.57344,-1.593752 0.209,-0.497 0.42363,-0.95344 0.64063,-1.37344 0.228,-0.419 0.45949,-0.801808 0.68749,-1.157808 0.912,-1.405 1.79744,-2.29688 2.44844,-2.84688 0.65,-0.542 1.04219,-0.754688 1.04219,-0.754688 0,0 0.22737,0.398632 0.53437,1.165632 0.295,0.768 0.694,1.903496 1.1,3.337496 0.104,0.363 0.20032,0.737496 0.29532,1.137496 0.116,0.396008 0.22,0.81232 0.325,1.24532 0.086,0.435 0.22937,0.882432 0.33437,1.348432 0.086,0.473 0.22138,0.952 0.33438,1.45 0.217,0.975 0.45918,2.045816 0.71718,3.207816 0.287,1.13 0.54975,2.336184 0.89375,3.617184 0.683,2.555 1.60094,5.447376 3.13594,8.284376 1.524,2.820004 3.65813,5.533244 5.95313,7.756244 1.156,1.101 2.33569,2.0862 3.45469,2.9422 0.568,0.418 1.11324,0.80687 1.63124,1.17187 0.525,0.34 1.00994,0.67037 1.46094,0.95937 0.467,0.278 0.88444,0.533 1.24844,0.75 0.369,0.225 0.69225,0.39219 0.95625,0.5422 0.529,0.29499 0.81562,0.4578 0.81562,0.4578 z M 323.925,98.75797 c 0,0 -0.30513,-0.984808 -0.80313,-2.607808 -0.278,-0.803 -0.62169,-1.735944 -1.00469,-2.760944 -0.453,-1.004 -0.86043,-2.121248 -1.47343,-3.206248 -1.107,-2.217 -2.5595,-4.427248 -4.1375,-6.306248 -1.579,-1.898 -3.29031,-3.475688 -4.77031,-4.904688 -2.205,-2.168 -3.93007,-4.104248 -5.16407,-5.906248 -0.315,-0.442 -0.60105,-0.879 -0.83905,-1.3 -0.25,-0.42 -0.48838,-0.790624 -0.68438,-1.165624 -0.406,-0.732 -0.679,-1.378568 -0.875,-1.876568 0.43,0.309 0.86543,0.619816 1.29843,0.932816 0.287,0.198 0.57151,0.397 0.86251,0.6 0.277,0.212 0.56324,0.419808 0.83124,0.632808 0.572,0.416 1.15251,0.81788 1.68751,1.27188 l 0.83593,0.65 c 0.277,0.211 0.55538,0.419936 0.80938,0.660936 0.519,0.462 1.06925,0.886936 1.58125,1.335936 0.248,0.237 0.49662,0.469128 0.74062,0.703128 0.254,0.222 0.51225,0.441752 0.75625,0.668752 0.228,0.239 0.46219,0.476936 0.69219,0.710936 0.235,0.228 0.46756,0.456248 0.70156,0.681248 0.442,0.465 0.84851,0.953 1.28751,1.4 0.219,0.212 0.40118,0.461752 0.59218,0.693752 0.192,0.239 0.373,0.465624 0.575,0.690624 0.4,0.435 0.71538,0.912688 1.05938,1.354688 0.326,0.44 0.67962,0.851432 0.94062,1.29844 0.293,0.426992 0.57918,0.833312 0.84218,1.220312 0.274,0.392 0.47313,0.785056 0.70313,1.139056 0.229,0.36 0.44363,0.694 0.64063,1 0.172,0.318 0.32393,0.607312 0.48593,0.870312 0.307,0.528 0.55075,0.934752 0.71875,1.218752 0.143,0.285 0.22032,0.437504 0.22032,0.437504 0,0 -0.029,-0.18444 -0.0859,-0.52344 -0.096,-0.33 -0.2155,-0.821248 -0.3875,-1.431248 -0.092,-0.299 -0.16181,-0.646 -0.28281,-1 -0.133,-0.358 -0.27731,-0.749936 -0.42031,-1.160936 -0.162,-0.407 -0.29125,-0.85232 -0.50625,-1.29532 -0.201,-0.439992 -0.41626,-0.900496 -0.63126,-1.387496 -0.105,-0.249 -0.23887,-0.488 -0.37187,-0.725 -0.134,-0.243 -0.26725,-0.487752 -0.40625,-0.743752 -0.139,-0.246 -0.27688,-0.502064 -0.42188,-0.764064 -0.148,-0.249 -0.31993,-0.49356 -0.48593,-0.75156 -0.168,-0.253 -0.33112,-0.505624 -0.50312,-0.765624 -0.172,-0.263 -0.33538,-0.527 -0.53438,-0.775 -0.198,-0.256 -0.39275,-0.509504 -0.59375,-0.762496 -0.191,-0.258 -0.39319,-0.516256 -0.59219,-0.781256 -0.221,-0.249 -0.44194,-0.495064 -0.66094,-0.739064 -0.221,-0.256 -0.44438,-0.509184 -0.65938,-0.767184 -0.225,-0.263 -0.47849,-0.491936 -0.71249,-0.735936 -0.242,-0.243 -0.48663,-0.482248 -0.74063,-0.731248 -0.479,-0.501 -1.00381,-0.941944 -1.53281,-1.410944 l -0.79531,-0.696872 -0.82656,-0.65 c -1.099,-0.894 -2.25476,-1.691872 -3.39376,-2.496872 -0.43,-0.28 -0.86531,-0.557816 -1.29531,-0.832816 0.635,-0.103 1.41344,-0.208376 2.29844,-0.184376 0.875,0.04704 1.89312,0.134752 3.00312,0.418752 1.099,0.304 2.34082,0.709128 3.60782,1.428128 0.311,0.173 0.63587,0.358248 0.97187,0.556248 0.324,0.198 0.63944,0.441808 0.97344,0.682808 0.651,0.493 1.33862,1.000064 1.96562,1.664064 2.108,2.031 4.042,4.937504 5.2,8.137504 1.186,3.198 1.601,6.565432 1.525,9.448432 0.019,1.438 -0.20606,2.772752 -0.33906,3.943752 -0.225,1.179 -0.445,2.201312 -0.65,3.045312 -0.493,1.68 -0.82656,2.65 -0.82656,2.65 z m -147.8375,-0.0016 c 0,0 -0.33925,-0.96688 -0.83125,-2.646872 -0.21,-0.844008 -0.431,-1.86732 -0.65,-3.04532 -0.134,-1.171 -0.35375,-2.507872 -0.34375,-3.946872 -0.077,-2.878 0.34312,-6.248872 1.52812,-9.446872 1.157,-3.2 3.09756,-6.107064 5.20156,-8.139064 0.196,-0.191 0.39182,-0.381624 0.58282,-0.565624 0.201,-0.18 0.40182,-0.341128 0.60782,-0.503128 0.406,-0.318 0.803,-0.624376 1.2,-0.909376 0.382,-0.292 0.79236,-0.515496 1.18436,-0.737496 0.397,-0.218 0.78326,-0.421936 1.15626,-0.610936 0.191,-0.09 0.37425,-0.183064 0.55625,-0.264064 0.195,-0.06904 0.38206,-0.141936 0.56406,-0.210936 0.373,-0.134 0.72569,-0.256256 1.07969,-0.356256 0.344,-0.106 0.68212,-0.202376 1.00312,-0.284376 0.339,-0.062 0.664,-0.109808 0.975,-0.157808 0.621,-0.086 1.19626,-0.13144 1.73126,-0.14844 0.526,-0.014 1.0238,0.0348 1.4578,0.08282 0.884,0.103 1.58113,0.26956 2.07813,0.42656 -0.515,0.153 -1.04157,0.316248 -1.57657,0.481248 -0.345,0.119 -0.69818,0.228312 -1.04218,0.345312 -0.345,0.139 -0.68725,0.279632 -1.03125,0.415624 -0.689,0.299008 -1.39193,0.569504 -2.06093,0.937504 l -1.00938,0.55 c -0.345,0.177 -0.67306,0.358128 -0.98906,0.578128 -0.64,0.428 -1.30082,0.832432 -1.90782,1.298432 -0.296,0.244 -0.60174,0.48288 -0.89374,0.72188 -0.291,0.248 -0.58207,0.486624 -0.86407,0.740624 -0.268,0.262 -0.53981,0.524624 -0.80781,0.790624 -0.253,0.27 -0.51332,0.537 -0.77032,0.8 -0.483,0.559 -0.93649,1.128624 -1.36249,1.690624 -0.224,0.28 -0.41588,0.573504 -0.59688,0.862504 -0.191,0.289 -0.36463,0.578184 -0.54063,0.867184 -0.359,0.562 -0.64949,1.145064 -0.91249,1.714064 -0.254,0.574 -0.52019,1.102248 -0.69219,1.656248 -0.178,0.538 -0.34112,1.054184 -0.50312,1.542184 -0.149,0.492 -0.22464,0.972816 -0.31564,1.407816 -0.081,0.444 -0.153,0.853248 -0.225,1.231248 -0.028,0.38 -0.0613,0.730752 -0.0703,1.043752 -0.039,0.617 -0.0494,1.10144 -0.0594,1.42344 0.019,0.33 0.0297,0.504688 0.0297,0.504688 0,0 0.0534,-0.184064 0.13438,-0.514064 0.1,-0.33 0.26644,-0.805376 0.44844,-1.409376 0.096,-0.294 0.19169,-0.633376 0.32969,-0.984376 0.139,-0.349 0.29269,-0.727376 0.45469,-1.134376 0.172,-0.399 0.32506,-0.82856 0.56406,-1.25156 0.22,-0.43 0.44943,-0.876184 0.69843,-1.342184 0.115,-0.239 0.262,-0.46688 0.4,-0.69688 0.154,-0.227 0.297,-0.460184 0.45,-0.692184 0.153,-0.241 0.30675,-0.47788 0.46875,-0.72188 0.163,-0.239 0.35338,-0.461 0.53438,-0.7 0.182,-0.234 0.36431,-0.473936 0.54531,-0.710936 0.187,-0.239 0.38313,-0.476 0.60313,-0.7 0.21,-0.222 0.41625,-0.452376 0.63125,-0.684376 0.22,-0.224 0.43881,-0.453936 0.65781,-0.685936 0.24,-0.212 0.47975,-0.424064 0.71875,-0.639064 0.243,-0.213 0.48725,-0.433744 0.73125,-0.643752 0.234,-0.229 0.51075,-0.412808 0.76875,-0.607808 0.268,-0.199 0.53113,-0.395872 0.80313,-0.596872 0.507,-0.416 1.10037,-0.728752 1.65937,-1.093752 0.282,-0.177 0.56331,-0.348312 0.84531,-0.520312 l 0.89844,-0.459376 c 1.162,-0.655 2.4,-1.140504 3.6,-1.637504 0.455,-0.163 0.9125,-0.315312 1.3625,-0.470312 -0.268,0.561 -0.63056,1.169816 -1.05156,1.857816 -0.401,0.703 -0.92857,1.414128 -1.50157,2.17812 -0.56,0.782008 -1.25143,1.539944 -1.97343,2.385944 -0.187,0.203 -0.37869,0.40556 -0.57969,0.60156 -0.205,0.21 -0.38619,0.437312 -0.59219,0.645312 -0.402,0.435 -0.87938,0.838688 -1.30938,1.304688 -1.482,1.43 -3.19262,3.006688 -4.76562,4.904688 -1.582,1.878 -3.02574,4.089808 -4.14374,6.307808 -0.602,1.085008 -1.01288,2.200688 -1.47188,3.204688 -0.383,1.025 -0.728,1.956376 -1,2.759376 -0.498,1.623 -0.79844,2.607816 -0.79844,2.607816 z M 43.385938,78.262658 c 0,0 -0.249751,-0.102376 -0.718751,-0.284376 -0.478,-0.179 -1.146749,-0.487064 -1.968749,-0.939064 -0.813,-0.461 -1.788188,-1.065808 -2.792188,-1.882808 -1.022,-0.813 -2.08825,-1.823 -3.10625,-3.025 -2.051,-2.383 -3.863125,-5.594624 -4.853125,-9.140624 -1.018,-3.53 -1.093125,-7.406376 -0.228125,-10.659376 0.669,-2.45 1.849812,-4.492872 3.207812,-6.021872 1.357,-1.538008 2.900376,-2.556568 4.334376,-3.151568 0.358,-0.148 0.704124,-0.283376 1.053124,-0.384376 0.358,-0.095 0.692188,-0.177312 1.017188,-0.245312 0.636,-0.136 1.261937,-0.166872 1.810937,-0.171872 0.55,-0.0048 1.057251,0.05552 1.506251,0.137496 0.445,0.076 0.817187,0.17244 1.142187,0.27344 -0.263,0.119 -0.535438,0.232688 -0.798438,0.354688 -0.277,0.112 -0.549125,0.243872 -0.803125,0.396872 -0.698,0.371 -1.356249,0.80488 -2.006249,1.29688 l -0.942188,0.793752 c -0.301,0.282992 -0.593375,0.573872 -0.884375,0.871872 -1.114,1.227 -2.075437,2.621752 -2.773437,4.118752 -0.191,0.366 -0.352251,0.741432 -0.506251,1.123432 -0.143,0.38 -0.286875,0.764568 -0.396875,1.151568 -0.12,0.383 -0.248374,0.761312 -0.334374,1.145312 -0.09,0.385 -0.180751,0.772808 -0.243751,1.157808 -0.057,0.38 -0.113875,0.757816 -0.171875,1.132816 -0.038,0.378 -0.06594,0.752 -0.08594,1.125 -0.023,0.364 -0.01944,0.728064 -0.02344,1.089064 -0.015,0.359 0.0047,0.716936 0.04375,1.060936 0.038,0.693 0.104751,1.358312 0.218751,1.995312 0.134,0.633 0.253625,1.235808 0.415625,1.807808 0.172,0.564 0.344375,1.102064 0.534375,1.589064 0.187,0.497 0.396812,0.956624 0.607812,1.365624 0.205,0.42 0.420875,0.795376 0.621875,1.134376 0.191,0.342 0.391187,0.645128 0.592187,0.903128 0.191,0.263 0.364188,0.494184 0.517188,0.692184 0.162,0.189 0.305938,0.349688 0.410938,0.479688 0.225,0.255 0.343749,0.387504 0.343749,0.387504 0,0 -0.04875,-0.177376 -0.143749,-0.509376 -0.048,-0.163 -0.104251,-0.369128 -0.181251,-0.603128 -0.057,-0.239 -0.138312,-0.510064 -0.220312,-0.814064 -0.091,-0.301 -0.1565,-0.639936 -0.2375,-1.010936 -0.087,-0.365 -0.153688,-0.766872 -0.229688,-1.196872 -0.086,-0.421 -0.129812,-0.878248 -0.182812,-1.356248 -0.057,-0.481 -0.09444,-0.979 -0.123437,-1.5 -0.029,-1.052 -0.03831,-2.17844 0.104687,-3.34844 0.019,-0.297 0.05669,-0.587376 0.104687,-0.884376 0.048,-0.299 0.08613,-0.59756 0.153126,-0.90156 0.062,-0.294 0.125187,-0.597128 0.192187,-0.903128 0.076,-0.304 0.157438,-0.602808 0.248438,-0.907808 0.072,-0.299 0.186249,-0.601128 0.281249,-0.903128 0.11,-0.299 0.205063,-0.606184 0.339063,-0.892184 0.235,-0.601 0.5165,-1.17388 0.8125,-1.74688 0.153,-0.278 0.3165,-0.558496 0.4875,-0.837496 0.168,-0.268 0.354563,-0.527312 0.526563,-0.795312 0.163,-0.274 0.387125,-0.514632 0.578125,-0.765632 0.196,-0.255 0.406875,-0.484624 0.621875,-0.715624 0.841,-0.94 1.792312,-1.730376 2.795312,-2.359376 0.378,-0.229 0.755813,-0.441936 1.132813,-0.635936 0.034,1.133 0.083,2.724192 0.15,4.842192 -0.01,0.406 0.019,0.84712 0,1.25312 0.004,0.43 -0.04038,0.830752 -0.05938,1.268752 -0.076,0.845 -0.227563,1.71356 -0.476563,2.67656 -0.411,1.563 -1.157875,3.431568 -1.721875,5.651568 -0.564,2.209 -1.004562,4.72412 -1.051562,7.12812 -0.091,2.412 0.2205,4.689504 0.5875,6.362504 0.197,0.829 0.387624,1.521808 0.540624,1.982808 0.148,0.479 0.231251,0.743752 0.231251,0.743752 z m 413.231242,0 c 0,0 0.0811,-0.265752 0.23907,-0.743752 0.149,-0.461 0.3315,-1.15112 0.5375,-1.97812 0.367,-1.673 0.67625,-3.956192 0.58125,-6.367192 -0.047,-2.404 -0.47756,-4.91856 -1.05156,-7.12656 -0.565,-2.22 -1.31119,-4.090128 -1.71719,-5.653128 -0.32,-1.172 -0.46263,-2.201248 -0.51563,-3.231248 -0.043,-1.031 -0.0181,-2.045064 0.011,-3.064064 0.082,-2.036 0.10895,-4.067184 0.16094,-5.392184 0.15501,0.204 0.30163,0.401808 0.46563,0.607808 0.152,0.193 0.30443,0.396376 0.44843,0.609376 0.391,0.528 0.73069,1.090504 1.07969,1.637504 l 0.48438,0.837496 c 0.138,0.294 0.28975,0.584064 0.44375,0.864064 0.582,1.147 1.02775,2.331624 1.44375,3.515624 0.114,0.289 0.19612,0.593504 0.27812,0.887504 0.103,0.295 0.19926,0.586496 0.28126,0.887496 0.082,0.299 0.16681,0.588192 0.23281,0.892192 0.057,0.301 0.16387,0.582688 0.22187,0.879688 0.07,0.298 0.13244,0.592808 0.19844,0.882808 0.053,0.293 0.11281,0.58288 0.18281,0.87188 0.068,0.284 0.0951,0.571936 0.15312,0.860936 0.053,0.28 0.0968,0.565312 0.14376,0.845312 0.119,0.557 0.16244,1.107624 0.24844,1.640624 0.072,0.533 0.15762,1.055064 0.19062,1.564064 0.059,0.502 0.11869,0.988 0.15469,1.45 0.047,0.466 0.0764,0.913248 0.10937,1.331248 0.047,0.425 0.0627,0.820936 0.0797,1.185936 0.029,0.371 0.0434,0.709752 0.0594,1.018752 0.023,0.31 0.0466,0.58656 0.0656,0.82656 0.006,0.243 0.0103,0.450312 0.0203,0.620312 0.019,0.339 0.0281,0.517192 0.0281,0.517192 0,0 0.071,-0.172504 0.2,-0.487504 0.069,-0.163 0.14407,-0.360496 0.23907,-0.587496 0.077,-0.235 0.16675,-0.501816 0.26875,-0.807816 0.105,-0.294 0.19,-0.635 0.3,-1 0.109,-0.363 0.20556,-0.759064 0.30156,-1.189064 0.105,-0.421 0.20031,-0.880936 0.29531,-1.360936 0.106,-0.478 0.13969,-0.989184 0.22969,-1.517184 0.139,-1.056 0.24406,-2.201 0.26406,-3.425 0,-0.304 -2.4e-4,-0.613688 -0.006,-0.929688 -0.008,-0.308 5.6e-4,-0.62644 -0.0234,-0.94844 -0.023,-0.318 -0.0435,-0.643752 -0.0625,-0.968752 -0.028,-0.327 -0.0561,-0.659056 -0.0891,-0.989056 -0.033,-0.334 -0.0828,-0.665 -0.14375,-1 -0.045,-0.339 -0.0958,-0.68032 -0.16875,-1.020312 -0.125,-0.678 -0.29519,-1.361568 -0.46719,-2.051568 -0.116,-0.345 -0.21519,-0.687936 -0.31719,-1.035936 -0.113,-0.347 -0.2315,-0.686248 -0.3625,-1.031248 -0.123,-0.346 -0.27531,-0.674752 -0.42031,-1.018752 -0.129,-0.349 -0.29113,-0.686752 -0.45313,-1.018752 -0.674,-1.336 -1.45368,-2.64756 -2.40468,-3.85156 -0.356,-0.443 -0.713,-0.87844 -1.1,-1.29844 1.596,-0.163 3.91019,0.05336 6.34219,1.559376 0.627,0.366 1.20125,0.828248 1.80625,1.356248 0.571,0.541 1.169,1.146688 1.675,1.854688 1.067,1.398 1.96437,3.142816 2.50937,5.157816 0.865,3.252 0.78863,7.129376 -0.23437,10.659376 -0.991,3.547 -2.79656,6.759184 -4.85156,9.142184 -1.017,1.202 -2.08482,2.20988 -3.10782,3.02188 -0.994,0.818 -1.97825,1.422368 -2.78125,1.884368 -0.832,0.451 -1.50144,0.758632 -1.97344,0.940632 -0.463,0.18 -0.72344,0.282808 -0.72344,0.282808 z m -222.90156,-8.25 c -0.364,-0.012 -0.70718,-0.07184 -1.04218,-0.121872 -0.329,-0.06 -0.65026,-0.117624 -0.95626,-0.215624 -0.296,-0.105 -0.57862,-0.221752 -0.84062,-0.343752 -0.268,-0.124 -0.51662,-0.244312 -0.74062,-0.395312 -0.225,-0.152 -0.43556,-0.31544 -0.62656,-0.47344 -0.392,-0.325 -0.72163,-0.642496 -0.96563,-1.012496 -0.507,-0.715 -0.81288,-1.390752 -0.94688,-2.043752 -0.138,-0.636 -0.16212,-1.178376 -0.15312,-1.584376 0.201,0.224 0.41025,0.435376 0.63125,0.659376 0.152,0.142 0.29738,0.29456 0.45938,0.42656 0.163,0.122 0.33424,0.246752 0.50624,0.368752 l 0.53594,0.360936 c 0.182,0.112 0.37682,0.203688 0.58282,0.304688 l 0.27656,0.129688 c 0.048,0.136 0.11593,0.307064 0.21093,0.489064 0.063,0.122 0.139,0.244936 0.225,0.360936 0.086,0.122 0.19657,0.239624 0.30157,0.365624 0.12,0.117 0.23825,0.243128 0.38125,0.353128 0.144,0.117 0.288,0.23 0.45,0.325 0.163,0.095 0.33425,0.162688 0.50625,0.229688 0.171,0.07 0.353,0.110496 0.525,0.162496 0.173,0.05 0.34581,0.0616 0.50781,0.09062 0.163,0.014 0.31538,0.0048 0.45938,0 0.143,-0.014 0.26087,-0.0091 0.37187,-0.02808 0.114,-0.022 0.21618,-0.0376 0.29218,-0.0516 0.158,-0.02696 0.24844,-0.04216 0.24844,-0.04216 0,0 -0.0911,-0.0093 -0.25312,-0.02032 -0.072,-0.008 -0.17256,-0.0144 -0.27656,-0.02344 -0.111,-0.0048 -0.21969,-0.0416 -0.35469,-0.0656 -0.124,-0.026 -0.25381,-0.05216 -0.38281,-0.103128 -0.134,-0.04504 -0.27694,-0.107248 -0.41094,-0.181248 -0.119,-0.081 -0.25844,-0.152 -0.37344,-0.25 -0.114,-0.091 -0.22781,-0.182064 -0.33281,-0.289064 -0.101,-0.096 -0.19212,-0.206744 -0.27812,-0.318744 -0.077,-0.103 -0.13769,-0.224064 -0.20469,-0.339064 -0.024,-0.052 -0.0435,-0.104248 -0.0625,-0.156248 0.229,0.074 0.48657,0.08162 0.72656,0.115624 0.22401,0.02304 0.44875,0.04472 0.66875,0.06872 0.224,0.01704 0.44875,-0.02144 0.66875,-0.02344 0.224,-0.01696 0.43994,-0.03128 0.66094,-0.04528 0.228,-0.012 0.42906,-0.08869 0.63906,-0.129688 0.416,-0.107 0.84169,-0.181752 1.20469,-0.368752 0.369,-0.167 0.75431,-0.289248 1.07031,-0.506248 0.11,-0.074 0.22,-0.143064 0.325,-0.214064 0.038,0.012 0.0766,0.01296 0.11563,0.02496 0.23,0.04 0.49681,0.07416 0.78281,0.0672 0.283,-0.022 0.58363,-0.093 0.86563,-0.175 0.138,-0.05 0.28318,-0.09 0.41718,-0.15 0.143,-0.058 0.26588,-0.121312 0.37188,-0.195312 0.114,-0.074 0.224,-0.151184 0.325,-0.217184 0.105,-0.07 0.19212,-0.145936 0.27812,-0.210936 0.162,-0.129 0.28088,-0.261192 0.37188,-0.342192 0.086,-0.091 0.12969,-0.142184 0.12969,-0.142184 0,0 -0.0568,0.03856 -0.15782,0.10156 -0.114,0.05696 -0.254,0.14944 -0.45,0.22344 -0.096,0.04 -0.191,0.08087 -0.3,0.121872 -0.11,0.038 -0.22562,0.06992 -0.34062,0.110936 -0.119,0.03096 -0.2385,0.06224 -0.3625,0.08126 -0.124,0.022 -0.25881,0.0228 -0.38281,0.0328 -0.249,0 -0.48813,-0.02216 -0.70313,-0.0672 0.119,-0.117 0.24475,-0.227624 0.36875,-0.340624 0.109,-0.112 0.21963,-0.216376 0.31563,-0.334376 0.095,-0.117 0.18087,-0.232752 0.27187,-0.343752 0.167,-0.229 0.33006,-0.442 0.46406,-0.65 0.248,-0.432 0.43975,-0.813376 0.56875,-1.134376 0.144,-0.308 0.19576,-0.587064 0.24376,-0.764064 0.053,-0.173 0.0718,-0.271872 0.0718,-0.271872 0,0 -0.0713,0.06864 -0.19532,0.190624 -0.125,0.127 -0.30668,0.310624 -0.55468,0.515624 -0.249,0.204 -0.52732,0.483504 -0.89532,0.737504 -0.172,0.131 -0.37712,0.26556 -0.57812,0.40156 -0.191,0.148 -0.41481,0.27644 -0.65781,0.39844 -0.23,0.12 -0.46951,0.27012 -0.73751,0.37812 -0.267,0.101 -0.54049,0.207504 -0.81249,0.312504 -0.287,0.108 -0.59207,0.158688 -0.88907,0.229688 -0.157,0.02896 -0.30106,0.08162 -0.46406,0.09062 -0.148,0.01704 -0.30987,0.03064 -0.47187,0.04064 -0.106,0.01 -0.22094,0.01928 -0.33594,0.03128 0.01,-0.062 0.029,-0.135872 0.039,-0.221872 0.023,-0.093 0.0386,-0.210624 0.0766,-0.315624 0.038,-0.122 0.0864,-0.235 0.13438,-0.35 0.048,-0.114 0.10393,-0.229064 0.16093,-0.339064 0.072,-0.108 0.13394,-0.214192 0.21094,-0.317192 l 0.10469,-0.168744 c 0.039,-0.05296 0.0816,-0.09375 0.11562,-0.143752 0.076,-0.096 0.15307,-0.195376 0.23907,-0.259376 0.076,-0.076 0.15144,-0.151752 0.22344,-0.218752 0.082,-0.06904 0.15331,-0.14112 0.22031,-0.20312 0.129,-0.122 0.25806,-0.18288 0.33906,-0.24688 0.086,-0.05296 0.13437,-0.09687 0.13437,-0.09687 0,0 -0.0675,0.0184 -0.1625,0.0344 -0.106,0.022 -0.25731,0.02328 -0.42031,0.08125 -0.091,0.024 -0.17244,0.05496 -0.27344,0.08594 -0.09,0.03096 -0.18562,0.05944 -0.29062,0.09844 -0.105,0.024 -0.20125,0.08062 -0.30625,0.140624 -0.048,0.024 -0.10513,0.05616 -0.15313,0.09219 0,0.012 -0.15312,0.1 -0.15313,0.1 -0.109,0.058 -0.20024,0.153056 -0.30624,0.239056 -0.1,0.093 -0.19619,0.215 -0.29219,0.325 -0.09,0.112 -0.19488,0.217752 -0.27188,0.343752 -0.096,0.117 -0.17087,0.255688 -0.24687,0.379688 -0.067,0.139 -0.14018,0.260816 -0.19218,0.382816 -0.068,0.119 -0.11013,0.234624 -0.15313,0.315624 -0.018,0.074 -0.0476,0.128936 -0.0656,0.185936 -0.096,-0.01904 -0.19251,-0.0408 -0.28751,-0.05784 -0.316,-0.05904 -0.6318,-0.123312 -0.9328,-0.245312 -0.302,-0.112 -0.59738,-0.198312 -0.88438,-0.370312 -0.277,-0.158 -0.5545,-0.284432 -0.8125,-0.473432 -0.249,-0.186 -0.49632,-0.368256 -0.74532,-0.556256 -0.162,-0.163 -0.32449,-0.320808 -0.48749,-0.482808 0.76,-0.421 1.69293,-0.949624 2.48593,-1.415624 0.201,-0.122 0.39144,-0.234312 0.57344,-0.320312 0.186,-0.117 0.35832,-0.227752 0.52032,-0.293752 0.043,-0.02104 0.0813,-0.04 0.12031,-0.05 l 0.125,-0.07192 c 0.081,-0.04104 0.15213,-0.06864 0.22813,-0.09062 0.16199,-0.03096 0.31612,-0.112496 0.47812,-0.112496 0.516,-0.06304 1.22324,0.09362 2.25624,0.04064 1.013,-0.04504 2.31913,-0.273816 3.52813,-0.732816 0.32,-0.09 0.60244,-0.229872 0.89844,-0.346872 0.287,-0.127 0.59256,-0.230312 0.85156,-0.370312 0.525,-0.271 1.04244,-0.507184 1.44844,-0.742184 0.841,-0.48 1.35156,-0.776568 1.35156,-0.776568 0,0 0.0478,0.582752 0.0578,1.593752 0,0.502 -0.0578,1.091248 -0.14375,1.781248 -0.03,0.352 -0.11862,0.695 -0.19062,1.075 -0.091,0.366 -0.16263,0.771624 -0.31563,1.165624 -0.487,1.604 -1.45306,3.392256 -2.96406,4.881256 -0.191,0.184 -0.37282,0.375184 -0.58282,0.542184 -0.22,0.17 -0.43,0.334064 -0.65,0.489064 -0.22,0.163 -0.44975,0.312184 -0.66875,0.467184 -0.248,0.129 -0.4885,0.257688 -0.7375,0.379688 -0.238,0.115 -0.48693,0.232064 -0.73593,0.339064 -0.248,0.101 -0.50663,0.174 -0.76563,0.25 -0.515,0.144 -1.01612,0.284936 -1.52812,0.310936 -0.373,0.03304 -0.75538,0.05472 -1.10938,0.05472 z m 32.38282,-0.0048 c -0.299,-0.0024 -0.60682,-0.02408 -0.92031,-0.05152 -0.506,-0.026 -1.00769,-0.166936 -1.52969,-0.310936 -0.248,-0.076 -0.51526,-0.14688 -0.75626,-0.24688 -0.257,-0.108 -0.50031,-0.225624 -0.74531,-0.340624 -0.242,-0.121 -0.48656,-0.250688 -0.72656,-0.379688 -0.225,-0.155 -0.44975,-0.305744 -0.66875,-0.468744 -0.231,-0.155008 -0.439,-0.317504 -0.65,-0.487504 -0.22,-0.167 -0.40274,-0.358184 -0.59374,-0.542184 -1.51,-1.489 -2.47451,-3.277256 -2.96251,-4.881256 -0.153,-0.394 -0.21981,-0.799624 -0.30781,-1.165624 -0.076,-0.379 -0.17144,-0.72456 -0.19844,-1.07656 -0.076,-0.69 -0.13906,-1.277688 -0.13906,-1.779688 0.004,-1.011 0.0625,-1.593752 0.0625,-1.593752 0,0 0.50588,0.29556 1.34688,0.776568 0.401,0.233992 0.92244,0.471184 1.44844,0.742184 0.254,0.14 0.56369,0.241752 0.85468,0.368752 0.293,0.117 0.57519,0.259 0.89219,0.35 1.219,0.459 2.51169,0.686248 3.52969,0.731248 1.037,0.05296 1.73713,-0.103624 2.25313,-0.04064 0.105,0.0048 0.20087,0.02536 0.29687,0.05936 0.09,0.03296 0.18438,0.04128 0.28438,0.08125 0.086,0.036 0.19212,0.102752 0.27812,0.143752 0.106,0.04096 0.20563,0.09212 0.31562,0.15312 0.10501,0.04904 0.21201,0.130624 0.32501,0.190624 0.105,0.056 0.22431,0.117064 0.34531,0.189064 0.238,0.131 0.47637,0.310688 0.73437,0.429688 1.024,0.61 2.137,1.188936 2.85,1.635936 -0.268,0.046 -0.53575,0.09019 -0.79375,0.142192 -0.172,0.034 -0.33381,0.08256 -0.50781,0.10156 -0.172,0.02104 -0.33825,0.03496 -0.50625,0.06096 l -0.4875,0.08126 -0.4875,0.02032 -0.22969,0.02344 c -0.09,-0.096 -0.19106,-0.21312 -0.31406,-0.32812 -0.083,-0.081 -0.16481,-0.168688 -0.25781,-0.254688 -0.082,-0.096 -0.18232,-0.18388 -0.27032,-0.27188 -0.094,-0.082 -0.185,-0.170056 -0.27499,-0.239056 -0.092,-0.07696 -0.18213,-0.149128 -0.27813,-0.203128 -0.085,-0.07704 -0.17182,-0.139064 -0.25782,-0.189064 -0.086,-0.06504 -0.16243,-0.09213 -0.24843,-0.12812 -0.067,-0.04104 -0.14294,-0.0444 -0.21094,-0.05936 -0.071,-0.03496 -0.13363,-0.04 -0.19063,-0.05 -0.062,-0.0072 -0.11505,-0.02616 -0.16405,-0.0172 -0.043,0.0048 -0.0949,0.01016 -0.12188,0.0172 -0.068,0.0016 -0.10625,0.0156 -0.10625,0.0156 0,0 0.0373,0.01272 0.0953,0.04376 0.03,0.014 0.0742,0.03648 0.11719,0.06248 0.046,0.014 0.0946,0.06368 0.15156,0.104688 0.047,0.04096 0.10394,0.08144 0.16094,0.14844 0.057,0.072 0.13018,0.09587 0.19218,0.171872 0.057,0.07696 0.1292,0.132 0.1922,0.225 0.066,0.081 0.141,0.164496 0.2,0.262496 0.07,0.091 0.13262,0.199 0.19062,0.3 0.077,0.102 0.13387,0.21144 0.19687,0.29844 0.019,0.04704 0.0518,0.08869 0.0719,0.129688 -0.164,0.01904 -0.33044,-0.02176 -0.49844,-0.01872 -0.143,-0.0032 -0.28706,-0.01632 -0.43906,-0.02032 -0.139,0.01104 -0.28075,-0.02792 -0.41875,-0.03592 -0.145,-0.014 -0.28881,-0.02832 -0.43281,-0.04528 -0.143,0.0048 -0.27638,-0.04072 -0.40938,-0.05472 -0.278,-0.05 -0.56513,-0.06976 -0.82813,-0.143752 -0.262,-0.06 -0.53487,-0.0885 -0.79687,-0.162496 -0.096,-0.024 -0.18213,-0.04776 -0.27813,-0.06872 0,-0.03096 -0.0154,-0.06072 -0.0234,-0.09375 -0.062,-0.182 -0.13937,-0.373 -0.23437,-0.55 -0.086,-0.203 -0.20126,-0.387 -0.30626,-0.55 -0.063,-0.076 -0.12462,-0.153184 -0.19062,-0.217184 -0.067,-0.06304 -0.12519,-0.139128 -0.19219,-0.203128 -0.066,-0.06 -0.12418,-0.117872 -0.19218,-0.171872 -0.057,-0.05096 -0.11888,-0.09025 -0.17188,-0.131248 -0.109,-0.093 -0.21862,-0.134688 -0.29062,-0.179688 -0.067,-0.046 -0.1,-0.06872 -0.1,-0.06872 0,0 0.0182,0.0404 0.0672,0.109376 0.043,0.068 0.12331,0.148312 0.19532,0.270312 0.043,0.05896 0.0817,0.127872 0.11874,0.196872 0.029,0.078 0.0726,0.157064 0.11562,0.239064 0.039,0.086 0.0563,0.179752 0.0953,0.268752 0.043,0.086 0.0662,0.181 0.10625,0.275 0.056,0.186 0.0983,0.379312 0.13125,0.570312 -0.132,-0.04 -0.25656,-0.0748 -0.37656,-0.107816 -0.119,-0.036 -0.24419,-0.06216 -0.36719,-0.10312 -0.105,-0.04096 -0.22394,-0.08262 -0.33594,-0.115624 -0.218,-0.081 -0.43813,-0.147376 -0.65313,-0.209376 -0.416,-0.136 -0.77149,-0.294936 -1.08749,-0.385936 -0.324,-0.096 -0.56169,-0.192816 -0.72969,-0.257816 -0.178,-0.062 -0.26406,-0.09531 -0.26406,-0.09531 0,0 0.0581,0.07816 0.16406,0.217184 0.113,0.136 0.26825,0.348752 0.50625,0.568752 0.228,0.227 0.49819,0.526624 0.84219,0.815624 0.171,0.141 0.35331,0.297624 0.54531,0.465624 0.185,0.174 0.41038,0.310752 0.63438,0.468752 0.231,0.155 0.45762,0.338936 0.71562,0.485936 0.26,0.146 0.532,0.293256 0.8,0.456256 0.287,0.148 0.59443,0.259 0.89843,0.4 0.153,0.06704 0.29988,0.148056 0.47188,0.189056 0.164,0.05 0.32575,0.100944 0.49375,0.160944 0.113,0.036 0.23937,0.07304 0.35937,0.114056 -0.03,0.06 -0.0739,0.121632 -0.11093,0.190624 -0.058,0.07696 -0.12494,0.175256 -0.21094,0.256256 -0.086,0.096 -0.19525,0.171064 -0.30625,0.264064 -0.114,0.06904 -0.24193,0.149184 -0.38593,0.217184 -0.149,0.054 -0.30207,0.143504 -0.46407,0.162496 l -0.25781,0.04528 c -0.076,0.01 -0.172,0.0087 -0.25,0.01872 -0.176,0.01104 -0.353,0.01968 -0.525,0.0048 -0.166,-0.01904 -0.34731,-0.004 -0.49531,-0.05472 -0.158,-0.04 -0.30763,-0.07448 -0.44063,-0.112496 -0.277,-0.06904 -0.49737,-0.164192 -0.65937,-0.217192 -0.162,-0.054 -0.24376,-0.10312 -0.24376,-0.10312 0,0 0.071,0.06752 0.21407,0.162496 0.135,0.094 0.32637,0.25088 0.58437,0.39688 0.133,0.076 0.27613,0.157744 0.42813,0.243744 0.153,0.091 0.33543,0.12644 0.52343,0.19844 0.186,0.06904 0.37626,0.109816 0.58126,0.157816 0.102,0.024 0.20662,0.05008 0.31562,0.06408 -0.005,0.01 0.325,0.0094 0.325,0.0094 0.214,0.01704 0.43588,-0.01384 0.64688,-0.0328 0.215,-0.03096 0.42931,-0.07592 0.62031,-0.135936 0.192,-0.088 0.38393,-0.175256 0.53593,-0.281256 0.176,-0.097 0.30607,-0.218432 0.43907,-0.323432 0.109,-0.118 0.22125,-0.230624 0.30625,-0.340632 0.077,-0.1 0.14319,-0.214936 0.19219,-0.310936 0.037,-0.074 0.0561,-0.133184 0.0891,-0.192184 0.109,0.012 0.21538,0.01928 0.33438,0.03128 0.379,0.026 0.76118,0.09069 1.14218,0.05472 0.383,-0.01896 0.78887,0.02016 1.17187,-0.04688 0.387,-0.05904 0.79869,-0.08006 1.17969,-0.164064 0.392,-0.088 0.77975,-0.174936 1.16875,-0.260936 0.281,-0.081 0.55556,-0.171816 0.82656,-0.257816 -0.119,0.953 -0.5358,2.18788 -1.6828,3.296872 -0.283,0.265 -0.61694,0.535256 -0.98594,0.781256 -0.387,0.229 -0.82231,0.433064 -1.29531,0.614064 -0.115,0.048 -0.23726,0.08837 -0.35626,0.134368 -0.125,0.03504 -0.25405,0.06464 -0.38905,0.09063 -0.262,0.05496 -0.53488,0.104624 -0.82188,0.140624 -0.2775,0.048 -0.56819,0.06464 -0.86719,0.06248 z m -139.8,-20.275 c -1.061,0.05 -1.81219,-0.837064 -2.34219,-1.889064 -0.545,-1.07 -0.94694,-2.326056 -1.16094,-3.339056 -0.159,-0.704 -0.26387,-1.381944 -0.39687,-2.060944 -0.058,-0.172 -0.1145,-0.342376 -0.1625,-0.509376 -0.081,1.412 -0.64944,2.896192 -1.97344,3.092192 -0.225,0.03296 -0.44432,0.02768 -0.64532,0.0048 -0.679,0.064 -1.39636,-0.161752 -1.88436,-0.568752 -0.244,-0.203 -0.41988,-0.411936 -0.49688,-0.635936 -0.105,-0.217 -0.13369,-0.439752 -0.10469,-0.668752 0.033,-0.452 0.26769,-0.948312 0.55469,-1.395312 0.105,-0.153 0.22444,-0.31512 0.34844,-0.478128 0.12,-0.172 0.2428,-0.333872 0.3578,-0.496872 0.248,-0.344 0.47395,-0.702688 0.63595,-1.104688 0.502,-1.2 0.19649,-2.66312 -0.48751,-3.95312 -0.062,-0.125 -0.1,-0.248192 -0.1,-0.367192 -0.536,-0.631 0.12382,-1.420184 0.80782,-0.842184 1.434,1.181 2.80481,2.376312 4.25781,3.695312 1.243,1.157 2.52481,2.284688 3.55781,3.829688 0.162,0.245 0.32512,0.535056 0.47812,0.864064 0.153,0.342 0.31569,0.714936 0.42969,1.110936 0.249,0.796 0.40251,1.700432 0.38751,2.548432 -0.014,0.421 -0.0441,0.836568 -0.13907,1.201568 -0.096,0.371 -0.21893,0.70912 -0.38593,1.00312 -0.349,0.569 -0.86194,0.925376 -1.53594,0.959376 z m 254.25,-2.115624 c -0.48762,-0.03248 -0.98062,-0.198872 -1.45313,-0.484376 -0.928,-0.56 -1.70081,-1.61056 -2.00781,-2.62656 -0.201,-0.684 -0.28144,-1.416312 -0.24844,-2.145312 -0.023,-0.186 -0.0322,-0.378688 -0.0422,-0.579688 -0.517,1.418 -0.92356,3.117064 -2.12656,3.714064 -0.211,0.103 -0.42224,0.153376 -0.63124,0.159376 -0.65,0.274 -1.39569,0.163496 -1.97969,-0.562504 -0.285,-0.366 -0.45938,-0.832376 -0.55938,-1.334376 -0.082,-0.507 -0.0766,-1.062 0.009,-1.6 0.182,-1.085 0.67781,-2.115624 1.25781,-2.765624 0.199,-0.23 0.42094,-0.44056 0.63594,-0.62656 0.23,-0.187 0.46281,-0.349568 0.68281,-0.501568 0.459,-0.321 0.937,-0.594 1.4,-0.9 1.381,-0.932 2.59131,-2.160496 3.82031,-3.312496 0.123,-0.11 0.25226,-0.177624 0.38126,-0.215624 0.61299,-0.75 1.42574,-0.161816 0.99374,0.617184 -0.912,1.63 -1.27849,3.422064 -0.98749,5.014064 0.244,1.4 1.01681,2.509624 1.78281,3.440624 0.482,0.606 1.10706,1.436064 1.41406,2.189064 0.086,0.193 0.11506,0.38044 0.13906,0.57344 0.023,0.189 0.006,0.373936 -0.0531,0.560936 -0.123,0.373 -0.41912,0.740064 -1.00312,1.064064 -0.454,0.253496 -0.93737,0.354376 -1.425,0.321872 z m 93.67969,-3.27656 c -1.608,-0.018 -3.00663,-0.451504 -4.09063,-1.087504 -1.1,-0.612 -1.88025,-1.420064 -2.43125,-2.189064 -0.545,-0.765 -0.858,-1.52812 -1.05,-2.10312 0.368,0.192 0.74925,0.403 1.15625,0.55 0.257,0.091 0.52612,0.205248 0.80312,0.281248 0.278,0.07704 0.55363,0.149624 0.84063,0.215624 l 0.87969,0.129688 c 0.297,0.03296 0.58831,0.04224 0.89531,0.05624 1.199,0.0048 2.41331,-0.152368 3.54531,-0.534368 0.282,-0.09601 0.56894,-0.18288 0.83594,-0.29688 0.278,-0.125 0.54532,-0.238872 0.79532,-0.371872 0.258,-0.139 0.51605,-0.267936 0.76405,-0.410936 0.24,-0.154 0.46826,-0.317 0.70626,-0.475 0.445,-0.334 0.89169,-0.663568 1.25469,-1.051568 0.195,-0.181 0.38749,-0.362808 0.56249,-0.557808 0.172,-0.182 0.34607,-0.369 0.48907,-0.575 0.148,-0.2 0.29875,-0.395816 0.44375,-0.582816 0.139,-0.2 0.26225,-0.40056 0.38125,-0.60156 0.244,-0.392 0.43544,-0.803568 0.62344,-1.17656 0.328,-0.783 0.57787,-1.50632 0.69687,-2.17032 0.119,-0.659 0.19687,-1.232936 0.19687,-1.710936 0,-0.478 -0.039,-0.841432 -0.0641,-1.098432 -0.033,-0.24 -0.0562,-0.375 -0.0562,-0.375 0,0 -0.0527,0.117184 -0.16874,0.317184 -0.099,0.216 -0.28001,0.506376 -0.47501,0.884376 -0.221,0.363 -0.48881,0.807312 -0.83281,1.295312 -0.154,0.249 -0.36269,0.477936 -0.55469,0.735936 -0.215,0.249 -0.41937,0.516128 -0.65937,0.778128 -0.496,0.512 -1.03844,1.047376 -1.67344,1.534376 -0.316,0.24 -0.64075,0.488056 -0.99375,0.689056 -0.188,0.11 -0.35025,0.228376 -0.53125,0.334376 -0.196,0.096 -0.37581,0.191192 -0.55781,0.292192 -0.191,0.091 -0.39325,0.176872 -0.58125,0.271872 -0.195,0.086 -0.40557,0.153688 -0.60157,0.229688 -0.195,0.076 -0.40125,0.14356 -0.60625,0.20156 -0.209,0.05696 -0.41,0.122944 -0.625,0.160944 -0.207,0.048 -0.41712,0.097 -0.62812,0.125 -0.211,0.02896 -0.41963,0.05696 -0.64063,0.08594 -0.419,0.038 -0.84056,0.04832 -1.25156,0.02032 -0.832,-0.01904 -1.63418,-0.193248 -2.36718,-0.431248 -0.271,-0.115 -0.52969,-0.206 -0.77969,-0.325 0.68,-1.08 1.40681,-2.370064 1.93281,-3.489064 0.287,-0.554 0.51569,-1.08488 0.77969,-1.49688 0.273,-0.406 0.55781,-0.740368 0.98281,-0.984376 0.344,-0.205 0.77056,-0.34356 1.30156,-0.50156 0.525,-0.152 1.13313,-0.335064 1.80313,-0.564064 0.658,-0.221 1.38431,-0.495936 2.12031,-0.835936 0.736,-0.339 1.46012,-0.74656 2.15312,-1.20156 1.405,-0.898 2.59895,-2.040376 3.41094,-3.009376 0.383,-0.484 0.70501,-0.908064 0.9,-1.214064 0.20501,-0.317 0.31875,-0.484376 0.31875,-0.484376 0,0 0.129,0.159064 0.35,0.464064 0.234,0.311 0.53025,0.775248 0.85626,1.406248 0.64499,1.252 1.33724,3.211632 1.45624,5.615632 0.069,1.2 5e-4,2.500056 -0.2375,3.814056 -0.244,1.315 -0.66112,2.662376 -1.25312,3.934376 -0.594,1.271 -1.36663,2.480504 -2.29063,3.537504 -0.92599,1.052 -1.99799,1.935248 -3.12499,2.581248 -1.707,0.979 -3.51438,1.386064 -5.10938,1.364064 z m -448.32188,-0.0064 c -0.327,0.0086 -0.6635,0.0016 -1.00625,-0.02344 -1.372,-0.104 -2.833687,-0.528376 -4.229687,-1.334376 -1.128,-0.646 -2.203563,-1.529248 -3.126563,-2.581248 -0.927,-1.057 -1.69175,-2.266504 -2.29375,-3.537504 -0.593,-1.272 -1.009125,-2.619376 -1.253125,-3.934376 -0.239,-1.314 -0.311062,-2.614056 -0.239062,-3.814056 0.115,-2.404 0.818125,-4.363632 1.453125,-5.615632 0.335,-0.631 0.626937,-1.095248 0.860937,-1.406248 0.224,-0.305 0.34375,-0.464064 0.34375,-0.464064 0,0 0.12,0.167376 0.325,0.484376 0.191,0.306 0.515813,0.730064 0.907813,1.214064 0.808,0.969 1.998687,2.111376 3.404687,3.009376 0.688,0.455 1.423,0.86256 2.15,1.20156 0.736,0.339 1.461875,0.614936 2.121875,0.835936 0.669,0.229 1.281813,0.412064 1.807813,0.564064 0.526,0.158 0.956,0.29656 1.3,0.50156 0.516,0.292008 0.831187,0.717192 1.142187,1.267192 0.315,0.564 0.621062,1.252376 0.989062,1.959376 0.717,1.443 1.711876,2.97256 2.371876,3.97656 -0.344,-0.1 -0.679063,-0.162872 -1.014063,-0.271872 -0.215,-0.06296 -0.42025,-0.11988 -0.63125,-0.19688 -0.21,-0.06704 -0.410938,-0.142376 -0.610938,-0.209368 l -0.593749,-0.225008 c -0.201,-0.07096 -0.391813,-0.167744 -0.582813,-0.243744 -0.756,-0.326 -1.467312,-0.698568 -2.170312,-1.051568 -0.171,-0.096 -0.343251,-0.181312 -0.506251,-0.295312 -0.172,-0.092 -0.349187,-0.168432 -0.517187,-0.273432 -0.162,-0.1 -0.323875,-0.19688 -0.496875,-0.29688 -0.157,-0.101 -0.323875,-0.191808 -0.496875,-0.282808 -0.324,-0.2 -0.640625,-0.396192 -0.965625,-0.592192 -0.163,-0.086 -0.31475,-0.190312 -0.46875,-0.295312 -0.153,-0.106 -0.322875,-0.187496 -0.471875,-0.287496 -0.153,-0.101 -0.310375,-0.196624 -0.459375,-0.290624 -0.148,-0.101 -0.292,-0.206192 -0.45,-0.292192 -0.311,-0.182 -0.588,-0.382432 -0.875,-0.573432 -0.564,-0.363008 -1.098562,-0.726256 -1.576562,-1.056256 -0.497,-0.316 -0.904251,-0.635688 -1.281251,-0.879688 -0.363,-0.243 -0.668374,-0.444432 -0.859374,-0.598432 -0.202,-0.142 -0.315626,-0.220312 -0.315626,-0.220312 0,0 0.04275,0.116312 0.118751,0.345312 0.077,0.22 0.2055,0.540808 0.3875,0.932808 0.181,0.388 0.4115,0.854248 0.7125,1.381248 0.148,0.258 0.323937,0.520504 0.485937,0.812504 0.177,0.287 0.397438,0.558936 0.598438,0.860936 0.42,0.602 0.917874,1.22244 1.471874,1.84844 0.287,0.302 0.569063,0.625808 0.889063,0.932808 0.163,0.152 0.322063,0.315376 0.489063,0.459376 0.177,0.157 0.343937,0.305752 0.510937,0.468752 0.182,0.153 0.368,0.295064 0.55,0.439064 0.182,0.157 0.373063,0.296064 0.564063,0.439064 0.191,0.149 0.395562,0.288872 0.601562,0.421872 0.201,0.139 0.401875,0.285936 0.621875,0.410936 l 0.653125,0.381248 c 0.225,0.124 0.445687,0.249752 0.679687,0.368752 0.469,0.215 0.932063,0.458312 1.439063,0.645312 0.994,0.373 2.04625,0.697064 3.13125,0.889064 0.406,0.05704 0.808063,0.132504 1.214063,0.162504 -0.679,1.214 -1.974625,2.671936 -4.115625,3.435936 -0.803251,0.294 -1.708063,0.467776 -2.689063,0.493744 z m 112.39062,-1.014056 c -0.66,-0.02104 -1.32018,-0.100312 -1.91718,-0.270312 -0.292,-0.07496 -0.58231,-0.160816 -0.84531,-0.257816 -0.258,-0.106 -0.50156,-0.222064 -0.72656,-0.339064 -0.631,-0.33 -1.142,-0.729624 -1.625,-1.140624 -0.478,-0.402 -0.91869,-0.841808 -1.42969,-1.232808 -1.51,-1.224 -3.45626,-2.204632 -5.40626,-3.165632 -0.191,-0.086 -0.32905,-0.209432 -0.43905,-0.323432 -1.176,-0.421 -0.95632,-1.414816 0.20468,-1.157816 2.443,0.536 4.83206,0.602936 6.96406,0.110936 1.845,-0.436 3.29288,-1.306688 4.62188,-2.204688 0.416,-0.273 0.95156,-0.619936 1.50156,-0.935936 0.273,-0.177 0.55982,-0.32512 0.83282,-0.47812 0.272,-0.167 0.55856,-0.295624 0.82656,-0.415624 0.258,-0.129 0.52549,-0.225504 0.78749,-0.287504 0.259,-0.081 0.51731,-0.11 0.77031,-0.1 0.497,0.01 0.98513,0.201128 1.45313,0.703128 0.727,0.77 0.68831,1.858872 0.0203,2.996872 -0.66,1.113 -2.00312,2.121688 -3.32813,2.604688 -0.45899,0.158 -0.91662,0.301496 -1.39062,0.387496 -0.234,0.04304 -0.4735,0.08513 -0.7125,0.128128 -0.239,0.03304 -0.48756,0.05384 -0.72656,0.07184 -0.249,0.03904 -0.49725,0.09063 -0.75625,0.115632 1.955,0.343 4.236,0.453432 5.125,1.523432 0.154,0.196 0.23475,0.39744 0.26875,0.59844 0.41,0.597 0.33375,1.367376 -0.53125,2.084376 -0.43,0.335 -0.97988,0.593184 -1.59688,0.767184 -0.607,0.141 -1.28631,0.243192 -1.94531,0.217192 z m 219.59375,-0.693752 c -0.545,-0.026 -1.10275,-0.06216 -1.64375,-0.153128 -0.545,-0.107 -1.06105,-0.237688 -1.53905,-0.404688 -0.467,-0.192 -0.89951,-0.412248 -1.26251,-0.656248 -0.707,-0.511 -1.12344,-1.152 -1.12344,-1.85 0.02,-1.113 1.21969,-1.586376 2.62969,-1.834376 1.43,-0.254 3.12106,-0.392312 4.51406,-0.420312 0.476,-0.01896 0.9442,-0.01136 1.4172,-0.0344 0.234,-0.0048 0.469,-0.0048 0.7,-0.0048 l 0.70624,-0.02816 c 0.244,-0.02896 0.48769,-0.05392 0.72969,-0.09688 -1.902,-0.238 -3.86675,-1.084936 -4.01875,-2.460936 -0.03,-0.234 -0.009,-0.445312 0.05,-0.645312 -0.036,-0.699 0.33344,-1.366808 0.97344,-1.757808 0.33,-0.216 0.67381,-0.335128 1.03281,-0.378128 0.364,-0.072 0.72706,-0.02592 1.11406,0.01408 0.377,0.04704 0.76919,0.16756 1.14219,0.27656 0.192,0.062 0.37268,0.134624 0.55468,0.215624 0.172,0.07104 0.34426,0.147376 0.50626,0.234376 0.238,0.119 0.45881,0.26356 0.68281,0.40156 0.225,0.134 0.43593,0.266944 0.66093,0.410944 0.439,0.295 0.89138,0.545056 1.40938,0.764056 1.562,0.646 3.62388,0.556 5.62188,0.125 0.201,-0.04304 0.373,-0.0484 0.525,-0.02344 1.1,-0.421 1.63512,0.458184 0.57812,1.017184 -2.203,1.191 -4.259,2.351688 -6.325,3.579688 -1.801,1.062 -3.421,2.179184 -5.475,2.992192 -0.631,0.27 -1.53212,0.494 -2.55312,0.624992 -0.508,0.05 -1.05682,0.101192 -1.60782,0.09219 z"
       id="path24"
       inkscape:connector-curvature="0" /></g></svg>